<svg width="35" height="35" viewBox="0 0 35 35" fill="none" xmlns="http://www.w3.org/2000/svg">
<path opacity="0.971" fill-rule="evenodd" clip-rule="evenodd" d="M17.1924 4.3409C17.7602 4.86314 18.3071 5.41001 18.833 5.98153C18.2641 5.9436 17.6944 5.92082 17.124 5.91317C16.6821 5.43705 16.2264 4.96993 15.7568 4.5118C15.8195 4.49277 15.865 4.45859 15.8936 4.40926C16.3249 4.36207 16.7578 4.33928 17.1924 4.3409Z" fill="#AB00FF"/>
<path opacity="0.966" fill-rule="evenodd" clip-rule="evenodd" d="M17.1924 4.34073C17.907 4.31719 18.6134 4.36276 19.3115 4.47745C19.9951 5.18383 20.6787 5.89021 21.3623 6.59659C20.536 6.31593 19.6928 6.11086 18.833 5.98136C18.3071 5.40984 17.7602 4.86297 17.1924 4.34073Z" fill="#B200FF"/>
<path opacity="0.962" fill-rule="evenodd" clip-rule="evenodd" d="M15.8936 4.40918C15.865 4.45851 15.8195 4.49269 15.7568 4.51172C16.2264 4.96985 16.6821 5.43697 17.124 5.91309C16.6232 5.96276 16.1219 6.00833 15.6201 6.0498C15.1832 5.61311 14.773 5.15738 14.3896 4.68262C14.8858 4.56517 15.3871 4.47403 15.8936 4.40918Z" fill="#A500FF"/>
<path opacity="0.958" fill-rule="evenodd" clip-rule="evenodd" d="M19.3115 4.47754C20.0469 4.54241 20.7534 4.70191 21.4307 4.95605C22.6018 6.16136 23.7867 7.35766 24.9854 8.54492C24.9473 8.5711 24.9246 8.60528 24.917 8.64746C23.853 7.76829 22.6681 7.0847 21.3623 6.59668C20.6787 5.8903 19.9951 5.18392 19.3115 4.47754Z" fill="#B800FF"/>
<path opacity="0.969" fill-rule="evenodd" clip-rule="evenodd" d="M14.3896 4.68262C14.773 5.15738 15.1832 5.61311 15.6201 6.0498C15.1926 6.15811 14.7597 6.24926 14.3213 6.32324C13.8884 5.93587 13.4782 5.52571 13.0908 5.09277C13.5008 4.90442 13.9338 4.7677 14.3896 4.68262Z" fill="#9F00FF"/>
<path opacity="0.981" fill-rule="evenodd" clip-rule="evenodd" d="M21.4307 4.95605C25.174 6.20417 27.8742 8.61957 29.5313 12.2021C29.6776 12.5614 29.8029 12.9261 29.9072 13.2959C29.9162 13.3464 29.9048 13.392 29.873 13.4326C28.572 12.0967 27.2617 10.8207 25.9424 9.60449C25.5988 9.28355 25.257 8.96458 24.917 8.64746C24.9246 8.60528 24.9473 8.5711 24.9854 8.54492C23.7867 7.35766 22.6018 6.16136 21.4307 4.95605Z" fill="#BE00FF"/>
<path opacity="0.963" fill-rule="evenodd" clip-rule="evenodd" d="M13.0908 5.09277C13.4782 5.52571 13.8884 5.93587 14.3213 6.32324C13.8303 6.51744 13.3291 6.69973 12.8174 6.87012C12.4983 6.41439 12.111 6.02702 11.6553 5.70801C12.1013 5.43745 12.5798 5.23237 13.0908 5.09277Z" fill="#9900FF"/>
<path opacity="0.973" fill-rule="evenodd" clip-rule="evenodd" d="M11.6553 5.70801C12.111 6.02702 12.4983 6.41439 12.8174 6.87012C12.4888 7.0687 12.147 7.25102 11.792 7.41699C11.4413 7.03206 11.0767 6.65606 10.6982 6.28906C10.7362 6.26291 10.759 6.22873 10.7666 6.18652C11.0296 5.97512 11.3258 5.81561 11.6553 5.70801Z" fill="#9300FF"/>
<path opacity="0.968" fill-rule="evenodd" clip-rule="evenodd" d="M10.7666 6.18652C10.759 6.22873 10.7363 6.26291 10.6982 6.28906C11.0767 6.65606 11.4413 7.03206 11.792 7.41699C11.1284 7.81683 10.4903 8.24975 9.87793 8.71582C9.44501 8.41962 9.08038 8.05499 8.78418 7.62207C9.11565 7.27952 9.48028 6.9719 9.87793 6.69922C10.1556 6.49217 10.4518 6.32127 10.7666 6.18652Z" fill="#8900FF"/>
<path opacity="0.959" fill-rule="evenodd" clip-rule="evenodd" d="M8.78418 7.62207C9.08038 8.05499 9.44501 8.41962 9.87793 8.71582C9.5589 9.08038 9.2171 9.42218 8.85254 9.74121C8.51074 9.35382 8.14618 8.98926 7.75879 8.64746C8.03079 8.23874 8.37259 7.89694 8.78418 7.62207Z" fill="#8000FF"/>
<path opacity="0.968" fill-rule="evenodd" clip-rule="evenodd" d="M7.75879 8.64746C8.14618 8.98926 8.51074 9.35382 8.85254 9.74121C8.37936 10.3469 7.9236 10.9621 7.48535 11.5869C7.09796 11.2224 6.71061 10.8577 6.32324 10.4932C6.72551 9.81757 7.20405 9.20233 7.75879 8.64746Z" fill="#7500FF"/>
<path opacity="0.963" fill-rule="evenodd" clip-rule="evenodd" d="M29.9072 13.2959C30.1952 14.0382 30.3775 14.813 30.4541 15.6201C29.7957 14.9959 29.1463 14.3579 28.5059 13.7061C28.4869 13.7687 28.4527 13.8142 28.4033 13.8428C27.8627 12.2593 27.0424 10.8466 25.9424 9.60449C27.2617 10.8207 28.572 12.0967 29.873 13.4326C29.9048 13.392 29.9162 13.3464 29.9072 13.2959Z" fill="#B800FF"/>
<path opacity="0.968" fill-rule="evenodd" clip-rule="evenodd" d="M6.32324 10.4932C6.71061 10.8577 7.09796 11.2224 7.48535 11.5869C7.08176 12.3937 6.7172 13.214 6.3916 14.0479C5.98145 13.6605 5.57129 13.2731 5.16113 12.8857C5.42247 12.0214 5.80984 11.2239 6.32324 10.4932Z" fill="#6800FF"/>
<path opacity="0.963" fill-rule="evenodd" clip-rule="evenodd" d="M16.3721 13.7061C16.0556 13.3553 15.7252 13.0135 15.3809 12.6807C15.3479 12.6159 15.3365 12.5475 15.3467 12.4756C15.7272 12.0837 16.1715 11.7875 16.6797 11.5869C17.3016 11.6903 17.5522 12.0549 17.4317 12.6807C17.3713 12.8585 17.2688 13.0067 17.124 13.125C16.8818 13.3334 16.6312 13.5271 16.3721 13.7061Z" fill="#8E00FF"/>
<path opacity="0.961" fill-rule="evenodd" clip-rule="evenodd" d="M15.3467 12.4756C15.3365 12.5475 15.3478 12.6159 15.3809 12.6807C15.7252 13.0135 16.0556 13.3553 16.3721 13.7061C16.0976 13.9804 15.8014 14.231 15.4834 14.458C15.1188 14.0706 14.7542 13.6833 14.3896 13.2959C14.6868 12.9989 15.0058 12.7254 15.3467 12.4756Z" fill="#8700FF"/>
<path opacity="0.96" fill-rule="evenodd" clip-rule="evenodd" d="M14.3896 13.2959C14.7542 13.6833 15.1188 14.0706 15.4834 14.458C15.1796 14.7806 14.8378 15.054 14.458 15.2783C14.0706 14.9365 13.7061 14.572 13.3643 14.1846C13.6841 13.8648 14.0259 13.5686 14.3896 13.2959Z" fill="#8000FF"/>
<path opacity="0.966" fill-rule="evenodd" clip-rule="evenodd" d="M30.4541 15.6201C30.5688 16.3183 30.6143 17.0246 30.5908 17.7393C30.0686 17.1715 29.5217 16.6246 28.9502 16.0986C28.8385 15.3364 28.6562 14.5845 28.4033 13.8428C28.4527 13.8142 28.4869 13.7687 28.5059 13.7061C29.1463 14.3579 29.7957 14.9959 30.4541 15.6201Z" fill="#B200FF"/>
<path opacity="0.967" fill-rule="evenodd" clip-rule="evenodd" d="M5.16113 12.8857C5.57129 13.2731 5.98145 13.6605 6.3916 14.0479C6.15295 14.9678 5.99344 15.902 5.91309 16.8506C5.43457 16.3948 4.95605 15.9392 4.47754 15.4834C4.57871 14.5771 4.80657 13.7112 5.16113 12.8857Z" fill="#5C00FF"/>
<path opacity="0.959" fill-rule="evenodd" clip-rule="evenodd" d="M13.3643 14.1846C13.7061 14.572 14.0706 14.9365 14.458 15.2783C13.9903 15.7572 13.489 16.2016 12.9541 16.6113C13.8197 16.6455 14.6856 16.6569 15.5518 16.6455C15.651 16.7003 15.7649 16.7345 15.8936 16.748C16.4087 17.2517 16.91 17.7644 17.3975 18.2861C16.3037 18.2861 15.21 18.2861 14.1162 18.2861C13.2983 17.434 12.4667 16.591 11.6211 15.7568C11.5894 15.7162 11.578 15.6706 11.5869 15.6201C12.1794 15.1416 12.7718 14.6631 13.3643 14.1846Z" fill="#7500FF"/>
<path opacity="0.96" fill-rule="evenodd" clip-rule="evenodd" d="M11.5869 15.6201C11.578 15.6706 11.5894 15.7162 11.6211 15.7568C12.4666 16.591 13.2983 17.434 14.1162 18.2861C13.7282 18.2748 13.3408 18.2862 12.9541 18.3203C14.4011 19.5394 15.848 20.7585 17.2949 21.9775C17.5055 22.3158 17.5169 22.6576 17.3291 23.0029C17.2786 23.0119 17.233 23.0005 17.1924 22.9688C15.0139 20.7789 12.8264 18.6028 10.6299 16.4404C10.9461 16.1677 11.2651 15.8942 11.5869 15.6201Z" fill="#6C00FF"/>
<path opacity="0.97" fill-rule="evenodd" clip-rule="evenodd" d="M28.9502 16.0986C29.5217 16.6246 30.0686 17.1715 30.5908 17.7393C30.6094 18.2563 30.5638 18.7576 30.4541 19.2432C29.9983 18.7419 29.5198 18.2634 29.0186 17.8076C29.0109 17.2372 28.9881 16.6675 28.9502 16.0986Z" fill="#AB00FF"/>
<path opacity="0.977" fill-rule="evenodd" clip-rule="evenodd" d="M10.6299 16.4404C12.8264 18.6028 15.0139 20.7789 17.1924 22.9688C17.233 23.0005 17.2786 23.0119 17.3291 23.0029C16.9944 23.3727 16.607 23.4296 16.167 23.1738C14.2073 21.5332 12.2478 19.8926 10.2881 18.252C9.80514 17.9154 9.7026 17.4938 9.98048 16.9873C10.1927 16.7964 10.4092 16.6141 10.6299 16.4404Z" fill="#6700FF"/>
<path opacity="0.935" fill-rule="evenodd" clip-rule="evenodd" d="M15.5518 16.6455C16.2809 16.6455 17.0101 16.6455 17.7393 16.6455C18.2267 17.1672 18.728 17.6799 19.2432 18.1836C19.1586 18.1995 19.0902 18.2336 19.0381 18.2861C18.4912 18.2861 17.9443 18.2861 17.3975 18.2861C16.91 17.7644 16.4087 17.2517 15.8936 16.748C15.7649 16.7345 15.651 16.7003 15.5518 16.6455Z" fill="#7F00FF"/>
<path opacity="0.931" fill-rule="evenodd" clip-rule="evenodd" d="M17.7393 16.6455C18.3773 16.6455 19.0153 16.6455 19.6533 16.6455C19.6012 16.698 19.5328 16.7322 19.4482 16.748C19.9268 17.2266 20.4053 17.7051 20.8838 18.1836C20.7992 18.1995 20.7309 18.2336 20.6787 18.2861C20.1318 18.2861 19.585 18.2861 19.0381 18.2861C19.0902 18.2336 19.1586 18.1995 19.2432 18.1836C18.728 17.6799 18.2267 17.1672 17.7393 16.6455Z" fill="#8600FF"/>
<path opacity="0.92" fill-rule="evenodd" clip-rule="evenodd" d="M21.9092 16.6454C22.7526 16.634 23.5957 16.6454 24.4385 16.6796C25.1296 16.9123 25.3005 17.3567 24.9512 18.0126C24.685 18.2341 24.3774 18.3253 24.0283 18.286C24.0805 18.2335 24.1488 18.1993 24.2334 18.1835C23.7549 17.705 23.2764 17.2265 22.7979 16.7479C22.4889 16.736 22.1927 16.7018 21.9092 16.6454Z" fill="#9800FF"/>
<path opacity="0.971" fill-rule="evenodd" clip-rule="evenodd" d="M19.6533 16.6455C20.4053 16.6455 21.1572 16.6455 21.9092 16.6455C22.1927 16.7019 22.4889 16.7361 22.7979 16.748C23.2764 17.2266 23.7549 17.7051 24.2334 18.1836C24.1488 18.1995 24.0805 18.2336 24.0283 18.2861C22.9118 18.2861 21.7952 18.2861 20.6787 18.2861C20.7309 18.2336 20.7992 18.1995 20.8838 18.1836C20.4053 17.7051 19.9268 17.2266 19.4482 16.748C19.5328 16.7322 19.6012 16.698 19.6533 16.6455Z" fill="#9000FF"/>
<path opacity="0.971" fill-rule="evenodd" clip-rule="evenodd" d="M4.47753 15.4834C4.95605 15.9392 5.43456 16.3948 5.91308 16.8506C5.8778 18.2194 6.03731 19.5638 6.39159 20.8838C5.73078 20.2458 5.06998 19.6077 4.40917 18.9697C4.26151 17.808 4.2843 16.6459 4.47753 15.4834Z" fill="#5000FF"/>
<path opacity="0.969" fill-rule="evenodd" clip-rule="evenodd" d="M29.0186 17.8076C29.5198 18.2634 29.9983 18.7419 30.4541 19.2432C30.4374 19.6851 30.3691 20.1181 30.249 20.542C29.7743 20.1586 29.3185 19.7485 28.8818 19.3115C28.9233 18.8098 28.9689 18.3085 29.0186 17.8076Z" fill="#A500FF"/>
<path opacity="0.961" fill-rule="evenodd" clip-rule="evenodd" d="M28.8818 19.3115C29.3185 19.7485 29.7743 20.1586 30.249 20.542C30.1639 20.9979 30.0272 21.4308 29.8389 21.8408C29.4059 21.4534 28.9958 21.0433 28.6084 20.6104C28.6824 20.172 28.7736 19.739 28.8818 19.3115Z" fill="#9F00FF"/>
<path opacity="0.968" fill-rule="evenodd" clip-rule="evenodd" d="M28.6084 20.6104C28.9958 21.0433 29.4059 21.4534 29.8389 21.8408C29.6993 22.3518 29.4942 22.8303 29.2236 23.2764C28.9046 22.8206 28.5173 22.4333 28.0615 22.1143C28.2319 21.6026 28.4142 21.1013 28.6084 20.6104Z" fill="#9900FF"/>
<path opacity="0.979" fill-rule="evenodd" clip-rule="evenodd" d="M4.40918 18.9697C5.06999 19.6077 5.73079 20.2458 6.3916 20.8838C7.73603 24.6436 10.2881 27.1956 14.0479 28.54C14.6858 29.2009 15.3239 29.8616 15.9619 30.5225C11.4867 29.9069 8.12567 27.651 5.87891 23.7549C5.07154 22.2571 4.58163 20.6621 4.40918 18.9697Z" fill="#4300FF"/>
<path opacity="0.967" fill-rule="evenodd" clip-rule="evenodd" d="M28.0615 22.1143C28.5173 22.4333 28.9046 22.8206 29.2236 23.2764C28.9164 24.0285 28.5063 24.7121 27.9932 25.3271C27.6475 24.913 27.2601 24.5483 26.8311 24.2334C27.294 23.5582 27.7041 22.8518 28.0615 22.1143Z" fill="#8E00FF"/>
<path opacity="0.972" fill-rule="evenodd" clip-rule="evenodd" d="M26.8311 24.2334C27.2601 24.5483 27.6475 24.913 27.9932 25.3271C27.789 25.6223 27.5611 25.8957 27.3096 26.1475C26.8767 25.8513 26.512 25.4866 26.2158 25.0537C26.4211 24.7797 26.6262 24.5062 26.8311 24.2334Z" fill="#8600FF"/>
<path opacity="0.956" fill-rule="evenodd" clip-rule="evenodd" d="M26.2158 25.0537C26.512 25.4866 26.8767 25.8513 27.3096 26.1475C27.0361 26.5576 26.6943 26.8994 26.2842 27.1729C25.9424 26.7855 25.5778 26.4209 25.1904 26.0791C25.5095 25.7145 25.8513 25.3727 26.2158 25.0537Z" fill="#8000FF"/>
<path opacity="0.963" fill-rule="evenodd" clip-rule="evenodd" d="M25.1904 26.0791C25.5778 26.4209 25.9424 26.7855 26.2842 27.1729C25.7293 27.7276 25.1141 28.2061 24.4385 28.6084C24.0739 28.221 23.7093 27.8337 23.3447 27.4463C23.9695 27.008 24.5848 26.5523 25.1904 26.0791Z" fill="#7500FF"/>
<path opacity="0.965" fill-rule="evenodd" clip-rule="evenodd" d="M23.3447 27.4463C23.7093 27.8337 24.0739 28.221 24.4385 28.6084C23.7078 29.1218 22.9102 29.5092 22.0459 29.7705C21.6585 29.3604 21.2712 28.9502 20.8838 28.54C21.7176 28.2144 22.5379 27.8499 23.3447 27.4463Z" fill="#6800FF"/>
<path opacity="0.973" fill-rule="evenodd" clip-rule="evenodd" d="M14.0479 28.54C15.3678 28.8943 16.7122 29.0538 18.0811 29.0186C18.5368 29.4971 18.9925 29.9756 19.4482 30.4541C18.2908 30.6055 17.1287 30.6283 15.9619 30.5225C15.3239 29.8616 14.6858 29.2009 14.0479 28.54Z" fill="#4F00FF"/>
<path opacity="0.968" fill-rule="evenodd" clip-rule="evenodd" d="M20.8838 28.54C21.2712 28.9502 21.6585 29.3604 22.0459 29.7705C21.2205 30.1251 20.3546 30.3529 19.4482 30.4541C18.9925 29.9756 18.5368 29.4971 18.0811 29.0186C19.0296 28.9382 19.9639 28.7787 20.8838 28.54Z" fill="#5C00FF"/>
</svg>
