<svg width="59" height="79" viewBox="0 0 59 79" fill="none" xmlns="http://www.w3.org/2000/svg">
<path fill-rule="evenodd" clip-rule="evenodd" d="M31.4775 4.74183C33.8435 6.20289 34.8103 8.34046 34.3779 11.1546C34.2681 11.3809 34.2095 11.6218 34.2021 11.8771C33.8883 12.7035 33.5221 13.5163 33.1035 14.3158C33.0147 14.3914 32.9121 14.4214 32.7959 14.4061C32.3857 14.376 31.9756 14.3458 31.5654 14.3158C31.5653 13.9535 31.4628 13.6223 31.2578 13.3222C30.8229 12.8817 30.3395 12.5204 29.8076 12.2384C29.8821 11.8417 29.97 11.4504 30.0713 11.0642C30.3002 10.9712 30.5346 10.9712 30.7744 11.0642C31.5933 11.289 32.2232 11.7707 32.6641 12.5094C33.0184 11.8353 33.1795 11.1127 33.1475 10.3417C33.1755 9.90245 33.1462 9.48093 33.0596 9.0772C32.6978 7.39935 31.9068 5.98434 30.6865 4.83215C30.6279 4.59129 30.4815 4.44077 30.2471 4.38055C30.1188 4.20327 29.9722 4.03768 29.8076 3.88379C30.4055 4.07057 30.9621 4.35659 31.4775 4.74183Z" fill="#FE3718"/>
<path opacity="0.999" fill-rule="evenodd" clip-rule="evenodd" d="M46.1553 25.696C46.0981 25.7494 46.0394 25.8096 45.9795 25.8767C45.5621 25.5944 45.1372 25.3235 44.7051 25.0638C44.6513 23.2021 44.5927 21.3657 44.5293 19.5543C44.4707 19.4339 44.4121 19.3134 44.3535 19.193C44.2524 19.8783 44.0766 20.5406 43.8262 21.18C43.511 20.3822 43.174 19.5994 42.8154 18.8317C42.0548 16.8297 40.8389 15.1738 39.168 13.8641C39.1807 13.5919 39.2247 13.3209 39.2998 13.0512C39.6488 12.1516 39.7807 11.2184 39.6953 10.2513C39.3878 11.3674 38.8165 12.3007 37.9814 13.0512C36.7947 12.3962 35.5935 11.764 34.3779 11.1545C34.8103 8.34041 33.8435 6.20284 31.4775 4.74178C38.0293 6.06914 42.2187 10.0583 44.0459 16.7092C44.0906 16.8148 44.1638 16.89 44.2656 16.935C44.2916 12.9493 42.8707 9.6225 40.0029 6.95462C37.6267 4.77077 34.8435 3.52134 31.6533 3.20634C30.5201 3.25847 29.4654 3.57459 28.4893 4.1547C28.8882 4.27426 29.2837 4.2893 29.6758 4.19986C29.833 4.35602 30.0235 4.41624 30.2471 4.3805C30.4815 4.44072 30.6279 4.59124 30.6865 4.8321C30.3936 4.71168 30.1006 4.59124 29.8076 4.47082C29.7203 5.26724 29.691 6.08012 29.7197 6.90946C29.7197 7.06 29.7197 7.21053 29.7197 7.36106C29.4244 7.35059 29.1315 7.32049 28.8408 7.27074C28.318 6.72307 27.9664 6.07578 27.7861 5.32886C27.8069 4.88654 27.9827 4.52525 28.3135 4.24502C27.4587 4.1962 26.6091 4.24136 25.7646 4.3805C25.8055 3.97803 25.8934 3.58665 26.0283 3.20634C25.9964 3.1446 25.9671 3.0844 25.9404 3.0257C27.1304 2.46792 28.3901 2.19696 29.7197 2.21282C34.6121 2.32643 38.7869 4.13283 42.2441 7.63202C44.7842 10.6883 46.1612 14.2408 46.375 18.2898C46.4336 20.0962 46.4336 21.9026 46.375 23.709C46.3304 24.3768 46.2572 25.0392 46.1553 25.696Z" fill="#E14646"/>
<path fill-rule="evenodd" clip-rule="evenodd" d="M31.4775 4.74186C30.9621 4.35662 30.4055 4.0706 29.8076 3.88382C29.9722 4.03771 30.1187 4.2033 30.2471 4.38058C30.0235 4.41632 29.833 4.35611 29.6758 4.19994C29.2837 4.28939 28.8882 4.27434 28.4893 4.15478C29.4654 3.57467 30.5201 3.25855 31.6533 3.20642C34.8435 3.52142 37.6267 4.77086 40.0029 6.95471C42.8707 9.62258 44.2916 12.9494 44.2656 16.9351C44.1638 16.8901 44.0906 16.8149 44.0459 16.7093C42.2187 10.0584 38.0293 6.06923 31.4775 4.74186Z" fill="#EC4C4C"/>
<path opacity="0.999" fill-rule="evenodd" clip-rule="evenodd" d="M25.9404 3.02576C25.9671 3.08446 25.9964 3.14466 26.0283 3.2064C25.8934 3.58671 25.8055 3.97809 25.7646 4.38056C26.6091 4.24142 27.4587 4.19626 28.3135 4.24508C27.9827 4.52531 27.8069 4.8866 27.7861 5.32892C27.9664 6.07584 28.318 6.72313 28.8408 7.2708C26.9185 7.00206 25.0434 7.19775 23.2158 7.85788C22.5631 8.18521 21.9478 8.56155 21.3701 8.98689C21.4197 8.2715 21.5662 7.57905 21.8096 6.90952C22.709 5.0821 24.086 3.78752 25.9404 3.02576Z" fill="#CE3B3B"/>
<path fill-rule="evenodd" clip-rule="evenodd" d="M29.8955 5.01282C30.2125 6.7109 30.3298 8.42698 30.2471 10.1611C30.1805 10.4583 30.1219 10.7593 30.0713 11.0643C29.97 11.4504 29.8821 11.8417 29.8076 12.2384C29.675 12.5255 29.5578 12.8265 29.4561 13.1416C29.2405 13.6441 28.9769 14.1258 28.665 14.5868C28.6943 14.6168 28.7237 14.647 28.7529 14.6771C29.5773 14.3905 30.4268 14.27 31.3018 14.3158C31.3896 14.3158 31.4775 14.3158 31.5654 14.3158C31.9756 14.3459 32.3857 14.376 32.7959 14.4061C32.951 14.4929 33.1268 14.5231 33.3232 14.4964C34.6379 14.6769 35.8977 14.4511 37.1025 13.819C37.4508 13.6257 37.7438 13.3699 37.9814 13.0513C38.8165 12.3007 39.3878 11.3675 39.6953 10.2514C39.7807 11.2184 39.6488 12.1517 39.2998 13.0513C38.8981 13.8254 38.3415 14.4577 37.6299 14.948C36.4301 15.5296 35.1703 15.8909 33.8506 16.0319C33.968 16.2716 34.1145 16.4823 34.29 16.6641C34.8012 17.1714 35.4164 17.4724 36.1357 17.5673C36.8442 17.7678 37.5767 17.8883 38.333 17.9286C38.8896 17.9888 39.4463 18.049 40.0029 18.1092C39.9737 18.1092 39.9443 18.1092 39.915 18.1092C38.4308 18.3906 36.9367 18.4508 35.4326 18.2899C34.021 18.0165 32.8491 17.324 31.917 16.2125C30.8875 16.3336 29.8621 16.4842 28.8408 16.6641C28.9169 17.0603 29.122 17.3764 29.4561 17.6125C29.7373 17.8021 30.0302 17.9677 30.335 18.1092C30.3936 18.1393 30.4521 18.1695 30.5107 18.1996C30.9905 18.4156 31.4886 18.5812 32.0049 18.6963C31.8019 18.7412 31.5968 18.7562 31.3896 18.7415C30.8574 18.6835 30.33 18.5932 29.8076 18.4705C29.0051 18.344 28.2727 18.0429 27.6104 17.5673C27.3349 17.063 26.9541 16.9726 26.4678 17.2964C26.0365 17.4986 25.6263 17.7395 25.2373 18.0189C24.9174 18.1833 24.5951 18.3489 24.2705 18.5157C24.0939 18.7734 23.9768 19.0595 23.9189 19.3737C23.6588 20.1422 23.4537 20.925 23.3037 21.722C23.2797 21.8983 23.3383 22.0337 23.4795 22.1285C23.7128 22.1794 23.9472 22.2246 24.1826 22.264C24.3457 22.2784 24.4628 22.2182 24.5342 22.0833C24.8041 21.5497 25.1849 21.1132 25.6768 20.7737C26.3437 20.3897 27.0468 20.1038 27.7861 19.9156C28.1254 19.8878 28.4476 19.8276 28.7529 19.735C30.1295 19.6228 31.5064 19.6228 32.8838 19.735C32.5909 19.7952 32.2978 19.8554 32.0049 19.9156C31.917 19.9156 31.8291 19.9156 31.7412 19.9156C30.3035 19.9301 28.9265 20.201 27.6104 20.7285C26.8071 21.1017 26.1625 21.6737 25.6768 22.4446C26.6761 22.9079 27.6722 23.3896 28.665 23.8897C28.9701 24.1282 29.2338 24.4141 29.4561 24.7478C29.7959 24.7591 30.1181 24.6839 30.4229 24.522C31.6173 24.3609 32.8185 24.3007 34.0264 24.3413C34.2455 24.308 34.3041 24.3681 34.2021 24.522C33.2876 24.526 32.4087 24.6766 31.5654 24.9736C31.0273 25.18 30.5439 25.4811 30.1152 25.8768C30.0544 25.9614 30.0691 26.0215 30.1592 26.0574C30.273 26.7793 30.273 27.5019 30.1592 28.2251C29.8224 29.7608 29.2218 31.1758 28.3574 32.4701C28.5417 31.8722 28.7469 31.2701 28.9727 30.6637C29.1418 30.0729 29.2442 29.4707 29.2803 28.8573C29.3658 28.6362 29.3951 28.3953 29.3682 28.1348C29.345 27.7171 29.2572 27.3257 29.1045 26.9606C28.9131 26.2946 28.5322 25.7828 27.9619 25.4252C27.6995 25.1398 27.3773 25.0044 26.9951 25.0187C26.5168 25.5253 26.1653 26.1124 25.9404 26.78C25.8438 26.9405 25.7704 27.1211 25.7207 27.3219C25.6387 28.3839 25.6826 29.4376 25.8525 30.4831C25.9553 30.9648 26.0285 31.4464 26.0723 31.9282C25.326 30.9951 24.8426 29.9414 24.6221 28.767C24.6221 28.6164 24.6221 28.466 24.6221 28.3154C24.6221 28.1047 24.6221 27.8939 24.6221 27.6832C24.6888 26.6345 24.9525 25.6409 25.4131 24.7026C25.4925 24.6386 25.5218 24.5482 25.501 24.4316C24.4877 24.2691 23.5209 23.9529 22.6006 23.4833C22.1619 23.199 21.8397 22.8227 21.6338 22.3543C21.5729 21.6267 21.69 20.9343 21.9854 20.2769C22.0732 19.9759 22.1611 19.6748 22.249 19.3737C22.3929 19.227 22.3635 19.1367 22.1611 19.1028C20.0635 19.454 18.3936 20.5078 17.1514 22.264C15.0804 25.3034 14.2747 28.6753 14.7344 32.3798C14.9329 33.5807 15.1087 34.785 15.2617 35.9926C15.3203 36.6549 15.3203 37.3173 15.2617 37.9797C15.2281 38.0299 15.1841 38.06 15.1299 38.07C14.9861 37.9572 14.8835 37.8066 14.8223 37.6184C14.1631 35.2112 13.7383 32.7725 13.5479 30.3025C13.4095 27.838 13.7757 25.4595 14.6465 23.1672C15.9319 20.3116 18.0559 18.46 21.0186 17.6125C22.0483 17.3855 23.0737 17.1447 24.0947 16.8899C24.4469 16.7692 24.7691 16.6036 25.0615 16.3932C25.159 16.388 25.2469 16.3579 25.3252 16.3028C25.604 16.1446 25.8677 15.964 26.1162 15.7609C27.174 14.9727 27.9357 13.9491 28.4014 12.69C28.5852 12.4563 28.7024 12.1853 28.7529 11.8771C28.9204 11.5415 29.0376 11.1802 29.1045 10.7933C29.4027 9.67821 29.6078 8.53419 29.7197 7.36114C29.7197 7.2106 29.7197 7.06008 29.7197 6.90954C29.7784 6.2773 29.8369 5.64506 29.8955 5.01282Z" fill="#87AAE6"/>
<path fill-rule="evenodd" clip-rule="evenodd" d="M29.8076 4.47083C29.7868 4.58743 29.8161 4.67775 29.8955 4.74179C29.8955 4.83211 29.8955 4.92243 29.8955 5.01275C29.8369 5.64499 29.7783 6.27723 29.7197 6.90947C29.691 6.08013 29.7203 5.26725 29.8076 4.47083Z" fill="#9B86B0"/>
<path fill-rule="evenodd" clip-rule="evenodd" d="M29.8076 4.47083C30.1006 4.59125 30.3936 4.71168 30.6865 4.83211C31.9068 5.98429 32.6978 7.3993 33.0596 9.07715C32.9717 9.07715 32.8838 9.07715 32.7959 9.07715C32.2387 7.33241 31.2719 5.88729 29.8955 4.74179C29.8161 4.67775 29.7868 4.58743 29.8076 4.47083Z" fill="#B63837"/>
<path opacity="0.999" fill-rule="evenodd" clip-rule="evenodd" d="M28.8408 7.27081C29.1315 7.32056 29.4244 7.35066 29.7197 7.36113C29.6078 8.53418 29.4027 9.6782 29.1045 10.7933C28.7707 10.7045 28.4191 10.6743 28.0498 10.703C27.7859 9.94654 27.3025 9.40462 26.5996 9.07721C26.3007 9.09509 26.0956 9.24566 25.9844 9.52881C25.7864 9.98863 25.684 10.4704 25.6768 10.9739C25.346 11.0062 25.0237 11.0814 24.71 11.1997C24.9677 11.2858 25.2313 11.331 25.501 11.3352C25.3839 12.1177 25.0763 12.8102 24.5781 13.4126C23.5822 14.5182 22.425 15.3912 21.1064 16.0319C21.3169 15.6304 21.5512 15.239 21.8096 14.8577C21.7777 14.796 21.7484 14.7358 21.7217 14.6771C21.9556 14.4358 22.1606 14.1649 22.3369 13.8642C21.5236 12.342 21.2014 10.7162 21.3701 8.98689C21.9478 8.56155 22.5631 8.18522 23.2158 7.85789C25.0434 7.19776 26.9185 7.00206 28.8408 7.27081Z" fill="#C33635"/>
<path fill-rule="evenodd" clip-rule="evenodd" d="M29.8955 4.74182C31.2719 5.88732 32.2387 7.33245 32.7959 9.07719C31.8136 9.11539 30.964 9.47667 30.2471 10.161C30.3298 8.42695 30.2125 6.71086 29.8955 5.01278C29.8955 4.92246 29.8955 4.83214 29.8955 4.74182Z" fill="#D74242"/>
<path fill-rule="evenodd" clip-rule="evenodd" d="M32.7959 9.07715C32.8838 9.07715 32.9717 9.07715 33.0596 9.07715C33.1462 9.48088 33.1755 9.9024 33.1475 10.3416C32.7947 10.3266 32.4431 10.3417 32.0928 10.3868C31.5998 10.5197 31.1603 10.7455 30.7744 11.0642C30.5346 10.9712 30.3002 10.9712 30.0713 11.0642C30.1219 10.7593 30.1805 10.4582 30.2471 10.161C30.964 9.47663 31.8136 9.11535 32.7959 9.07715Z" fill="#EC8E33"/>
<path fill-rule="evenodd" clip-rule="evenodd" d="M28.0498 10.7029C27.2453 10.7154 26.4543 10.8057 25.6768 10.9739C25.684 10.4703 25.7864 9.98857 25.9844 9.52875C26.0956 9.2456 26.3007 9.09503 26.5996 9.07715C27.3025 9.40456 27.7859 9.94648 28.0498 10.7029Z" fill="#F09233"/>
<path opacity="0.999" fill-rule="evenodd" clip-rule="evenodd" d="M21.8096 6.90955C21.5662 7.57907 21.4197 8.27153 21.3701 8.98691C21.2014 10.7163 21.5236 12.342 22.3369 13.8642C22.1606 14.1649 21.9556 14.4358 21.7217 14.6771C20.4316 12.0661 20.4609 9.4769 21.8096 6.90955Z" fill="#D66658"/>
<path fill-rule="evenodd" clip-rule="evenodd" d="M33.1475 10.3417C33.1795 11.1127 33.0184 11.8353 32.6641 12.5093C32.2232 11.7707 31.5933 11.289 30.7744 11.0642C31.1603 10.7455 31.5998 10.5197 32.0928 10.3868C32.4431 10.3418 32.7947 10.3267 33.1475 10.3417Z" fill="#FCAF2D"/>
<path fill-rule="evenodd" clip-rule="evenodd" d="M28.0498 10.703C28.4191 10.6743 28.7707 10.7045 29.1045 10.7933C29.0376 11.1802 28.9204 11.5415 28.7529 11.8771C27.878 11.7033 26.9991 11.5528 26.1162 11.4255C25.931 11.3381 25.7259 11.3079 25.501 11.3352C25.2313 11.331 24.9677 11.2858 24.71 11.1997C25.0237 11.0814 25.346 11.0062 25.6768 10.9739C26.4543 10.8057 27.2453 10.7154 28.0498 10.703Z" fill="#FC3918"/>
<path fill-rule="evenodd" clip-rule="evenodd" d="M34.3779 11.1545C35.5935 11.764 36.7947 12.3963 37.9814 13.0513C37.7438 13.3698 37.4508 13.6257 37.1025 13.819C35.8977 14.451 34.6379 14.6768 33.3232 14.4964C33.4677 14.5157 33.5996 14.4855 33.7188 14.4061C33.9532 13.5773 34.1144 12.7343 34.2021 11.8771C34.2095 11.6218 34.2681 11.3809 34.3779 11.1545Z" fill="#C63B3A"/>
<path fill-rule="evenodd" clip-rule="evenodd" d="M26.1162 11.4255C26.9991 11.5528 27.878 11.7034 28.7529 11.8771C28.7024 12.1853 28.5852 12.4563 28.4014 12.69C28.3554 12.4906 28.2382 12.3551 28.0498 12.2836C27.2922 12.1187 26.5305 11.9833 25.7646 11.8771C25.7646 11.7266 25.7646 11.5761 25.7646 11.4255C25.8818 11.4255 25.9991 11.4255 26.1162 11.4255Z" fill="#CB8926"/>
<path fill-rule="evenodd" clip-rule="evenodd" d="M25.7646 11.8771C26.5305 11.9832 27.2922 12.1187 28.0498 12.2835C28.2382 12.355 28.3554 12.4905 28.4014 12.69C27.9357 13.949 27.174 14.9726 26.1162 15.7608C25.9711 15.4024 25.7806 15.0712 25.5449 14.7673C25.3817 14.5235 25.162 14.373 24.8857 14.3157C25.2845 13.5374 25.5774 12.7245 25.7646 11.8771Z" fill="#FEB22F"/>
<path fill-rule="evenodd" clip-rule="evenodd" d="M29.8076 12.2384C30.3395 12.5204 30.8229 12.8817 31.2578 13.3222C31.4628 13.6223 31.5653 13.9535 31.5654 14.3158C31.4775 14.3158 31.3896 14.3158 31.3018 14.3158C30.9723 13.6165 30.445 13.1348 29.7197 12.8706C29.6505 12.9854 29.5626 13.0757 29.4561 13.1416C29.5578 12.8265 29.675 12.5254 29.8076 12.2384Z" fill="#CC8D26"/>
<path fill-rule="evenodd" clip-rule="evenodd" d="M34.2021 11.8771C34.1144 12.7343 33.9532 13.5773 33.7188 14.406C33.5996 14.4855 33.4677 14.5157 33.3232 14.4964C33.1268 14.523 32.951 14.4928 32.7959 14.406C32.9121 14.4214 33.0147 14.3913 33.1035 14.3157C33.5221 13.5163 33.8883 12.7034 34.2021 11.8771Z" fill="#F7A82F"/>
<path fill-rule="evenodd" clip-rule="evenodd" d="M31.3018 14.3157C30.4268 14.2699 29.5773 14.3904 28.7529 14.677C28.7237 14.6469 28.6943 14.6168 28.665 14.5867C28.9769 14.1257 29.2405 13.644 29.4561 13.1416C29.5626 13.0756 29.6505 12.9853 29.7197 12.8706C30.445 13.1348 30.9723 13.6165 31.3018 14.3157Z" fill="#F9B030"/>
<path opacity="0.994" fill-rule="evenodd" clip-rule="evenodd" d="M25.501 11.3352C25.7259 11.3079 25.931 11.338 26.1162 11.4255C25.9991 11.4255 25.8818 11.4255 25.7646 11.4255C25.7646 11.576 25.7646 11.7265 25.7646 11.8771C25.5774 12.7246 25.2845 13.5374 24.8857 14.3157C24.7686 14.3157 24.71 14.376 24.71 14.4964C24.0421 15.3483 23.2511 16.0557 22.3369 16.6189C21.053 17.3237 19.7346 17.956 18.3818 18.5156C15.8967 20.0793 14.2708 22.3222 13.5039 25.2445C13.3402 25.8583 13.1791 26.4604 13.0205 27.0509C13.2363 25.381 13.6172 23.7553 14.1631 22.1736C15.1254 19.7847 16.7368 18.0235 18.9971 16.8898C19.7068 16.6117 20.4099 16.3258 21.1064 16.0318C22.425 15.3912 23.5822 14.5181 24.5781 13.4125C25.0763 12.8102 25.3839 12.1177 25.501 11.3352Z" fill="#EB8C2D"/>
<path fill-rule="evenodd" clip-rule="evenodd" d="M24.8857 14.3158C25.162 14.3731 25.3817 14.5235 25.5449 14.7674C25.7806 15.0713 25.9711 15.4024 26.1162 15.7609C25.8677 15.964 25.604 16.1446 25.3252 16.3028C25.2489 15.7968 25.1024 15.3151 24.8857 14.8577C24.8717 14.7084 24.8131 14.588 24.71 14.4964C24.71 14.376 24.7686 14.3158 24.8857 14.3158Z" fill="#FD3C19"/>
<path fill-rule="evenodd" clip-rule="evenodd" d="M24.8857 14.8577C25.1024 15.315 25.2489 15.7967 25.3252 16.3028C25.2469 16.3579 25.159 16.388 25.0615 16.3931C24.9382 15.8926 24.7624 15.4108 24.5342 14.948C24.6387 14.8641 24.7558 14.834 24.8857 14.8577Z" fill="#CF8C24"/>
<path fill-rule="evenodd" clip-rule="evenodd" d="M37.6299 14.948C37.6194 15.3548 37.5023 15.7161 37.2783 16.0318C37.1269 15.9144 36.9364 15.8542 36.707 15.8512C35.8252 15.9175 35.0196 16.1885 34.29 16.6641C34.1145 16.4823 33.968 16.2715 33.8506 16.0318C35.1703 15.8908 36.4301 15.5296 37.6299 14.948Z" fill="#CE7E31"/>
<path fill-rule="evenodd" clip-rule="evenodd" d="M37.2783 16.0318C36.9312 16.5693 36.5503 17.0812 36.1357 17.5673C35.4164 17.4724 34.8012 17.1713 34.29 16.6641C35.0196 16.1885 35.8252 15.9175 36.707 15.8512C36.9364 15.8542 37.1269 15.9144 37.2783 16.0318Z" fill="#FDB336"/>
<path fill-rule="evenodd" clip-rule="evenodd" d="M31.917 16.2124C31.4521 16.8951 30.9247 17.5274 30.335 18.1091C30.0302 17.9676 29.7373 17.8019 29.4561 17.6124C29.122 17.3763 28.9169 17.0601 28.8408 16.664C29.8621 16.4841 30.8875 16.3335 31.917 16.2124Z" fill="#FC3B1B"/>
<path fill-rule="evenodd" clip-rule="evenodd" d="M35.0811 18.4704C34.7755 18.7525 34.424 18.9633 34.0264 19.1027C33.7049 19.2198 33.5584 19.4606 33.5869 19.8252C33.3587 19.7561 33.1243 19.726 32.8838 19.7349C31.5064 19.6227 30.1295 19.6227 28.7529 19.7349C29.0824 19.4289 29.434 19.1429 29.8076 18.8769C30.2775 18.829 30.7462 18.8441 31.2139 18.922C31.3604 18.907 31.5068 18.892 31.6533 18.8769C31.5446 18.8559 31.4567 18.8108 31.3896 18.7414C31.5968 18.7561 31.8019 18.7411 32.0049 18.6962C31.4886 18.5811 30.9905 18.4155 30.5107 18.1995C31.0414 17.6805 31.5102 17.1084 31.917 16.4834C32.7875 17.4718 33.8421 18.1342 35.0811 18.4704Z" fill="#FDB230"/>
<path fill-rule="evenodd" clip-rule="evenodd" d="M27.6104 17.5672C27.6104 17.6275 27.5811 17.6575 27.5225 17.6575C27.4444 17.4974 27.3273 17.377 27.1709 17.2963C26.9397 17.3756 26.7053 17.4358 26.4678 17.4769C26.4678 17.4167 26.4678 17.3565 26.4678 17.2963C26.9541 16.9726 27.3349 17.0629 27.6104 17.5672Z" fill="#C99030"/>
<path fill-rule="evenodd" clip-rule="evenodd" d="M26.4678 17.2963C26.4678 17.3565 26.4678 17.4167 26.4678 17.4769C26.4612 17.7213 26.4319 17.9622 26.3799 18.1995C26.768 18.0454 27.1488 17.8647 27.5225 17.6575C27.5811 17.6575 27.6104 17.6275 27.6104 17.5672C28.2727 18.0429 29.0051 18.3439 29.8076 18.4704C29.1798 19.0189 28.506 19.5006 27.7861 19.9155C27.0468 20.1037 26.3437 20.3896 25.6768 20.7736C25.1849 21.1131 24.8041 21.5496 24.5342 22.0832C24.2766 21.9395 24.0422 21.7589 23.8311 21.5413C23.6597 21.6201 23.4839 21.6803 23.3037 21.722C23.4537 20.9249 23.6588 20.1421 23.9189 19.3736C24.2497 19.2652 24.572 19.1297 24.8857 18.9672C25.0399 18.6654 25.1571 18.3493 25.2373 18.0188C25.6263 17.7394 26.0365 17.4985 26.4678 17.2963Z" fill="#FD3819"/>
<path fill-rule="evenodd" clip-rule="evenodd" d="M27.5225 17.6575C27.1488 17.8647 26.768 18.0454 26.3799 18.1995C26.4319 17.9622 26.4612 17.7213 26.4678 17.4769C26.7053 17.4358 26.9397 17.3756 27.1709 17.2963C27.3273 17.377 27.4444 17.4974 27.5225 17.6575Z" fill="#FCAE2C"/>
<path fill-rule="evenodd" clip-rule="evenodd" d="M31.917 16.2124C32.8491 17.3239 34.021 18.0164 35.4326 18.2898C35.2984 18.2832 35.2105 18.3434 35.1689 18.4704C35.1397 18.4704 35.1103 18.4704 35.0811 18.4704C33.8421 18.1341 32.7875 17.4717 31.917 16.4834C31.5102 17.1084 31.0414 17.6805 30.5107 18.1994C30.4521 18.1694 30.3936 18.1392 30.335 18.1091C30.9247 17.5274 31.4521 16.8951 31.917 16.2124Z" fill="#CC902E"/>
<path fill-rule="evenodd" clip-rule="evenodd" d="M38.333 17.9286C39.066 17.9136 39.7984 17.9286 40.5303 17.9738C40.3529 18.0194 40.1771 18.0645 40.0029 18.1092C39.4463 18.049 38.8896 17.9888 38.333 17.9286Z" fill="#A07A9E"/>
<path opacity="0.998" fill-rule="evenodd" clip-rule="evenodd" d="M24.71 14.4963C24.8131 14.5879 24.8717 14.7083 24.8857 14.8576C24.7558 14.834 24.6387 14.864 24.5342 14.9479C24.7624 15.4107 24.9382 15.8925 25.0615 16.3931C24.7691 16.6035 24.4469 16.7691 24.0947 16.8898C23.0737 17.1446 22.0483 17.3854 21.0186 17.6124C18.0559 18.4599 15.9319 20.3115 14.6465 23.1671C13.7757 25.4594 13.4095 27.8379 13.5479 30.3024C13.5293 33.832 14.2177 37.2039 15.6133 40.4182C16.0344 40.8527 16.4738 40.8828 16.9316 40.5085C16.9851 40.3591 17.029 40.2086 17.0635 40.0569C17.1857 39.8683 17.2444 39.6575 17.2393 39.4247C16.5998 36.5708 16.2482 33.6806 16.1846 30.754C16.1825 29.1756 16.4315 27.6402 16.9316 26.1476C17.0436 25.8865 17.1754 25.6456 17.3271 25.4251C18.4058 23.8918 19.8706 23.0338 21.7217 22.851C22.0239 23.3422 22.434 23.7035 22.9521 23.9348C23.7493 24.2731 24.5697 24.529 25.4131 24.7025C24.9525 25.6408 24.6888 26.6344 24.6221 27.6831C23.883 27.1801 23.1799 26.6232 22.5127 26.0122C22.1711 25.7312 21.7902 25.5205 21.3701 25.3799C21.073 25.2952 20.8094 25.3554 20.5791 25.5606C20.3234 25.8302 20.1476 26.1463 20.0518 26.5089C19.4587 28.0118 19.2243 29.5774 19.3486 31.2056C19.2903 31.4294 19.261 31.6703 19.2607 31.9281C19.3395 33.1645 19.4421 34.3989 19.5684 35.6312C19.876 37.7087 20.1836 39.7861 20.4912 41.8633C18.9168 43.0698 17.159 43.5064 15.2178 43.173C14.2077 42.7369 13.5778 41.9692 13.3281 40.8698C12.8276 37.1535 12.6372 33.4203 12.7568 29.6701C12.7942 28.7914 12.882 27.9183 13.0205 27.0508C13.1791 26.4604 13.3402 25.8582 13.5039 25.2444C14.2708 22.3222 15.8967 20.0793 18.3818 18.5156C19.7346 17.956 21.053 17.3237 22.3369 16.6189C23.2511 16.0557 24.0421 15.3482 24.71 14.4963Z" fill="#FEB22E"/>
<path fill-rule="evenodd" clip-rule="evenodd" d="M39.915 18.1091C40.1023 18.1827 40.3074 18.2278 40.5303 18.2446C38.7554 18.6731 36.9683 18.7484 35.1689 18.4704C35.2105 18.3434 35.2984 18.2832 35.4326 18.2898C36.9367 18.4507 38.4308 18.3905 39.915 18.1091Z" fill="#A22F2F"/>
<path fill-rule="evenodd" clip-rule="evenodd" d="M25.2373 18.0189C25.1571 18.3494 25.0399 18.6655 24.8857 18.9673C24.572 19.1298 24.2497 19.2652 23.9189 19.3737C23.9768 19.0595 24.0939 18.7735 24.2705 18.5157C24.5951 18.3489 24.9174 18.1833 25.2373 18.0189Z" fill="#EBA430"/>
<path fill-rule="evenodd" clip-rule="evenodd" d="M39.2998 13.0513C39.2247 13.321 39.1807 13.5919 39.168 13.8642C40.8389 15.1739 42.0548 16.8297 42.8154 18.8318C43.205 20.186 43.454 21.5709 43.5625 22.9865C43.6211 24.823 43.6211 26.6595 43.5625 28.496C43.5471 28.9042 43.5032 29.2956 43.4307 29.6702C41.181 27.2928 38.8666 24.9745 36.4873 22.7155C37.367 22.6255 38.2166 22.3847 39.0361 21.993C39.4222 21.9968 39.8031 22.0118 40.1787 22.0381C39.8956 21.9227 39.6027 21.8475 39.2998 21.8123C39.4804 21.6267 39.6268 21.416 39.7393 21.1801C39.8027 21.1423 39.8467 21.0822 39.8711 20.9994C39.9297 20.6984 39.9297 20.3973 39.8711 20.0962C39.7323 19.9571 39.5711 19.8517 39.3877 19.7801C38.8698 19.6315 38.3425 19.5412 37.8057 19.5092C36.5744 19.4274 35.3439 19.3371 34.1143 19.2382C34.0654 19.2036 34.0361 19.1584 34.0264 19.1027C34.424 18.9634 34.7755 18.7525 35.0811 18.4705C35.1103 18.4705 35.1397 18.4705 35.1689 18.4705C36.9683 18.7485 38.7554 18.6732 40.5303 18.2447C40.3074 18.2279 40.1023 18.1827 39.915 18.1092C39.9443 18.1092 39.9737 18.1092 40.0029 18.1092C40.1771 18.0645 40.3529 18.0193 40.5303 17.9737C39.7984 17.9286 39.066 17.9136 38.333 17.9286C37.5767 17.8883 36.8442 17.7678 36.1357 17.5673C36.5503 17.0812 36.9312 16.5693 37.2783 16.0318C37.5023 15.7161 37.6194 15.3548 37.6299 14.948C38.3415 14.4576 38.8981 13.8254 39.2998 13.0513Z" fill="#C43736"/>
<path fill-rule="evenodd" clip-rule="evenodd" d="M29.8076 18.4705C30.33 18.5931 30.8574 18.6834 31.3896 18.7414C31.4567 18.8108 31.5446 18.8559 31.6533 18.8769C31.5068 18.892 31.3604 18.907 31.2139 18.9221C30.7462 18.8441 30.2775 18.829 29.8076 18.8769C29.434 19.1429 29.0824 19.4289 28.7529 19.7349C28.4476 19.8275 28.1254 19.8878 27.7861 19.9156C28.506 19.5007 29.1798 19.019 29.8076 18.4705Z" fill="#CD8E28"/>
<path fill-rule="evenodd" clip-rule="evenodd" d="M34.0264 19.1027C34.0361 19.1584 34.0654 19.2035 34.1143 19.2381C35.3439 19.337 36.5744 19.4274 37.8057 19.5091C38.3425 19.5412 38.8698 19.6315 39.3877 19.7801C39.5711 19.8516 39.7323 19.957 39.8711 20.0962C39.9297 20.3972 39.9297 20.6983 39.8711 20.9994C39.8467 21.0821 39.8027 21.1423 39.7393 21.18C39.372 21.033 38.9912 20.9276 38.5967 20.8639C37.4262 20.7759 36.2543 20.7158 35.0811 20.6833C34.5598 20.5228 34.0911 20.2668 33.6748 19.9155C33.6748 19.8553 33.6455 19.8252 33.5869 19.8252C33.5584 19.4606 33.7049 19.2198 34.0264 19.1027Z" fill="#EC8D2F"/>
<path fill-rule="evenodd" clip-rule="evenodd" d="M22.249 19.3737C22.1611 19.6747 22.0732 19.9758 21.9854 20.2769C20.4801 20.792 19.0154 21.3942 17.5908 22.0833C18.7561 20.5053 20.3088 19.6021 22.249 19.3737Z" fill="#FDB12D"/>
<path fill-rule="evenodd" clip-rule="evenodd" d="M32.8838 19.7349C33.1243 19.726 33.3587 19.7562 33.5869 19.8253C33.6455 19.8253 33.6748 19.8553 33.6748 19.9156C33.1182 19.9156 32.5615 19.9156 32.0049 19.9156C32.2978 19.8553 32.5908 19.7952 32.8838 19.7349Z" fill="#CAAF81"/>
<path fill-rule="evenodd" clip-rule="evenodd" d="M31.7412 19.9155C31.8291 19.9155 31.917 19.9155 32.0049 19.9155C32.5615 19.9155 33.1182 19.9155 33.6748 19.9155C34.0911 20.2668 34.5598 20.5227 35.0811 20.6832C36.2543 20.7158 37.4262 20.7759 38.5967 20.8639C38.9912 20.9276 39.3721 21.033 39.7393 21.18C39.6268 21.4159 39.4804 21.6266 39.2998 21.8122C37.6514 21.4197 35.9815 21.2842 34.29 21.4058C33.2707 21.5096 32.3039 21.7956 31.3896 22.2639C30.3416 21.6238 29.2284 21.1422 28.0498 20.8187C28.6718 20.6059 29.3164 20.4404 29.9834 20.322C30.9484 20.2132 31.9152 20.1229 32.8838 20.051C32.4866 20.0352 32.1057 19.99 31.7412 19.9155Z" fill="#FEB12F"/>
<path fill-rule="evenodd" clip-rule="evenodd" d="M31.7412 19.9155C32.1057 19.99 32.4866 20.0352 32.8838 20.051C31.9152 20.1229 30.9484 20.2132 29.9834 20.322C29.3164 20.4404 28.6718 20.6059 28.0498 20.8187C27.9077 20.7701 27.7612 20.7401 27.6104 20.7284C28.9265 20.2009 30.3035 19.93 31.7412 19.9155Z" fill="#C99033"/>
<path fill-rule="evenodd" clip-rule="evenodd" d="M21.9854 20.2769C21.69 20.9342 21.5729 21.6266 21.6338 22.3542C20.0959 22.5948 18.8215 23.3174 17.8105 24.5219C17.6249 24.8134 17.4638 25.1144 17.3271 25.4251C17.1755 25.6457 17.0436 25.8865 16.9316 26.1477C16.4315 27.6402 16.1825 29.1756 16.1846 30.754C16.2482 33.6806 16.5998 36.5709 17.2393 39.4247C17.2444 39.6576 17.1857 39.8683 17.0635 40.057C16.7305 40.3995 16.3789 40.4146 16.0088 40.1021C15.5039 39.5249 15.2109 38.8475 15.1299 38.0699C15.1841 38.0599 15.2281 38.0298 15.2617 37.9796C15.3203 37.3173 15.3203 36.6549 15.2617 35.9926C15.1087 34.7849 14.9329 33.5806 14.7344 32.3798C14.2747 28.6753 15.0804 25.3034 17.1514 22.2639C17.3082 22.2284 17.4546 22.1682 17.5908 22.0833C19.0154 21.3942 20.4801 20.792 21.9854 20.2769Z" fill="#FE3818"/>
<path fill-rule="evenodd" clip-rule="evenodd" d="M27.6104 20.7285C27.7612 20.7402 27.9077 20.7702 28.0498 20.8188C29.2284 21.1423 30.3416 21.6239 31.3896 22.264C32.3039 21.7957 33.2707 21.5097 34.29 21.4059C35.9815 21.2843 37.6514 21.4198 39.2998 21.8124C39.6027 21.8475 39.8956 21.9227 40.1787 22.0382C39.8031 22.0119 39.4222 21.9969 39.0361 21.993C37.6 21.8217 36.1644 21.8969 34.7295 22.2188C34.3915 22.3169 34.0984 22.4824 33.8506 22.7156C33.792 22.7156 33.7627 22.7456 33.7627 22.8059C33.49 22.9796 33.2263 23.1753 32.9717 23.393C33.346 23.6894 33.6976 24.0055 34.0264 24.3413C32.8185 24.3007 31.6173 24.3609 30.4229 24.522C29.8807 24.2057 29.2948 23.9949 28.665 23.8897C27.6722 23.3896 26.6761 22.9079 25.6768 22.4446C26.1625 21.6737 26.8071 21.1017 27.6104 20.7285Z" fill="#FE3A19"/>
<path fill-rule="evenodd" clip-rule="evenodd" d="M22.249 19.3736C20.3088 19.602 18.7561 20.5052 17.5908 22.0832C17.4546 22.1682 17.3082 22.2284 17.1514 22.2639C18.3936 20.5077 20.0635 19.4539 22.1611 19.1027C22.3635 19.1366 22.3929 19.2269 22.249 19.3736Z" fill="#CA9130"/>
<path fill-rule="evenodd" clip-rule="evenodd" d="M24.5342 22.0833C24.4628 22.2182 24.3457 22.2784 24.1826 22.2639C23.9472 22.2246 23.7128 22.1794 23.4795 22.1285C23.3382 22.0337 23.2797 21.8982 23.3037 21.722C23.4839 21.6804 23.6597 21.6201 23.8311 21.5414C24.0422 21.759 24.2766 21.9396 24.5342 22.0833Z" fill="#CC8F2E"/>
<path fill-rule="evenodd" clip-rule="evenodd" d="M39.0361 21.993C38.2166 22.3847 37.367 22.6255 36.4873 22.7155C35.6084 22.7155 34.7295 22.7155 33.8506 22.7155C34.0984 22.4824 34.3915 22.3169 34.7295 22.2188C36.1644 21.8969 37.6 21.8216 39.0361 21.993Z" fill="#DCA54B"/>
<path fill-rule="evenodd" clip-rule="evenodd" d="M21.6338 22.3542C21.8397 22.8226 22.1619 23.1989 22.6006 23.4832C23.5209 23.9529 24.4877 24.269 25.501 24.4316C25.5218 24.5482 25.4925 24.6385 25.4131 24.7026C24.5697 24.5291 23.7493 24.2732 22.9521 23.9349C22.434 23.7035 22.0239 23.3423 21.7217 22.851C19.8706 23.0338 18.4058 23.8919 17.3271 25.4251C17.4638 25.1144 17.6249 24.8134 17.8105 24.5219C18.8215 23.3174 20.0959 22.5949 21.6338 22.3542Z" fill="#CD902A"/>
<path fill-rule="evenodd" clip-rule="evenodd" d="M28.665 23.8896C29.2948 23.9949 29.8807 24.2056 30.4229 24.5219C30.1181 24.6838 29.7959 24.7591 29.4561 24.7477C29.2338 24.414 28.9701 24.1281 28.665 23.8896Z" fill="#CC8F2C"/>
<path fill-rule="evenodd" clip-rule="evenodd" d="M33.7627 22.8058C34.6171 23.3295 35.3642 23.9919 36.0039 24.7928C36.3419 25.2511 36.3859 25.7329 36.1357 26.238C36.0956 26.31 36.037 26.3401 35.96 26.3283C35.401 25.6936 34.815 25.0914 34.2021 24.5219C34.3041 24.3681 34.2455 24.3079 34.0264 24.3412C33.6976 24.0054 33.346 23.6893 32.9717 23.3929C33.2263 23.1752 33.49 22.9795 33.7627 22.8058Z" fill="#EF9432"/>
<path fill-rule="evenodd" clip-rule="evenodd" d="M34.2021 24.522C34.815 25.0915 35.401 25.6937 35.96 26.3284C37.0847 27.6489 38.0075 29.0941 38.7285 30.6637C38.459 30.4022 38.21 30.1312 37.9814 29.8509C36.9454 28.7856 35.8322 27.8222 34.6416 26.9606C33.6607 26.2305 32.6352 25.5682 31.5654 24.9736C32.4087 24.6766 33.2876 24.526 34.2021 24.522Z" fill="#FD3718"/>
<path fill-rule="evenodd" clip-rule="evenodd" d="M27.9619 25.4252C27.8652 25.525 27.8066 25.6454 27.7861 25.7865C27.6084 25.9699 27.4619 26.1807 27.3467 26.4187C26.5223 27.435 26.3318 28.5791 26.7754 29.8509C26.9404 30.4507 27.1894 31.0077 27.5225 31.5218C27.3215 31.5243 27.1457 31.4491 26.9951 31.296C26.4065 30.8101 26.0403 30.1779 25.8965 29.3993C25.8328 28.5237 25.8474 27.6507 25.9404 26.78C26.1653 26.1124 26.5168 25.5253 26.9951 25.0187C27.3773 25.0044 27.6995 25.1399 27.9619 25.4252Z" fill="#FC3618"/>
<path fill-rule="evenodd" clip-rule="evenodd" d="M31.5654 24.9735C32.6352 25.5681 33.6607 26.2304 34.6416 26.9606C34.4072 27.0208 34.1729 27.081 33.9385 27.1412C33.7041 27.1412 33.4698 27.1412 33.2354 27.1412C32.9818 27.1688 32.7474 27.1388 32.5322 27.0509C32.9726 27.0659 33.4121 27.0508 33.8506 27.0057C33.5845 26.8392 33.3208 26.6735 33.0596 26.509C32.4454 26.1028 31.8008 25.7415 31.126 25.4251C30.7807 25.5993 30.4584 25.8101 30.1592 26.0574C30.0691 26.0215 30.0544 25.9613 30.1152 25.8767C30.5439 25.481 31.0273 25.18 31.5654 24.9735Z" fill="#CC8F2F"/>
<path fill-rule="evenodd" clip-rule="evenodd" d="M24.6221 27.6831C24.6221 27.8938 24.6221 28.1046 24.6221 28.3153C24.2289 28.0981 23.8481 27.8573 23.4795 27.5928C22.7624 26.8997 21.9567 26.3276 21.0625 25.8767C20.9953 25.883 20.9513 25.9131 20.9307 25.967C20.5546 26.0095 20.2616 26.1902 20.0518 26.5089C20.1476 26.1463 20.3234 25.8302 20.5791 25.5606C20.8094 25.3554 21.073 25.2952 21.3701 25.3799C21.7902 25.5204 22.1711 25.7312 22.5127 26.0122C23.1799 26.6232 23.883 27.1801 24.6221 27.6831Z" fill="#FEC360"/>
<path fill-rule="evenodd" clip-rule="evenodd" d="M33.0596 26.509C32.466 26.5485 31.924 26.3979 31.4336 26.0574C31.4409 26.294 31.4556 26.5348 31.4775 26.78C31.3344 26.6784 31.2025 26.5579 31.082 26.4187C31.0674 26.4488 31.0528 26.4789 31.0381 26.509C31.1782 26.8243 31.2368 27.1555 31.2139 27.5025C31.1793 27.6637 31.1208 27.8141 31.0381 27.9541C30.7894 28.1779 30.4965 28.2683 30.1592 28.2251C30.273 27.5019 30.273 26.7793 30.1592 26.0574C30.4584 25.8101 30.7807 25.5994 31.126 25.4252C31.8008 25.7416 32.4454 26.1028 33.0596 26.509Z" fill="#FDB336"/>
<path opacity="0.902" fill-rule="evenodd" clip-rule="evenodd" d="M14.1631 22.1736C13.6172 23.7553 13.2363 25.381 13.0205 27.0509C12.882 27.9183 12.7942 28.7914 12.7568 29.6702C12.6511 30.3304 12.5632 30.9927 12.4932 31.6572C12.4638 29.1142 12.7714 26.6154 13.416 24.1606C13.6072 23.4644 13.8562 22.8021 14.1631 22.1736Z" fill="#ED9C49"/>
<path fill-rule="evenodd" clip-rule="evenodd" d="M33.8506 22.7155C34.7295 22.7155 35.6084 22.7155 36.4873 22.7155C38.8666 24.9745 41.181 27.2927 43.4307 29.6701C43.2399 31.4779 42.8884 33.2542 42.376 34.999C41.3012 36.2839 40.0414 37.3377 38.5967 38.1602C37.9749 37.3854 37.3012 36.6478 36.5752 35.9474C36.9714 35.9688 37.3522 35.8784 37.7178 35.6764C35.4473 33.4033 33.1767 31.1303 30.9062 28.8572C30.9383 28.5597 30.9823 28.2587 31.0381 27.954C31.1208 27.814 31.1793 27.6636 31.2139 27.5024C31.9566 27.7705 32.7183 27.8307 33.499 27.6831C33.3638 27.5256 33.276 27.345 33.2354 27.1411C33.4698 27.1411 33.7041 27.1411 33.9385 27.1411C35.53 28.2483 37.0096 29.5128 38.377 30.9346C38.2718 30.568 38.14 30.2067 37.9814 29.8507C38.21 30.1311 38.459 30.4021 38.7285 30.6636C38.0075 29.094 37.0847 27.6488 35.96 26.3283C36.037 26.3401 36.0956 26.31 36.1357 26.2379C36.3859 25.7329 36.3419 25.2511 36.0039 24.7928C35.3642 23.9919 34.6171 23.3295 33.7627 22.8058C33.7627 22.7455 33.792 22.7155 33.8506 22.7155Z" fill="#BE2F2F"/>
<path fill-rule="evenodd" clip-rule="evenodd" d="M27.9619 25.4252C28.5322 25.7828 28.9131 26.2946 29.1045 26.9606C29.1375 27.2683 29.0496 27.3135 28.8408 27.0961C28.5039 26.7499 28.167 26.4036 27.8301 26.0574C27.7876 25.9718 27.773 25.8815 27.7861 25.7865C27.8066 25.6454 27.8652 25.525 27.9619 25.4252Z" fill="#F0A92E"/>
<path fill-rule="evenodd" clip-rule="evenodd" d="M27.7861 25.7864C27.773 25.8814 27.7876 25.9717 27.8301 26.0573C28.167 26.4035 28.5039 26.7498 28.8408 27.096C29.0496 27.3134 29.1375 27.2683 29.1045 26.9605C29.2572 27.3256 29.345 27.7171 29.3682 28.1347C28.647 27.6953 28.0025 27.1534 27.4346 26.5089C27.4346 26.4487 27.4053 26.4186 27.3467 26.4186C27.4619 26.1806 27.6084 25.9698 27.7861 25.7864Z" fill="#F7BD5E"/>
<path fill-rule="evenodd" clip-rule="evenodd" d="M33.0596 26.509C33.3208 26.6735 33.5845 26.8392 33.8506 27.0057C33.4121 27.0508 32.9726 27.0659 32.5322 27.0509C32.1574 27.0449 31.8058 26.9546 31.4775 26.7799C31.4556 26.5348 31.4409 26.2939 31.4336 26.0574C31.924 26.3979 32.466 26.5484 33.0596 26.509Z" fill="#FEC360"/>
<path fill-rule="evenodd" clip-rule="evenodd" d="M27.4346 26.5089C28.0025 27.1533 28.647 27.6953 29.3682 28.1347C29.3951 28.3952 29.3658 28.6361 29.2803 28.8572C28.4471 28.4381 27.7586 27.8361 27.2148 27.0508C27.2124 26.8443 27.2856 26.6636 27.4346 26.5089Z" fill="#C41A18"/>
<path fill-rule="evenodd" clip-rule="evenodd" d="M31.4775 26.7799C31.8058 26.9545 32.1574 27.0449 32.5322 27.0508C32.7474 27.1387 32.9818 27.1688 33.2354 27.1411C33.276 27.345 33.3638 27.5256 33.499 27.6831C32.7183 27.8307 31.9566 27.7705 31.2139 27.5024C31.2368 27.1554 31.1782 26.8242 31.0381 26.5089C31.0528 26.4788 31.0674 26.4487 31.082 26.4186C31.2025 26.5578 31.3344 26.6782 31.4775 26.7799Z" fill="#C61C18"/>
<path fill-rule="evenodd" clip-rule="evenodd" d="M27.3467 26.4186C27.4053 26.4186 27.4346 26.4487 27.4346 26.5089C27.2856 26.6636 27.2124 26.8443 27.2148 27.0508C27.7586 27.8361 28.4471 28.4381 29.2803 28.8572C29.2442 29.4706 29.1418 30.0728 28.9727 30.6636C28.7469 31.2699 28.5417 31.8721 28.3574 32.47C29.2218 31.1757 29.8224 29.7607 30.1592 28.225C30.4965 28.2682 30.7894 28.1778 31.0381 27.954C30.9823 28.2587 30.9383 28.5597 30.9063 28.8572C33.1767 31.1303 35.4473 33.4033 37.7178 35.6764C37.3522 35.8784 36.9714 35.9688 36.5752 35.9474C37.3012 36.6478 37.9749 37.3854 38.5967 38.1602C37.2045 38.888 35.7397 39.3997 34.2022 39.6956C30.5439 40.3444 27.4823 39.2606 25.0176 36.4441C23.3032 34.0658 22.8491 31.4465 23.6553 28.5863C23.9417 28.8085 24.264 28.9591 24.6221 29.0379C24.6221 28.9475 24.6221 28.8572 24.6221 28.7669C24.8426 29.9413 25.326 30.995 26.0723 31.9281C26.0285 31.4463 25.9553 30.9647 25.8525 30.483C26.0818 31.0362 26.4334 31.5029 26.9072 31.8829C27.0439 31.9994 27.1903 32.0596 27.3467 32.0636C27.1912 31.8197 27.074 31.5638 26.9951 31.2959C27.1457 31.449 27.3215 31.5242 27.5225 31.5217C27.1894 31.0076 26.9404 30.4506 26.7754 29.8507C26.3318 28.5789 26.5223 27.4349 27.3467 26.4186Z" fill="#B72727"/>
<path fill-rule="evenodd" clip-rule="evenodd" d="M34.6416 26.9606C35.8322 27.8221 36.9454 28.7856 37.9814 29.8508C38.14 30.2068 38.2718 30.568 38.377 30.9347C37.0096 29.5128 35.53 28.2484 33.9385 27.1412C34.1729 27.081 34.4072 27.0208 34.6416 26.9606Z" fill="#9A2726"/>
<path opacity="0.991" fill-rule="evenodd" clip-rule="evenodd" d="M42.8154 18.8318C43.174 19.5995 43.511 20.3822 43.8262 21.1801C44.0766 20.5406 44.2524 19.8783 44.3535 19.1931C44.4121 19.3135 44.4707 19.434 44.5293 19.5543C44.5927 21.3657 44.6513 23.2022 44.7051 25.0639C45.1372 25.3235 45.5621 25.5945 45.9795 25.8768C46.0394 25.8096 46.0981 25.7495 46.1553 25.6961C45.8862 28.2488 45.1831 30.6574 44.0459 32.9217C44.0187 32.8099 43.9747 32.8099 43.9141 32.9217C43.4808 33.6822 42.9681 34.3746 42.376 34.9991C42.8884 33.2543 43.2399 31.478 43.4307 29.6702C43.5032 29.2956 43.5471 28.9042 43.5625 28.496C43.6211 26.6596 43.6211 24.823 43.5625 22.9865C43.454 21.5709 43.205 20.186 42.8154 18.8318Z" fill="#CD3838"/>
<path fill-rule="evenodd" clip-rule="evenodd" d="M23.4795 27.5928C23.8481 27.8573 24.2289 28.0981 24.6221 28.3153C24.6221 28.4659 24.6221 28.6164 24.6221 28.7669C24.6221 28.8573 24.6221 28.9476 24.6221 29.0379C24.264 28.9591 23.9417 28.8086 23.6553 28.5863C23.4824 28.4063 23.3066 28.2256 23.1279 28.0444C23.1854 27.8314 23.3026 27.6808 23.4795 27.5928Z" fill="#C51A16"/>
<path fill-rule="evenodd" clip-rule="evenodd" d="M20.9307 25.967C20.9513 25.9131 20.9953 25.883 21.0625 25.8767C21.9567 26.3277 22.7624 26.8998 23.4795 27.5928C23.3026 27.6809 23.1854 27.8314 23.1279 28.0444C23.3066 28.2257 23.4824 28.4063 23.6553 28.5863C22.8491 31.4466 23.3032 34.0659 25.0176 36.4442C27.4823 39.2606 30.5439 40.3445 34.2021 39.6957C30.353 40.7203 27.0571 39.7568 24.3145 36.8054C22.4076 34.2906 21.9534 31.5208 22.9521 28.496C22.2093 27.7033 21.5354 26.8603 20.9307 25.967Z" fill="#C5312E"/>
<path fill-rule="evenodd" clip-rule="evenodd" d="M25.9404 26.7799C25.8474 27.6506 25.8328 28.5236 25.8965 29.3992C26.0403 30.1778 26.4065 30.8101 26.9951 31.2959C27.074 31.5638 27.1912 31.8198 27.3467 32.0636C27.1903 32.0597 27.0439 31.9994 26.9072 31.883C26.4334 31.5029 26.0818 31.0362 25.8525 30.483C25.6826 29.4376 25.6387 28.3838 25.7207 27.3218C25.7705 27.121 25.8438 26.9404 25.9404 26.7799Z" fill="#B98181"/>
<path opacity="0.99" fill-rule="evenodd" clip-rule="evenodd" d="M12.7568 29.6702C12.6372 33.4203 12.8276 37.1535 13.3281 40.8699C13.5778 41.9692 14.2077 42.737 15.2178 43.173C17.159 43.5064 18.9168 43.0699 20.4912 41.8634C20.5205 41.9236 20.5498 41.9838 20.5791 42.044C19.8229 42.9 18.8854 43.457 17.7666 43.7149C16.512 44.1045 15.3109 43.9841 14.1631 43.3537C13.6853 42.9227 13.3484 42.3958 13.1523 41.7731C12.6264 38.4239 12.4066 35.0519 12.4932 31.6572C12.5632 30.9927 12.6511 30.3304 12.7568 29.6702Z" fill="#FEC45F"/>
<path opacity="0.923" fill-rule="evenodd" clip-rule="evenodd" d="M19.3486 31.2056C19.5967 34.5102 20.0214 37.7919 20.623 41.0505C20.6942 41.3989 20.6796 41.73 20.5791 42.044C20.5498 41.9837 20.5205 41.9236 20.4912 41.8633C20.1836 39.7861 19.876 37.7087 19.5684 35.6313C19.4421 34.3989 19.3395 33.1645 19.2607 31.9281C19.261 31.6703 19.2903 31.4294 19.3486 31.2056Z" fill="#EE9130"/>
<path fill-rule="evenodd" clip-rule="evenodd" d="M13.5479 30.3024C13.7383 32.7724 14.1631 35.2111 14.8223 37.6183C14.8835 37.8065 14.9861 37.9571 15.1299 38.0699C15.2109 38.8475 15.5039 39.5249 16.0088 40.1021C16.3789 40.4146 16.7305 40.3995 17.0635 40.0569C17.029 40.2086 16.9851 40.3592 16.9316 40.5085C16.4738 40.8828 16.0344 40.8528 15.6133 40.4182C14.2177 37.2039 13.5293 33.832 13.5479 30.3024Z" fill="#C98D29"/>
<path fill-rule="evenodd" clip-rule="evenodd" d="M22.9521 28.496C21.9534 31.5208 22.4076 34.2905 24.3145 36.8054C27.0571 39.7568 30.353 40.7203 34.2021 39.6957C35.7397 39.3998 37.2045 38.888 38.5967 38.1602C40.0414 37.3377 41.3012 36.2839 42.376 34.999C42.9681 34.3745 43.4808 33.6822 43.9141 32.9217C43.9747 32.8098 44.0187 32.8098 44.0459 32.9217C41.6844 37.4967 37.993 40.1612 32.9717 40.915C29.3418 41.5883 26.2802 40.5496 23.7871 37.7989C21.8476 35.1762 21.4374 32.3162 22.5566 29.2185C22.6686 28.9574 22.8005 28.7165 22.9521 28.496Z" fill="#D26254"/>
<path d="M3.85781 64.5625C3.81615 64.5208 3.79531 64.4375 3.79531 64.3125C3.79531 64.0938 3.81094 63.9844 3.84219 63.9844C3.92552 63.9844 4.04531 63.9635 4.20156 63.9219C4.35781 63.8802 4.50365 63.8281 4.63906 63.7656C4.77448 63.7031 4.8526 63.6458 4.87344 63.5938C4.9151 63.4479 4.94115 63.2708 4.95156 63.0625C4.9724 62.8542 4.98281 62.6146 4.98281 62.3438V56.3438C4.98281 55.6771 4.94115 55.2708 4.85781 55.125C4.82656 55.0625 4.74323 55.0052 4.60781 54.9531C4.48281 54.8906 4.3526 54.8385 4.21719 54.7969C4.08177 54.7552 3.9724 54.7344 3.88906 54.7344C3.8474 54.7344 3.82656 54.6458 3.82656 54.4688C3.82656 54.2812 3.83698 54.1771 3.85781 54.1562L6.12344 54.25C6.2276 54.2604 6.46198 54.2552 6.82656 54.2344C7.19115 54.2135 7.68594 54.1875 8.31094 54.1562C8.34219 54.25 8.35781 54.3438 8.35781 54.4375C8.35781 54.6354 8.33698 54.7344 8.29531 54.7344C8.23281 54.7344 8.12344 54.7552 7.96719 54.7969C7.81094 54.8385 7.6599 54.8906 7.51406 54.9531C7.37865 55.0052 7.30052 55.0573 7.27969 55.1094C7.20677 55.3698 7.17031 55.8125 7.17031 56.4375V58.9062C7.17031 58.9896 7.20156 59.0312 7.26406 59.0312H7.38906C7.45156 59.0312 7.68073 58.8333 8.07656 58.4375C8.52448 57.9792 8.98281 57.4948 9.45156 56.9844C9.93073 56.4635 10.4203 55.9167 10.9203 55.3438C11.0036 55.2292 11.0453 55.1094 11.0453 54.9844C11.0453 54.9115 10.988 54.8594 10.8734 54.8281C10.7693 54.7865 10.6443 54.7552 10.4984 54.7344C10.3526 54.7135 10.2224 54.7031 10.1078 54.7031C10.0661 54.7031 10.0349 54.6302 10.0141 54.4844C9.99323 54.3385 9.99323 54.2292 10.0141 54.1562C11.1703 54.2188 11.8682 54.25 12.1078 54.25C12.2328 54.25 12.9203 54.2188 14.1703 54.1562C14.1911 54.1979 14.1964 54.2969 14.1859 54.4531C14.1859 54.6094 14.1703 54.6927 14.1391 54.7031L14.0453 54.7188C13.9411 54.7188 13.8266 54.7292 13.7016 54.75C13.587 54.7604 13.4776 54.776 13.3734 54.7969C13.238 54.8281 13.0557 54.8958 12.8266 55C12.6078 55.0938 12.4411 55.2083 12.3266 55.3438L9.63906 58.3125C9.51406 58.4479 9.50885 58.599 9.62344 58.7656L13.3266 63.5938C13.4411 63.7292 13.6182 63.8281 13.8578 63.8906C14.1078 63.9531 14.2953 63.9844 14.4203 63.9844C14.462 63.9844 14.4828 64.0833 14.4828 64.2812C14.4828 64.3958 14.462 64.4896 14.4203 64.5625L13.4359 64.5C13.113 64.4792 12.837 64.4635 12.6078 64.4531C12.3786 64.4427 12.1964 64.4375 12.0609 64.4375C11.7797 64.4375 11.4516 64.4479 11.0766 64.4688C10.712 64.4896 10.3005 64.5208 9.84219 64.5625C9.80052 64.5208 9.77969 64.4115 9.77969 64.2344C9.77969 64.0677 9.80052 63.9844 9.84219 63.9844C9.95677 63.9844 10.1078 63.9531 10.2953 63.8906C10.4828 63.8281 10.5766 63.7552 10.5766 63.6719C10.5766 63.3281 9.64948 62.1146 7.79531 60.0312C7.76406 60 7.69115 59.9844 7.57656 59.9844C7.30573 59.9844 7.17031 60.0729 7.17031 60.25V62.2188C7.17031 62.5104 7.18073 62.7708 7.20156 63C7.2224 63.2292 7.25365 63.4271 7.29531 63.5938C7.31615 63.6354 7.38906 63.6875 7.51406 63.75C7.64948 63.8125 7.7901 63.8698 7.93594 63.9219C8.09219 63.9635 8.20156 63.9844 8.26406 63.9844C8.30573 63.9844 8.32656 64.0833 8.32656 64.2812C8.32656 64.3854 8.31615 64.4792 8.29531 64.5625C8.25365 64.5625 8.15469 64.5573 7.99844 64.5469C7.84219 64.5365 7.62865 64.5208 7.35781 64.5C7.08698 64.4792 6.8474 64.4635 6.63906 64.4531C6.43073 64.4427 6.25885 64.4375 6.12344 64.4375C5.93594 64.4375 5.68073 64.4479 5.35781 64.4688C5.0349 64.4896 4.7276 64.5052 4.43594 64.5156C4.15469 64.5365 3.96198 64.5521 3.85781 64.5625ZM15.5491 64.5625C15.5074 64.5208 15.4866 64.4219 15.4866 64.2656C15.4866 64.1094 15.5074 64.0312 15.5491 64.0312C15.6324 64.0312 15.7418 64.0104 15.8772 63.9688C16.0126 63.9271 16.1428 63.875 16.2678 63.8125C16.3928 63.75 16.4605 63.6927 16.4709 63.6406C16.5439 63.349 16.5803 62.9531 16.5803 62.4531V60.1719C16.5803 59.5885 16.4866 59.1979 16.2991 59C16.2157 58.8958 16.1011 58.8229 15.9553 58.7812C15.8199 58.7396 15.7001 58.7135 15.5959 58.7031C15.4918 58.6823 15.4397 58.6615 15.4397 58.6406C15.4397 58.3385 15.4657 58.1875 15.5178 58.1875C15.6116 58.1875 15.7834 58.1667 16.0334 58.125C16.2834 58.0833 16.5595 58.0312 16.8616 57.9688C17.1741 57.9062 17.4657 57.8438 17.7366 57.7812C18.0178 57.7188 18.2314 57.6667 18.3772 57.625L18.5491 57.5781C18.6011 57.5781 18.6532 57.6146 18.7053 57.6875C18.7574 57.75 18.7834 57.8021 18.7834 57.8438C18.7314 58.3021 18.6897 58.6615 18.6584 58.9219C18.6272 59.1823 18.6116 59.3438 18.6116 59.4062V62.2188C18.6116 62.8125 18.6532 63.2865 18.7366 63.6406C18.7574 63.6823 18.8251 63.7344 18.9397 63.7969C19.0647 63.8594 19.1949 63.9167 19.3303 63.9688C19.4657 64.0104 19.5595 64.0312 19.6116 64.0312C19.6428 64.0312 19.6584 64.1094 19.6584 64.2656C19.6689 64.4219 19.6636 64.5208 19.6428 64.5625C19.5595 64.5521 19.3824 64.5365 19.1116 64.5156C18.8511 64.5052 18.5751 64.4896 18.2834 64.4688C17.9918 64.4479 17.7626 64.4375 17.5959 64.4375C17.4293 64.4375 17.2001 64.4479 16.9084 64.4688C16.6168 64.4896 16.3407 64.5052 16.0803 64.5156C15.8199 64.5365 15.6428 64.5521 15.5491 64.5625ZM17.5178 56.0312C17.1949 56.0312 16.9189 55.9219 16.6897 55.7031C16.4709 55.474 16.3616 55.1979 16.3616 54.875C16.3616 54.5521 16.4709 54.2812 16.6897 54.0625C16.9189 53.8333 17.1949 53.7188 17.5178 53.7188C17.8407 53.7188 18.1116 53.8333 18.3303 54.0625C18.5595 54.2812 18.6741 54.5521 18.6741 54.875C18.6741 55.1979 18.5595 55.474 18.3303 55.7031C18.1116 55.9219 17.8407 56.0312 17.5178 56.0312ZM24.0997 64.5938C23.5372 64.5938 23.0059 64.4531 22.5059 64.1719C22.0164 63.8906 21.6153 63.4948 21.3028 62.9844C21.0007 62.474 20.8497 61.875 20.8497 61.1875C20.8497 60.4896 21.0111 59.8646 21.3341 59.3125C21.6674 58.7604 22.1153 58.3229 22.6778 58C23.2507 57.6771 23.8914 57.5156 24.5997 57.5156C25.0372 57.5156 25.4018 57.5625 25.6934 57.6562C25.7247 57.6562 25.7403 57.5833 25.7403 57.4375V56.2031C25.7403 55.7656 25.7091 55.3906 25.6466 55.0781C25.6049 54.9115 25.3341 54.8281 24.8341 54.8281H24.6934C24.6309 54.8281 24.5997 54.724 24.5997 54.5156C24.5997 54.3385 24.6309 54.25 24.6934 54.25C25.2976 54.1979 25.8653 54.1094 26.3966 53.9844C26.9382 53.8594 27.3236 53.7604 27.5528 53.6875L27.7091 53.6406H27.7403C27.782 53.6406 27.8236 53.6719 27.8653 53.7344C27.907 53.7969 27.933 53.8542 27.9434 53.9062C27.8289 54.3958 27.7716 54.9219 27.7716 55.4844V62.2031C27.7716 62.4323 27.782 62.6823 27.8028 62.9531C27.8236 63.2135 27.8705 63.3802 27.9434 63.4531C28.0268 63.5156 28.1205 63.5521 28.2247 63.5625C28.3289 63.5625 28.4643 63.5729 28.6309 63.5938L28.7872 63.6094C28.8184 63.6198 28.8341 63.6823 28.8341 63.7969C28.8341 64.0573 28.8028 64.1875 28.7403 64.1875C28.4799 64.1979 28.1778 64.2292 27.8341 64.2812C27.5007 64.3333 27.1726 64.3854 26.8497 64.4375C26.5268 64.4896 26.2664 64.5312 26.0684 64.5625L25.8341 64.5938C25.7716 64.6042 25.7403 64.5156 25.7403 64.3281V64C25.7403 63.9167 25.7195 63.8958 25.6778 63.9375C25.2403 64.375 24.7143 64.5938 24.0997 64.5938ZM24.5059 63.6406C24.8601 63.6406 25.1518 63.5417 25.3809 63.3438C25.6205 63.1354 25.7403 62.8854 25.7403 62.5938V59.75C25.7403 59.625 25.7299 59.5052 25.7091 59.3906C25.6882 59.276 25.6414 59.1302 25.5684 58.9531C25.4955 58.776 25.3653 58.6354 25.1778 58.5312C25.0007 58.4167 24.7768 58.3594 24.5059 58.3594C24.0164 58.3594 23.657 58.5573 23.4278 58.9531C23.2091 59.3385 23.0997 59.9583 23.0997 60.8125C23.0997 62.6979 23.5684 63.6406 24.5059 63.6406ZM30.0097 64.5625C29.968 64.5208 29.9472 64.4115 29.9472 64.2344C29.9472 64.0677 29.968 63.9844 30.0097 63.9844C30.093 63.9844 30.2076 63.9635 30.3534 63.9219C30.5097 63.8698 30.6555 63.8125 30.7909 63.75C30.9368 63.6875 31.0149 63.6354 31.0253 63.5938C31.0982 63.3021 31.1347 62.9062 31.1347 62.4062V60.2656C31.1347 59.6823 31.0409 59.2917 30.8534 59.0938C30.7701 58.9896 30.6555 58.9167 30.5097 58.875C30.3743 58.8333 30.2545 58.8073 30.1503 58.7969C30.0461 58.776 29.9941 58.7552 29.9941 58.7344C29.9941 58.3698 30.0201 58.1875 30.0722 58.1875C30.343 58.1875 30.7284 58.1302 31.2284 58.0156C31.7284 57.8906 32.2961 57.7604 32.9316 57.625L33.0097 57.6094C33.0201 57.599 33.0409 57.5938 33.0722 57.5938L33.1034 57.5781C33.1555 57.5781 33.2076 57.6146 33.2597 57.6875C33.3222 57.75 33.3482 57.8021 33.3378 57.8438L33.2753 58.3281C33.2753 58.3802 33.2805 58.4115 33.2909 58.4219C33.3118 58.4219 33.3482 58.3958 33.4003 58.3438C33.9732 57.8021 34.6972 57.5312 35.5722 57.5312C36.1764 57.5312 36.6659 57.7865 37.0409 58.2969C37.4264 58.8073 37.6191 59.5833 37.6191 60.625V62.1719C37.6191 62.8594 37.6555 63.3333 37.7284 63.5938C37.7493 63.6354 37.8274 63.6875 37.9628 63.75C38.0982 63.8125 38.2389 63.8698 38.3847 63.9219C38.5409 63.9635 38.6503 63.9844 38.7128 63.9844C38.7336 63.9844 38.7493 64.026 38.7597 64.1094C38.7701 64.1927 38.7753 64.2812 38.7753 64.375C38.7753 64.4688 38.7649 64.5312 38.7441 64.5625C38.6816 64.5625 38.5618 64.5521 38.3847 64.5312C38.2076 64.5208 37.9993 64.5104 37.7597 64.5C37.5305 64.4792 37.3118 64.4635 37.1034 64.4531C36.8951 64.4427 36.7284 64.4375 36.6034 64.4375C36.4368 64.4375 36.2024 64.4479 35.9003 64.4688C35.6086 64.4896 35.3274 64.5052 35.0566 64.5156C34.7857 64.5365 34.6086 64.5521 34.5253 64.5625C34.4836 64.5208 34.4628 64.4115 34.4628 64.2344C34.4628 64.0677 34.4836 63.9844 34.5253 63.9844C34.6086 63.9844 34.718 63.9635 34.8534 63.9219C34.9993 63.8698 35.1347 63.8125 35.2597 63.75C35.3951 63.6875 35.468 63.6354 35.4784 63.5938C35.5514 63.3021 35.5878 62.9062 35.5878 62.4062V61C35.5878 60.2292 35.4784 59.6823 35.2597 59.3594C35.0514 59.026 34.7128 58.8594 34.2441 58.8594C33.9211 58.8594 33.6607 58.9219 33.4628 59.0469C33.2649 59.1615 33.1659 59.3281 33.1659 59.5469V62.1719C33.1659 62.8594 33.2024 63.3333 33.2753 63.5938C33.2961 63.6354 33.3691 63.6875 33.4941 63.75C33.6191 63.8125 33.7545 63.8698 33.9003 63.9219C34.0461 63.9635 34.1451 63.9844 34.1972 63.9844C34.218 63.9844 34.2336 64.026 34.2441 64.1094C34.2545 64.1927 34.2597 64.2812 34.2597 64.375C34.2597 64.4688 34.2493 64.5312 34.2284 64.5625C34.1451 64.5521 33.968 64.5365 33.6972 64.5156C33.4264 64.5052 33.1399 64.4896 32.8378 64.4688C32.5461 64.4479 32.317 64.4375 32.1503 64.4375C32.0253 64.4375 31.8534 64.4427 31.6347 64.4531C31.4264 64.4635 31.2076 64.4792 30.9784 64.5C30.7493 64.5104 30.5461 64.5208 30.3691 64.5312C30.192 64.5521 30.0722 64.5625 30.0097 64.5625ZM43.2478 64.6094C42.6124 64.6094 42.0239 64.4479 41.4822 64.125C40.9509 63.8021 40.5239 63.3698 40.2009 62.8281C39.8884 62.2865 39.7322 61.6927 39.7322 61.0469C39.7322 60.3802 39.8728 59.7812 40.1541 59.25C40.4457 58.7188 40.8468 58.2969 41.3572 57.9844C41.8676 57.6719 42.4561 57.5156 43.1228 57.5156C43.7791 57.5156 44.3364 57.6719 44.7947 57.9844C45.2634 58.2865 45.6176 58.6667 45.8572 59.125C46.1072 59.5729 46.2322 60.026 46.2322 60.4844C46.2322 60.724 46.1801 60.8802 46.0759 60.9531C45.9822 61.026 45.7895 61.0625 45.4978 61.0625H41.9666C41.9041 61.0625 41.8728 61.099 41.8728 61.1719C41.8728 61.5469 41.9405 61.901 42.0759 62.2344C42.2218 62.5677 42.4301 62.8385 42.7009 63.0469C42.9822 63.2552 43.3207 63.3594 43.7166 63.3594C44.0707 63.3594 44.3989 63.3073 44.7009 63.2031C44.9093 63.1406 45.0707 63.0833 45.1853 63.0312C45.2999 62.9792 45.4041 62.9219 45.4978 62.8594C45.602 62.7865 45.7218 62.6979 45.8572 62.5938C45.9509 62.6354 45.9978 62.7344 45.9978 62.8906C45.9978 63.026 45.977 63.1302 45.9353 63.2031C45.8728 63.3698 45.7061 63.5625 45.4353 63.7812C45.1749 64 44.852 64.1927 44.4666 64.3594C44.0916 64.526 43.6853 64.6094 43.2478 64.6094ZM41.9822 60.2031H43.9666C44.1124 60.2031 44.1853 60.1042 44.1853 59.9062C44.1853 59.5104 44.0759 59.1562 43.8572 58.8438C43.6489 58.5312 43.378 58.375 43.0447 58.375C42.7426 58.375 42.503 58.4844 42.3259 58.7031C42.1593 58.9115 42.0395 59.1458 41.9666 59.4062C41.9041 59.6667 41.8728 59.8802 41.8728 60.0469C41.8728 60.151 41.9093 60.2031 41.9822 60.2031ZM48.2984 67.9062C47.9859 67.9062 47.7307 67.8229 47.5328 67.6562C47.3453 67.4896 47.2516 67.2969 47.2516 67.0781C47.2516 66.7656 47.3714 66.5208 47.6109 66.3438C48.9443 66.3438 49.8036 65.9375 50.1891 65.125L50.6734 64.0938L48.2672 58.75C48.163 58.5208 48.0016 58.3646 47.7828 58.2812C47.5745 58.1979 47.3922 58.1562 47.2359 58.1562C47.1943 58.1562 47.1734 58.0781 47.1734 57.9219C47.1734 57.7135 47.1839 57.599 47.2047 57.5781C47.2464 57.5781 47.3453 57.5833 47.5016 57.5938C47.6682 57.6042 47.8974 57.6198 48.1891 57.6406C48.4807 57.6615 48.7255 57.6771 48.9234 57.6875C49.1318 57.6979 49.2984 57.7031 49.4234 57.7031C49.5797 57.7031 49.8036 57.6927 50.0953 57.6719C50.387 57.651 50.6682 57.6302 50.9391 57.6094C51.2203 57.5885 51.3974 57.5781 51.4703 57.5781C51.5016 57.6719 51.5172 57.7812 51.5172 57.9062C51.5172 58.0729 51.4964 58.1562 51.4547 58.1562C51.3714 58.1562 51.2516 58.1771 51.0953 58.2188C50.9391 58.2604 50.7984 58.3125 50.6734 58.375C50.5484 58.4271 50.4859 58.4896 50.4859 58.5625C50.5068 58.7188 50.6161 59.0573 50.8141 59.5781C51.0224 60.099 51.3245 60.8229 51.7203 61.75C52.0745 60.9792 52.3453 60.3854 52.5328 59.9688C52.7307 59.5417 52.8453 59.2917 52.8766 59.2188C52.9391 59.0729 52.9703 58.9167 52.9703 58.75C52.9703 58.6146 52.8714 58.4844 52.6734 58.3594C52.4755 58.224 52.2047 58.1562 51.8609 58.1562C51.8193 58.1562 51.7984 58.0625 51.7984 57.875C51.7984 57.8021 51.7984 57.7448 51.7984 57.7031C51.8089 57.651 51.8193 57.6094 51.8297 57.5781C51.913 57.5781 52.0849 57.5885 52.3453 57.6094C52.6161 57.6302 52.8974 57.651 53.1891 57.6719C53.4807 57.6927 53.7099 57.7031 53.8766 57.7031C53.9911 57.7031 54.1214 57.6979 54.2672 57.6875C54.413 57.6667 54.5745 57.651 54.7516 57.6406L55.5484 57.5781C55.5901 57.651 55.6109 57.7396 55.6109 57.8438C55.6109 58.0521 55.5901 58.1562 55.5484 58.1562C55.4443 58.1562 55.2984 58.1823 55.1109 58.2344C54.9339 58.276 54.7568 58.3438 54.5797 58.4375C54.413 58.5208 54.2984 58.6354 54.2359 58.7812L51.3297 65.0781C50.4547 66.9635 49.4443 67.9062 48.2984 67.9062Z" fill="#2D0C80" fill-opacity="0.8"/>
</svg>
