<svg width="49" height="83" viewBox="0 0 49 83" fill="none" xmlns="http://www.w3.org/2000/svg">
<path d="M5.0574 67.9475C5.01574 67.9058 4.9949 67.8173 4.9949 67.6819C4.9949 67.4736 5.00532 67.3694 5.02615 67.3694C5.10949 67.3694 5.22928 67.3538 5.38553 67.3225C5.5522 67.2808 5.70324 67.2288 5.83865 67.1663C5.97407 67.1038 6.0522 67.0465 6.07303 66.9944C6.14595 66.734 6.1824 66.3121 6.1824 65.7288V59.76C6.1824 59.1038 6.14595 58.6975 6.07303 58.5413C6.04178 58.4579 5.95845 58.385 5.82303 58.3225C5.69803 58.26 5.56261 58.2131 5.41678 58.1819C5.28136 58.1402 5.17199 58.1194 5.08865 58.1194C5.04699 58.1194 5.02615 58.0152 5.02615 57.8069C5.02615 57.6506 5.03657 57.5621 5.0574 57.5413L7.22928 57.635C7.3647 57.6454 7.6199 57.6402 7.9949 57.6194C8.38032 57.5986 8.88553 57.5725 9.51053 57.5413C9.54178 57.5829 9.5574 57.6923 9.5574 57.8694C9.5574 58.0361 9.53657 58.1194 9.4949 58.1194C9.4324 58.1194 9.32303 58.1402 9.16678 58.1819C9.02095 58.2236 8.87511 58.2756 8.72928 58.3381C8.59386 58.3902 8.51574 58.4423 8.4949 58.4944C8.41157 58.7236 8.3699 59.1663 8.3699 59.8225V62.0413L8.40115 62.0881L10.2762 62.1194C10.422 62.1194 10.6459 62.1194 10.948 62.1194C11.2501 62.109 11.6355 62.0986 12.1043 62.0881C12.1251 62.0673 12.1355 62.0465 12.1355 62.0256V59.76C12.1355 59.1975 12.0991 58.7861 12.0262 58.5256C12.0053 58.4631 11.9272 58.4006 11.7918 58.3381C11.6668 58.2756 11.5314 58.2236 11.3855 58.1819C11.2397 58.1402 11.1251 58.1194 11.0418 58.1194C11.0209 58.1194 11.0001 58.0777 10.9793 57.9944C10.9689 57.9111 10.9689 57.8225 10.9793 57.7288C10.9897 57.6246 11.0053 57.5621 11.0262 57.5413L13.3543 57.635C13.5105 57.635 14.2137 57.6038 15.4637 57.5413C15.4949 57.635 15.5105 57.7288 15.5105 57.8225C15.5105 58.0204 15.4845 58.1194 15.4324 58.1194C15.3699 58.1194 15.2605 58.1402 15.1043 58.1819C14.9584 58.2236 14.8178 58.2756 14.6824 58.3381C14.547 58.3902 14.4689 58.4423 14.448 58.4944C14.4064 58.6506 14.3751 58.8381 14.3543 59.0569C14.3334 59.2756 14.323 59.5308 14.323 59.8225V65.6663C14.323 65.9475 14.3334 66.1975 14.3543 66.4163C14.3751 66.635 14.4064 66.8277 14.448 66.9944C14.4689 67.0361 14.5418 67.0881 14.6668 67.1506C14.8022 67.2027 14.9428 67.2496 15.0887 67.2913C15.2449 67.3329 15.3543 67.3538 15.4168 67.3538C15.4584 67.3538 15.4793 67.4631 15.4793 67.6819C15.4793 67.7652 15.4637 67.8538 15.4324 67.9475C15.3907 67.9475 15.2918 67.9423 15.1355 67.9319C14.9793 67.9215 14.7709 67.9058 14.5105 67.885C14.2501 67.8642 14.0209 67.8486 13.823 67.8381C13.6251 67.8277 13.4584 67.8225 13.323 67.8225C13.1876 67.8225 13.0001 67.8277 12.7605 67.8381C12.5314 67.8486 12.2918 67.8642 12.0418 67.885C11.8022 67.8954 11.5834 67.9058 11.3855 67.9163C11.1876 67.9371 11.0574 67.9475 10.9949 67.9475C10.9741 67.9163 10.9584 67.8538 10.948 67.76C10.9376 67.6663 10.9376 67.5777 10.948 67.4944C10.9689 67.4111 10.9897 67.3694 11.0105 67.3694C11.0939 67.3694 11.2137 67.3486 11.3699 67.3069C11.5262 67.2652 11.672 67.2131 11.8074 67.1506C11.9428 67.0777 12.0209 67.0152 12.0418 66.9631C12.1043 66.7236 12.1355 66.3121 12.1355 65.7288V63.1194L12.1043 63.0569L10.2762 63.0256C8.98449 63.0361 8.33865 63.0517 8.33865 63.0725L8.3699 63.1038V65.6663C8.3699 65.9371 8.38032 66.1819 8.40115 66.4006C8.42199 66.6194 8.45324 66.8121 8.4949 66.9788C8.51574 67.0204 8.58865 67.0725 8.71365 67.135C8.84907 67.1975 8.9897 67.2548 9.13553 67.3069C9.29178 67.3486 9.40115 67.3694 9.46365 67.3694C9.50532 67.3694 9.52615 67.4475 9.52615 67.6038C9.53657 67.76 9.52615 67.8746 9.4949 67.9475C8.98449 67.9163 8.5522 67.8902 8.19803 67.8694C7.85428 67.8381 7.54178 67.8225 7.26053 67.8225C6.91678 67.8225 6.56782 67.8381 6.21365 67.8694C5.8699 67.8902 5.48449 67.9163 5.0574 67.9475ZM20.108 67.9944C19.4726 67.9944 18.8841 67.8329 18.3424 67.51C17.8112 67.1871 17.3841 66.7548 17.0612 66.2131C16.7487 65.6715 16.5924 65.0777 16.5924 64.4319C16.5924 63.7652 16.733 63.1663 17.0143 62.635C17.3059 62.1038 17.707 61.6819 18.2174 61.3694C18.7278 61.0569 19.3164 60.9006 19.983 60.9006C20.6393 60.9006 21.1966 61.0569 21.6549 61.3694C22.1237 61.6715 22.4778 62.0517 22.7174 62.51C22.9674 62.9579 23.0924 63.4111 23.0924 63.8694C23.0924 64.109 23.0403 64.2652 22.9362 64.3381C22.8424 64.4111 22.6497 64.4475 22.358 64.4475H18.8268C18.7643 64.4475 18.733 64.484 18.733 64.5569C18.733 64.9319 18.8007 65.2861 18.9362 65.6194C19.082 65.9527 19.2903 66.2236 19.5612 66.4319C19.8424 66.6402 20.1809 66.7444 20.5768 66.7444C20.9309 66.7444 21.2591 66.6923 21.5612 66.5881C21.7695 66.5256 21.9309 66.4683 22.0455 66.4163C22.1601 66.3642 22.2643 66.3069 22.358 66.2444C22.4622 66.1715 22.582 66.0829 22.7174 65.9788C22.8112 66.0204 22.858 66.1194 22.858 66.2756C22.858 66.4111 22.8372 66.5152 22.7955 66.5881C22.733 66.7548 22.5664 66.9475 22.2955 67.1663C22.0351 67.385 21.7122 67.5777 21.3268 67.7444C20.9518 67.9111 20.5455 67.9944 20.108 67.9944ZM18.8424 63.5881H20.8268C20.9726 63.5881 21.0455 63.4892 21.0455 63.2913C21.0455 62.8954 20.9362 62.5413 20.7174 62.2288C20.5091 61.9163 20.2382 61.76 19.9049 61.76C19.6028 61.76 19.3632 61.8694 19.1862 62.0881C19.0195 62.2965 18.8997 62.5308 18.8268 62.7913C18.7643 63.0517 18.733 63.2652 18.733 63.4319C18.733 63.5361 18.7695 63.5881 18.8424 63.5881ZM26.2837 67.9944C25.7107 67.9944 25.2524 67.8381 24.9087 67.5256C24.5753 67.2027 24.4087 66.8017 24.4087 66.3225C24.4087 65.9163 24.5337 65.5621 24.7837 65.26C25.0441 64.9579 25.367 64.7183 25.7524 64.5413C25.8982 64.4788 26.0337 64.4267 26.1587 64.385C26.2837 64.3329 26.3982 64.2861 26.5024 64.2444C26.8982 64.1194 27.2159 64.0308 27.4555 63.9788C27.6951 63.9163 27.8722 63.8642 27.9868 63.8225C28.0805 63.7913 28.1274 63.7131 28.1274 63.5881V63.0256C28.1274 62.1715 27.867 61.7444 27.3462 61.7444C26.742 61.7444 26.4399 62.0933 26.4399 62.7913C26.4399 63.0204 26.3462 63.1923 26.1587 63.3069C25.9712 63.4111 25.7628 63.4631 25.5337 63.4631C25.0545 63.4631 24.7264 63.3069 24.5493 62.9944C24.5493 62.7236 24.643 62.4631 24.8305 62.2131C25.0284 61.9631 25.2837 61.7392 25.5962 61.5413C25.9191 61.3329 26.2784 61.1715 26.6743 61.0569C27.0805 60.9319 27.4868 60.8694 27.893 60.8694C28.6222 60.8694 29.1795 61.0725 29.5649 61.4788C29.9607 61.8746 30.1587 62.5986 30.1587 63.6506V66.1819C30.1587 66.5361 30.2837 66.7131 30.5337 66.7131C30.7212 66.7131 30.8982 66.6454 31.0649 66.51C31.1378 66.5517 31.1743 66.6298 31.1743 66.7444C31.1743 67.0152 31.1378 67.2079 31.0649 67.3225C30.9191 67.4579 30.6795 67.6038 30.3462 67.76C30.0232 67.9058 29.7159 67.9788 29.4243 67.9788C29.1743 67.9788 28.9347 67.9058 28.7055 67.76C28.4764 67.6038 28.3253 67.4267 28.2524 67.2288C28.242 67.2288 28.1847 67.2652 28.0805 67.3381C27.9764 67.4111 27.8982 67.4683 27.8462 67.51C27.6378 67.6454 27.3982 67.76 27.1274 67.8538C26.8566 67.9475 26.5753 67.9944 26.2837 67.9944ZM27.268 66.8694C27.5389 66.8694 27.7472 66.8069 27.893 66.6819C28.0493 66.5465 28.1274 66.385 28.1274 66.1975V64.6194L27.3149 64.9006C27.0962 64.9736 26.893 65.0829 26.7055 65.2288C26.5284 65.3746 26.4399 65.5673 26.4399 65.8069C26.4399 66.1819 26.518 66.4527 26.6743 66.6194C26.8409 66.7861 27.0389 66.8694 27.268 66.8694ZM32.4593 67.9475C32.4176 67.9058 32.3968 67.7965 32.3968 67.6194C32.3968 67.4527 32.4176 67.3694 32.4593 67.3694C32.5426 67.3694 32.6624 67.3486 32.8187 67.3069C32.9749 67.2548 33.1207 67.1975 33.2562 67.135C33.3916 67.0725 33.4645 67.0204 33.4749 66.9788C33.5478 66.6871 33.5843 66.2913 33.5843 65.7913V63.6506C33.5843 63.0673 33.4905 62.6767 33.303 62.4788C33.2197 62.3746 33.1051 62.3017 32.9593 62.26C32.8239 62.2183 32.7041 62.1923 32.5999 62.1819C32.4957 62.1611 32.4437 62.1402 32.4437 62.1194C32.4437 61.7548 32.4697 61.5725 32.5218 61.5725C32.7926 61.5725 33.1676 61.5152 33.6468 61.4006C34.1364 61.2756 34.652 61.1558 35.1937 61.0413L35.553 60.9631C35.6051 60.9631 35.6572 60.9996 35.7093 61.0725C35.7614 61.135 35.7874 61.1871 35.7874 61.2288C35.777 61.2913 35.7614 61.4163 35.7405 61.6038C35.7301 61.7913 35.7197 61.8954 35.7093 61.9163C36.2301 61.2392 36.8187 60.9006 37.4749 60.9006C37.9437 60.9006 38.3916 61.0933 38.8187 61.4788C38.8187 62.0204 38.7509 62.4215 38.6155 62.6819C38.4905 62.9423 38.2562 63.0725 37.9124 63.0725C37.7041 63.0725 37.4645 62.9527 37.1937 62.7131C36.9228 62.4736 36.6832 62.3538 36.4749 62.3538C36.2666 62.3538 36.0999 62.4371 35.9749 62.6038C35.8499 62.76 35.7562 62.9631 35.6937 63.2131C35.6416 63.4631 35.6155 63.7236 35.6155 63.9944V65.5725C35.6155 66.2496 35.652 66.7183 35.7249 66.9788C35.7457 67.0204 35.8187 67.0725 35.9437 67.135C36.0687 67.1975 36.2041 67.2548 36.3499 67.3069C36.4957 67.3486 36.5947 67.3694 36.6468 67.3694C36.6676 67.3694 36.6832 67.4111 36.6937 67.4944C36.7041 67.5777 36.7093 67.6663 36.7093 67.76C36.7093 67.8538 36.6989 67.9163 36.678 67.9475C36.5947 67.9371 36.4176 67.9215 36.1468 67.9006C35.8759 67.8902 35.5895 67.8746 35.2874 67.8538C34.9957 67.8329 34.7666 67.8225 34.5999 67.8225C34.4749 67.8225 34.303 67.8277 34.0843 67.8381C33.8759 67.8486 33.6572 67.8642 33.428 67.885C33.1989 67.8954 32.9957 67.9058 32.8187 67.9163C32.6416 67.9371 32.5218 67.9475 32.4593 67.9475ZM43.1193 67.9944C42.5464 67.9944 42.0516 67.8173 41.6349 67.4631C41.2287 67.0986 41.0255 66.5152 41.0255 65.7131V62.1038H40.0099C39.9266 62.1038 39.8849 61.9423 39.8849 61.6194C39.8849 61.5465 39.8953 61.4892 39.9162 61.4475C40.2078 61.3017 40.4682 61.1611 40.6974 61.0256C40.937 60.8798 41.1453 60.7392 41.3224 60.6038C41.7807 60.2392 42.1141 59.9631 42.3224 59.7756C42.5307 59.5881 42.6401 59.4892 42.6505 59.4788C42.7339 59.4788 42.8224 59.4996 42.9162 59.5413C43.0099 59.5725 43.0568 59.609 43.0568 59.6506V61.1819H44.7443C44.8276 61.1819 44.8693 61.234 44.8693 61.3381C44.8693 61.6506 44.8172 61.9058 44.713 62.1038H43.0568V65.8069C43.0568 66.5986 43.338 66.9944 43.9005 66.9944C44.1922 66.9944 44.3953 66.9579 44.5099 66.885C44.6349 66.8017 44.7182 66.76 44.7599 66.76C44.8016 66.76 44.8432 66.8121 44.8849 66.9163C44.937 67.0204 44.963 67.0986 44.963 67.1506C44.963 67.234 44.8589 67.3433 44.6505 67.4788C44.4526 67.6142 44.2078 67.734 43.9162 67.8381C43.6349 67.9423 43.3693 67.9944 43.1193 67.9944Z" fill="#2D0C80" fill-opacity="0.8"/>
<path opacity="0.986" fill-rule="evenodd" clip-rule="evenodd" d="M27.3766 4.05278C27.3115 4.92178 27.2194 5.78636 27.1006 6.64653C27.0146 6.7619 26.9839 6.90601 27.0085 7.07882C26.6404 7.07882 26.2724 7.07882 25.9043 7.07882C25.8148 6.46364 25.7074 5.85123 25.5822 5.24158C25.4687 4.92632 25.3307 4.63813 25.1681 4.37699C25.1615 5.29415 25.1615 6.23079 25.1681 7.18689C24.6017 7.28113 24.0496 7.44324 23.5117 7.67322C22.9231 7.98319 22.3402 8.2894 21.7633 8.59184C22.1437 6.82215 22.3124 5.02094 22.2694 3.18819C22.3768 2.99006 22.5148 2.82795 22.6835 2.70186C23.1052 2.54154 23.5347 2.41546 23.9718 2.32361C24.2434 2.38497 24.4889 2.51105 24.708 2.70186C25.4764 2.75002 26.2434 2.82207 27.0085 2.91801C27.4293 3.16711 27.5519 3.54536 27.3766 4.05278Z" fill="#FB6291"/>
<path opacity="0.981" fill-rule="evenodd" clip-rule="evenodd" d="M27.3766 4.05273C28.0349 4.18397 28.6331 4.47217 29.171 4.91732C29.185 5.72007 29.1083 6.5126 28.941 7.29492C28.3347 7.15313 27.7211 7.08108 27.1005 7.07878C27.1005 6.93468 27.1005 6.79058 27.1005 6.64648C27.2194 5.78632 27.3115 4.92174 27.3766 4.05273Z" fill="#991758"/>
<path opacity="0.998" fill-rule="evenodd" clip-rule="evenodd" d="M27.1006 6.64648C27.1006 6.79058 27.1006 6.93468 27.1006 7.07878C27.7211 7.08108 28.3347 7.15313 28.941 7.29492C30.3045 7.61835 31.5161 8.30282 32.5759 9.34831C32.6373 9.60047 32.6373 9.85265 32.5759 10.1048C32.3182 10.7646 32.0268 11.395 31.7017 11.9961C31.3005 12.0538 30.9018 12.0359 30.5054 11.9421C27.1126 11.261 24.8887 12.8461 23.8338 16.6973C23.7318 17.0848 23.6858 17.4811 23.6957 17.8861C23.1734 17.8681 22.6519 17.8862 22.1314 17.9401C22.9569 18.9594 23.5857 20.1302 24.0178 21.4525C24.0958 22.3735 24.3872 23.184 24.892 23.8841C25.908 24.6086 26.7822 25.5273 27.5147 26.64C27.9819 27.5215 28.35 28.4582 28.6189 29.4499C28.6855 29.9417 28.5168 30.2659 28.1128 30.4225C27.9106 30.3849 27.7419 30.2768 27.6067 30.0983C27.2717 28.428 26.5509 27.041 25.4442 25.9375C25.0669 25.6709 24.714 25.3646 24.3859 25.0189C24.0866 27.5961 23.0744 29.6856 21.3492 31.2871C20.6531 32.4387 20.5611 33.6635 21.0731 34.9616C21.3178 35.5181 21.5478 36.0765 21.7633 36.6367C21.6674 37.1796 21.3913 37.3597 20.9351 37.1771C19.9649 35.7758 19.5508 34.1728 19.6928 32.3678C19.8256 31.8395 20.0096 31.3352 20.2449 30.8548C20.9824 30.0607 21.6572 29.1961 22.2694 28.2611C23.5134 25.6795 23.5441 23.0858 22.3614 20.4798C21.9387 19.713 21.4633 18.9925 20.9351 18.3184C20.5882 18.2182 20.2508 18.2722 19.9228 18.4805C20.0447 22.1761 19.2011 25.5444 17.3922 28.5853C16.0846 31.5505 16.1153 34.5044 17.4842 37.4473C18.1718 39.0108 19.2301 40.0734 20.659 40.6354C21.9607 41.2244 23.3103 41.5126 24.708 41.5C26.519 41.8877 28.0373 42.8783 29.2631 44.472C29.3414 45.2992 29.05 45.5694 28.3889 45.2826C27.6239 44.2927 26.7037 43.5722 25.6282 43.1211C24.6291 42.8424 23.6169 42.6622 22.5915 42.5807C21.8064 42.404 21.0396 42.1879 20.2909 41.9323C22.8179 45.5677 25.7013 48.7198 28.941 51.3887C26.8236 50.4877 24.6764 49.6952 22.4994 49.0111C19.7232 45.9495 17.3767 42.4911 15.4597 38.6361C14.4256 36.2246 13.9961 33.6669 14.1714 30.9629C13.8739 30.4497 13.4598 30.2516 12.9291 30.3685C12.1512 31.0121 11.415 31.7145 10.7206 32.4759C10.5239 31.0843 10.708 29.7693 11.2727 28.5313C10.1655 28.7911 9.04595 29.0253 7.91392 29.2337C7.43298 29.209 7.15691 28.9207 7.08572 28.3691C6.96618 27.7619 6.93551 27.1494 6.99369 26.5319C7.10106 26.4058 7.20841 26.2798 7.31577 26.1536C8.90651 25.8669 10.4402 25.3806 11.9169 24.6947C12.6712 24.4714 13.4074 24.1833 14.1254 23.8301C14.1101 24.4795 14.1255 25.1279 14.1714 25.7754C15.5262 24.5013 16.6917 23.0243 17.6683 21.3444C17.8928 18.4189 18.1536 15.5009 18.4505 12.5905C19.3052 10.9743 20.4094 9.6414 21.7633 8.5918C22.3402 8.28936 22.9231 7.98315 23.5117 7.67318C24.0496 7.4432 24.6017 7.28109 25.1681 7.18685C25.1616 6.23075 25.1616 5.29411 25.1681 4.37695C25.3307 4.63809 25.4687 4.92628 25.5822 5.24154C25.7074 5.85119 25.8148 6.4636 25.9043 7.07878C26.2724 7.07878 26.6404 7.07878 27.0085 7.07878C26.9839 6.90597 27.0146 6.76186 27.1006 6.64648Z" fill="#E84688"/>
<path opacity="0.987" fill-rule="evenodd" clip-rule="evenodd" d="M18.4505 12.5905C18.1536 15.5009 17.8928 18.4189 17.6683 21.3444C16.6917 23.0243 15.5262 24.5014 14.1714 25.7754C14.1255 25.128 14.1101 24.4795 14.1254 23.8301C14.1165 22.9989 14.1472 22.1703 14.2174 21.3444C14.3269 19.5304 14.5263 17.7292 14.8156 15.9408C14.8936 13.8439 14.9856 11.7545 15.0917 9.67257C15.2423 9.4229 15.4417 9.26079 15.6898 9.18624C16.334 9.11419 16.9781 9.11419 17.6223 9.18624C17.9775 9.31516 18.2075 9.58534 18.3124 9.99679C18.4065 10.8581 18.4525 11.7227 18.4505 12.5905Z" fill="#81AEFE"/>
<path opacity="0.99" fill-rule="evenodd" clip-rule="evenodd" d="M30.5054 11.9421C30.4369 12.8926 30.2989 13.8293 30.0913 14.752C30.0082 14.8818 29.9009 14.9719 29.7692 15.0222C27.9498 14.9341 26.8762 15.9248 26.5484 17.9942C25.5988 17.9205 24.6479 17.8845 23.6957 17.8861C23.6858 17.4812 23.7318 17.0848 23.8338 16.6973C24.8887 12.8461 27.1126 11.261 30.5054 11.9421Z" fill="#82ADFD"/>
<path opacity="0.998" fill-rule="evenodd" clip-rule="evenodd" d="M23.6957 17.8861C24.6479 17.8845 25.5988 17.9205 26.5484 17.9942C27.5257 18.1641 28.4766 18.4522 29.4011 18.8588C30.6149 19.5725 31.7805 20.4011 32.8979 21.3444C33.6967 22.1387 34.4635 22.9672 35.1985 23.8301C36.888 26.3583 38.0383 29.2041 38.6493 32.3679C39.1978 35.3765 39.6579 38.4026 40.0297 41.446C40.091 42.8869 40.091 44.328 40.0297 45.7689C39.5853 51.3338 37.024 53.6214 32.3458 52.6315C31.1461 52.4198 30.0112 52.0055 28.941 51.3887C25.7013 48.7198 22.8179 45.5677 20.2909 41.9323C21.0396 42.1879 21.8064 42.4041 22.5915 42.5808C23.6169 42.6622 24.6291 42.8424 25.6282 43.1211C26.7037 43.5722 27.6239 44.2927 28.3889 45.2826C29.0499 45.5694 29.3414 45.2992 29.2631 44.472C28.0373 42.8783 26.519 41.8877 24.708 41.5C23.3103 41.5127 21.9606 41.2244 20.659 40.6355C19.2301 40.0735 18.1718 39.0108 17.4842 37.4473C16.1153 34.5045 16.0846 31.5505 17.3922 28.5853C19.2011 25.5445 20.0447 22.1762 19.9228 18.4805C20.2508 18.2722 20.5882 18.2182 20.9351 18.3184C21.4633 18.9926 21.9387 19.7131 22.3614 20.4799C23.5441 23.0858 23.5134 25.6796 22.2694 28.2611C21.6572 29.1961 20.9824 30.0607 20.2449 30.8549C20.0096 31.3352 19.8255 31.8395 19.6928 32.3679C19.5508 34.1728 19.9649 35.7758 20.9351 37.1771C21.3913 37.3598 21.6674 37.1796 21.7633 36.6368C21.5478 36.0765 21.3178 35.5181 21.0731 34.9616C20.5611 33.6636 20.6531 32.4388 21.3492 31.2871C23.0744 29.6856 24.0866 27.5961 24.3859 25.0189C24.714 25.3646 25.0669 25.6709 25.4441 25.9375C26.5509 27.0411 27.2717 28.4281 27.6067 30.0983C27.7419 30.2769 27.9106 30.385 28.1128 30.4226C28.5168 30.266 28.6855 29.9417 28.6189 29.4499C28.35 28.4582 27.9819 27.5216 27.5146 26.64C26.7822 25.5273 25.908 24.6087 24.892 23.8842C24.3872 23.1841 24.0957 22.3735 24.0178 21.4525C23.5857 20.1302 22.9569 18.9595 22.1313 17.9401C22.6519 17.8862 23.1734 17.8682 23.6957 17.8861Z" fill="#FB6291"/>
<path opacity="0.981" fill-rule="evenodd" clip-rule="evenodd" d="M35.4746 20.2637C34.6661 20.7725 33.8072 21.1327 32.8979 21.3444C31.7805 20.401 30.6149 19.5724 29.4011 18.8587C30.8574 18.976 32.2684 18.7058 33.6341 18.0482C34.137 17.9089 34.5511 18.071 34.8764 18.5345C35.0855 19.1097 35.2849 19.686 35.4746 20.2637Z" fill="#991758"/>
<path opacity="0.987" fill-rule="evenodd" clip-rule="evenodd" d="M35.1985 23.8301C34.4635 22.9671 33.6967 22.1386 32.8979 21.3444C33.8072 21.1327 34.6661 20.7725 35.4746 20.2637C36.8346 19.4052 37.632 19.8734 37.8671 21.6686C37.8262 22.2039 37.6115 22.6182 37.223 22.9115C36.5949 23.3708 35.9201 23.677 35.1985 23.8301Z" fill="#E74687"/>
<path opacity="0.976" fill-rule="evenodd" clip-rule="evenodd" d="M14.2174 21.3444C14.1472 22.1703 14.1165 22.9988 14.1254 23.83C13.4074 24.1832 12.6712 24.4713 11.9169 24.6946C10.9663 24.7547 10.0461 24.5926 9.15621 24.2083C8.96367 24.008 8.87164 23.7559 8.88015 23.4518C8.95232 22.7639 9.16704 22.1516 9.5243 21.6145C9.67494 21.5496 9.82825 21.4956 9.98441 21.4524C11.4016 21.7523 12.8126 21.7162 14.2174 21.3444Z" fill="#991757"/>
<path fill-rule="evenodd" clip-rule="evenodd" d="M29.4931 21.3444C29.7526 21.3171 29.998 21.3712 30.2293 21.5065C32.9254 24.7607 34.413 28.6692 34.6924 33.2324C34.723 34.6014 34.7538 35.9702 34.7844 37.3392C35.1634 38.3245 35.6542 39.2251 36.2568 40.041C36.5833 40.7359 36.8594 41.4563 37.085 42.2024C37.2167 43.0932 36.9253 43.3994 36.2107 43.1211C35.8225 41.6862 35.2091 40.4074 34.3703 39.2845C34.2163 39.8828 34.109 40.4952 34.0482 41.1217C33.9868 42.2384 33.9868 43.3553 34.0482 44.472C34.1711 45.7322 34.5699 46.849 35.2445 47.8222C35.2824 48.5875 34.9911 48.8397 34.3703 48.5788C33.5276 47.3942 33.0521 46.0253 32.944 44.472C32.7464 42.2599 32.9304 40.0985 33.4961 37.9876C33.7689 35.3663 33.6462 32.7725 33.128 30.2064C32.9375 30.9123 32.6921 31.5968 32.3918 32.2597C31.7783 33.1243 31.1649 33.9889 30.5514 34.8535C30.2446 35.5381 30.0299 36.2587 29.9072 37.0149C29.5742 37.3222 29.2675 37.2862 28.987 36.9069C29.0042 35.5136 29.403 34.2887 30.1833 33.2324C32.0974 31.2165 32.5575 28.8029 31.5636 25.9915C31.011 24.5501 30.2441 23.2893 29.2631 22.209C29.1727 21.855 29.2494 21.5669 29.4931 21.3444Z" fill="#9A1859"/>
<path opacity="0.992" fill-rule="evenodd" clip-rule="evenodd" d="M22.4994 49.0111C20.0824 48.0427 17.9045 46.6018 15.9659 44.6882C15.3864 43.9535 14.7882 43.233 14.1714 42.5267C13.7345 41.889 13.3204 41.2405 12.9291 40.5814C11.6775 38.0807 10.9414 35.3789 10.7206 32.4759C11.415 31.7145 12.1512 31.0121 12.9291 30.3685C13.4598 30.2516 13.8739 30.4497 14.1714 30.9629C13.9961 33.6669 14.4256 36.2246 15.4597 38.6361C17.3766 42.4911 19.7232 45.9495 22.4994 49.0111Z" fill="#FB6292"/>
<path opacity="0.983" fill-rule="evenodd" clip-rule="evenodd" d="M12.9291 40.5814C13.3204 41.2406 13.7345 41.889 14.1714 42.5267C14.7882 43.233 15.3864 43.9535 15.9659 44.6882C15.9217 46.028 15.845 47.3608 15.7358 48.6869C14.9735 49.1493 14.1607 49.3835 13.2972 49.3894C12.8183 49.0721 12.619 48.5857 12.6991 47.9304C12.5886 45.4687 12.6653 43.0191 12.9291 40.5814Z" fill="#81AEFE"/>
</svg>
