<svg width="50" height="81" viewBox="0 0 50 81" fill="none" xmlns="http://www.w3.org/2000/svg">
<g clip-path="url(#clip0_7_86)">
<path opacity="0.997" fill-rule="evenodd" clip-rule="evenodd" d="M24.6582 2.09752C24.6582 2.88633 24.6582 3.67514 24.6582 4.46395C23.9095 4.46395 23.1608 4.46395 22.4121 4.46395C22.3959 3.81757 22.4122 3.17218 22.4609 2.52778C22.4975 2.42923 22.5463 2.33959 22.6074 2.25887C23.2798 2.10562 23.9634 2.05184 24.6582 2.09752Z" fill="#DFD2CD"/>
<path fill-rule="evenodd" clip-rule="evenodd" d="M24.6582 2.09749C25.5477 2.04982 26.4266 2.1036 27.2949 2.25884C27.3437 2.31262 27.3926 2.3664 27.4414 2.42018C27.4902 3.10049 27.5064 3.78173 27.4902 4.46392C26.5462 4.46392 25.6022 4.46392 24.6582 4.46392C24.6582 3.67511 24.6582 2.88629 24.6582 2.09749Z" fill="#B9ACAC"/>
<path opacity="0.971" fill-rule="evenodd" clip-rule="evenodd" d="M22.4121 4.46399C23.1608 4.46399 23.9095 4.46399 24.6582 4.46399C24.6582 5.03767 24.6582 5.61135 24.6582 6.18503C23.9095 6.18503 23.1608 6.18503 22.4121 6.18503C21.754 5.95344 21.5749 5.48733 21.875 4.78668C22.0203 4.60813 22.1993 4.50056 22.4121 4.46399Z" fill="#B9ACAC"/>
<path opacity="0.983" fill-rule="evenodd" clip-rule="evenodd" d="M24.6582 4.46399C25.6022 4.46399 26.5462 4.46399 27.4902 4.46399C28.1483 4.69558 28.3274 5.16169 28.0273 5.86233C27.882 6.04089 27.703 6.14846 27.4902 6.18503C26.5462 6.18503 25.6022 6.18503 24.6582 6.18503C24.6582 5.61135 24.6582 5.03767 24.6582 4.46399Z" fill="#9E9797"/>
<path fill-rule="evenodd" clip-rule="evenodd" d="M22.4121 6.18494C23.1608 6.18494 23.9095 6.18494 24.6582 6.18494C24.6582 6.75861 24.6582 7.3323 24.6582 7.90597C23.9095 7.90597 23.1608 7.90597 22.4121 7.90597C22.4121 7.3323 22.4121 6.75861 22.4121 6.18494Z" fill="#DFD2CD"/>
<path fill-rule="evenodd" clip-rule="evenodd" d="M24.6582 6.18494C25.6022 6.18494 26.5462 6.18494 27.4902 6.18494C27.4902 6.75861 27.4902 7.3323 27.4902 7.90597C26.5462 7.90597 25.6022 7.90597 24.6582 7.90597C24.6582 7.3323 24.6582 6.75861 24.6582 6.18494Z" fill="#B9ACAC"/>
<path opacity="0.971" fill-rule="evenodd" clip-rule="evenodd" d="M22.4121 7.90601C23.1608 7.90601 23.9095 7.90601 24.6582 7.90601C24.6582 8.47968 24.6582 9.05337 24.6582 9.62704C23.9095 9.62704 23.1608 9.62704 22.4121 9.62704C21.754 9.39546 21.5749 8.92935 21.875 8.2287C22.0203 8.05014 22.1993 7.94258 22.4121 7.90601Z" fill="#B9ACAC"/>
<path opacity="0.982" fill-rule="evenodd" clip-rule="evenodd" d="M24.6582 7.90601C25.6022 7.90601 26.5462 7.90601 27.4902 7.90601C28.1483 8.13759 28.3274 8.6037 28.0273 9.30435C27.882 9.48291 27.703 9.59047 27.4902 9.62704C26.5462 9.62704 25.6022 9.62704 24.6582 9.62704C24.6582 9.05337 24.6582 8.47968 24.6582 7.90601Z" fill="#9E9797"/>
<path fill-rule="evenodd" clip-rule="evenodd" d="M18.8965 24.0408C18.9706 25.9227 19.1659 27.7873 19.4824 29.6342C19.988 32.0041 20.6228 34.3347 21.3867 36.6259C22.142 39.1795 22.5815 41.7968 22.7051 44.4781C22.7554 46.1219 22.3811 47.6278 21.582 48.9958C20.921 49.8352 20.0909 50.355 19.0918 50.5555C18.0534 50.6841 17.0117 50.7378 15.9668 50.7169C17.9815 50.0552 19.1046 48.5493 19.3359 46.1991C19.5454 43.2818 19.2036 40.4493 18.3106 37.7015C18.0639 38.16 17.7058 38.3213 17.2363 38.1856C16.7322 37.8463 16.3742 37.3801 16.1621 36.7872C16.3463 36.0226 16.7694 35.8075 17.4316 36.1418C17.6433 36.3749 17.8548 36.6079 18.0664 36.841C18.0827 36.7872 18.0989 36.7334 18.1152 36.6796C17.4866 34.7101 16.917 32.7202 16.4063 30.7098C15.583 25.9667 15.4527 21.1981 16.0156 16.4037C16.2818 14.7649 16.6236 13.1514 17.041 11.5633C17.0302 10.6781 16.6722 10.0327 15.9668 9.62709C17.1818 9.14871 18.3863 9.20249 19.5801 9.78843C20.2284 10.4829 20.44 11.3255 20.2148 12.3162C19.184 16.1404 18.7445 20.0485 18.8965 24.0408Z" fill="#E22334"/>
<path fill-rule="evenodd" clip-rule="evenodd" d="M49.9512 38.6696C49.9512 40.8209 49.9512 42.9722 49.9512 45.1235C49.8105 47.0178 49.4688 48.8823 48.9258 50.7169C48.2975 52.3729 47.1581 53.0899 45.5078 52.8682C44.9622 52.828 44.4251 52.7562 43.8965 52.6531C44.7837 52.2504 45.3859 51.5333 45.7031 50.5018C46.2811 48.6188 46.6065 46.6827 46.6797 44.6933C47.1443 35.9573 45.5492 27.7106 41.8945 19.9533C40.296 16.5234 38.0336 13.7447 35.1074 11.6171C33.7872 10.7645 32.3875 10.1192 30.9082 9.68089C30.8539 9.63974 30.8214 9.58596 30.8105 9.51955C32.4519 9.18595 34.047 9.38315 35.5957 10.1112C38.7552 11.5016 41.3431 13.7067 43.3594 16.7264C47.3051 23.4004 49.5023 30.7148 49.9512 38.6696Z" fill="#E22334"/>
<path opacity="0.995" fill-rule="evenodd" clip-rule="evenodd" d="M15.9668 9.62708C16.6722 10.0327 17.0302 10.6781 17.041 11.5632C16.6236 13.1514 16.2818 14.7649 16.0156 16.4037C15.4527 21.198 15.583 25.9667 16.4063 30.7098C16.917 32.7202 17.4866 34.7101 18.1152 36.6796C18.0989 36.7334 18.0827 36.7872 18.0664 36.841C17.8548 36.6079 17.6433 36.3749 17.4316 36.1418C16.7694 35.8075 16.3463 36.0226 16.1621 36.7872C16.3742 37.3801 16.7322 37.8463 17.2363 38.1856C17.7058 38.3213 18.0639 38.16 18.3106 37.7015C19.2036 40.4493 19.5454 43.2818 19.3359 46.1991C19.1046 48.5493 17.9815 50.0552 15.9668 50.7169C14.728 50.8607 13.491 51.0578 12.2559 51.3085C10.1489 51.826 8.03306 52.292 5.9082 52.7068C4.6884 52.953 3.48398 52.8813 2.29492 52.4917C1.67967 52.0644 1.24022 51.4728 0.976563 50.7169C0.433636 48.8828 0.0918389 47.0183 -0.0488281 45.1235C-0.0488281 42.9722 -0.0488281 40.8209 -0.0488281 38.6696C0.354331 31.4091 2.22607 24.6325 5.56641 18.3398C7.76454 14.3052 10.8732 11.4906 14.8926 9.89599C15.2453 9.77229 15.6033 9.68264 15.9668 9.62708Z" fill="#F72E3F"/>
<path fill-rule="evenodd" clip-rule="evenodd" d="M22.4121 9.62708C23.1608 9.62708 23.9095 9.62708 24.6582 9.62708C24.6582 10.2008 24.6582 10.7745 24.6582 11.3481C23.9095 11.3481 23.1608 11.3481 22.4121 11.3481C22.4121 10.7745 22.4121 10.2008 22.4121 9.62708Z" fill="#DFD2CD"/>
<path fill-rule="evenodd" clip-rule="evenodd" d="M24.6582 9.62708C25.6022 9.62708 26.5462 9.62708 27.4902 9.62708C27.4902 10.2008 27.4902 10.7745 27.4902 11.3481C26.5462 11.3481 25.6022 11.3481 24.6582 11.3481C24.6582 10.7745 24.6582 10.2008 24.6582 9.62708Z" fill="#B9ACAC"/>
<path opacity="0.996" fill-rule="evenodd" clip-rule="evenodd" d="M30.8105 9.51953C30.8214 9.58594 30.8539 9.63972 30.9082 9.68088C32.3875 10.1192 33.7872 10.7645 35.1074 11.617C38.0336 13.7447 40.296 16.5234 41.8945 19.9533C45.5492 27.7106 47.1443 35.9573 46.6797 44.6932C46.6065 46.6827 46.2811 48.6188 45.7031 50.5018C45.3859 51.5333 44.7837 52.2504 43.8965 52.653C41.229 52.0979 38.5597 51.5421 35.8887 50.9858C34.1991 50.7988 32.5063 50.6555 30.8105 50.5555C29.1296 50.1739 28.0391 49.0804 27.5391 47.2748C27.1188 45.3846 27.0863 43.4843 27.4414 41.5739C28.0117 38.344 28.8256 35.1888 29.8828 32.1082C30.0931 31.2539 30.2721 30.3934 30.4199 29.5266C30.7842 27.6995 30.9795 25.8351 31.0059 23.9332C31.0397 21.8838 30.9584 19.8401 30.7617 17.802C30.5056 15.6922 30.1312 13.6127 29.6387 11.5633C29.5609 10.5505 29.9516 9.86928 30.8105 9.51953Z" fill="#F72E3F"/>
<path opacity="0.973" fill-rule="evenodd" clip-rule="evenodd" d="M22.4121 11.3481C23.1608 11.3481 23.9095 11.3481 24.6582 11.3481C24.6582 11.9218 24.6582 12.4955 24.6582 13.0692C23.9095 13.0692 23.1608 13.0692 22.4121 13.0692C21.754 12.8376 21.5749 12.3715 21.875 11.6708C22.0203 11.4923 22.1993 11.3847 22.4121 11.3481Z" fill="#B9ACAC"/>
<path opacity="0.985" fill-rule="evenodd" clip-rule="evenodd" d="M24.6582 11.3481C25.6022 11.3481 26.5462 11.3481 27.4902 11.3481C28.1483 11.5797 28.3274 12.0458 28.0273 12.7465C27.882 12.925 27.703 13.0326 27.4902 13.0692C26.5462 13.0692 25.6022 13.0692 24.6582 13.0692C24.6582 12.4955 24.6582 11.9218 24.6582 11.3481Z" fill="#9E9797"/>
<path fill-rule="evenodd" clip-rule="evenodd" d="M22.4121 13.0691C23.1608 13.0691 23.9095 13.0691 24.6582 13.0691C24.6582 13.6427 24.6582 14.2165 24.6582 14.7901C23.9095 14.7901 23.1608 14.7901 22.4121 14.7901C22.4121 14.2165 22.4121 13.6427 22.4121 13.0691Z" fill="#DFD2CD"/>
<path fill-rule="evenodd" clip-rule="evenodd" d="M24.6582 13.0691C25.6022 13.0691 26.5462 13.0691 27.4902 13.0691C27.4902 13.6427 27.4902 14.2165 27.4902 14.7901C26.5462 14.7901 25.6022 14.7901 24.6582 14.7901C24.6582 14.2165 24.6582 13.6427 24.6582 13.0691Z" fill="#B9ACAC"/>
<path fill-rule="evenodd" clip-rule="evenodd" d="M14.502 14.1448C14.9325 14.0499 15.2743 14.1934 15.5273 14.575C15.6192 17.2322 15.5866 19.8854 15.4297 22.5348C15.2962 23.1555 15.0684 23.7292 14.7461 24.2559C13.8369 25.293 12.893 26.2969 11.9141 27.2677C11.6565 27.6519 11.4938 28.0822 11.4258 28.5585C11.3606 30.3513 11.3606 32.1439 11.4258 33.9367C11.6067 34.8715 12.0462 35.6244 12.7441 36.1956C12.764 34.2442 13.4149 32.6128 14.6973 31.3014C15.3839 31.2333 15.7257 31.5739 15.7227 32.3232C15.1232 33.0338 14.7001 33.8584 14.4531 34.7972C14.388 37.1995 14.388 39.6018 14.4531 42.0041C15.5446 40.6152 16.8305 40.3463 18.3105 41.1973C18.8767 41.4942 19.0882 41.9783 18.9453 42.6495C18.7751 42.9045 18.5472 43.048 18.2617 43.0797C17.8992 42.9328 17.5574 42.7356 17.2363 42.4881C16.8335 42.3963 16.4429 42.4322 16.0645 42.5957C15.0716 43.6893 14.0788 44.7828 13.0859 45.8764C13.2566 46.2833 13.517 46.6418 13.8672 46.9521C13.9938 48.0851 13.5869 48.4078 12.6465 47.9201C11.9623 47.1487 11.2462 46.4136 10.498 45.7151C9.63827 45.368 8.88957 45.5473 8.25195 46.2529C7.39465 46.456 7.05285 46.0795 7.22656 45.1235C8.67317 43.5659 10.2356 43.4224 11.9141 44.6932C12.3255 44.3272 12.6185 43.861 12.793 43.2949C12.8581 41.9323 12.8581 40.5699 12.793 39.2074C12.6817 38.8189 12.5189 38.4602 12.3047 38.1317C11.5443 37.4025 10.8933 36.5778 10.3516 35.6577C10.0024 34.765 9.80713 33.8328 9.76562 32.8611C8.74999 33.9078 7.80599 35.0192 6.93359 36.1956C6.90104 37.1995 6.86849 38.2035 6.83594 39.2074C6.70622 39.8874 6.44581 40.497 6.05469 41.036C5.51758 41.6276 4.98047 42.2192 4.44336 42.8108C3.7863 43.1604 3.39567 42.9453 3.27148 42.1654C3.27558 41.9538 3.3244 41.7566 3.41797 41.5738C4.07621 40.9209 4.66215 40.2038 5.17578 39.4225C5.29858 38.3547 5.36369 37.2791 5.37109 36.1956C5.52048 35.6156 5.74834 35.0778 6.05469 34.5821C6.4143 34.204 6.75609 33.8096 7.08008 33.3989C6.52814 32.7371 5.95849 32.0918 5.37109 31.4627C5.09218 30.8797 5.20611 30.4315 5.71289 30.1182C5.95422 30.0422 6.18209 30.078 6.39648 30.2257C6.9987 30.8891 7.60091 31.5523 8.20312 32.2157C8.72395 31.642 9.24479 31.0683 9.76562 30.4946C9.83076 28.8094 9.83076 27.1243 9.76562 25.4391C9.56585 24.748 9.24033 24.1385 8.78906 23.6105C8.60469 22.6662 8.94648 22.2897 9.81445 22.4811C10.6374 23.3077 11.142 24.3296 11.3281 25.5467C11.8652 25.0268 12.4023 24.5068 12.9395 23.987C13.5301 23.3849 13.9045 22.6499 14.0625 21.7819C14.095 19.3796 14.1276 16.9773 14.1602 14.575C14.2275 14.376 14.3414 14.2326 14.502 14.1448Z" fill="#E22334"/>
<path fill-rule="evenodd" clip-rule="evenodd" d="M34.7168 14.1448C34.947 14.1273 35.1748 14.1451 35.4004 14.1986C35.5794 14.2524 35.6934 14.3779 35.7422 14.5751C35.7747 17.0133 35.8073 19.4513 35.8398 21.8895C35.9557 22.4885 36.1835 23.0263 36.5234 23.503C37.207 24.1842 37.8906 24.8655 38.5742 25.5467C38.7604 24.3296 39.2649 23.3077 40.0879 22.4811C40.9505 22.2839 41.2923 22.6604 41.1133 23.6105C40.662 24.1386 40.3365 24.748 40.1367 25.4391C40.0716 27.1243 40.0716 28.8095 40.1367 30.4947C40.6575 31.0683 41.1784 31.6421 41.6992 32.2157C42.334 31.5165 42.9688 30.8174 43.6035 30.1182C44.5436 30.0418 44.8527 30.4901 44.5313 31.4628C43.9439 32.0918 43.3742 32.7372 42.8223 33.3989C43.4575 34.0085 43.9621 34.7255 44.3359 35.5502C44.3858 35.806 44.451 36.0571 44.5313 36.3032C44.539 37.3509 44.604 38.3907 44.7266 39.4226C45.2402 40.2038 45.8262 40.9209 46.4844 41.5739C46.8214 42.4924 46.5447 42.9406 45.6543 42.9184C45.0226 42.3303 44.4203 41.7028 43.8477 41.036C43.5439 40.6179 43.316 40.1519 43.1641 39.6377C43.0714 38.4161 42.9737 37.1969 42.8711 35.9805C41.9951 34.9081 41.0837 33.8682 40.1367 32.8611C40.0906 33.8323 39.8953 34.7646 39.5508 35.6578C38.9064 36.5475 38.2229 37.408 37.5 38.2393C37.343 38.5494 37.2128 38.872 37.1094 39.2074C37.0442 40.57 37.0442 41.9324 37.1094 43.2949C37.2838 43.8813 37.5768 44.3832 37.9883 44.8008C39.6305 43.4365 41.193 43.544 42.6758 45.1235C42.8548 46.0736 42.513 46.4501 41.6504 46.2529C41.0726 45.6544 40.389 45.4393 39.5996 45.6075C39.2142 45.8528 38.8562 46.1397 38.5254 46.4681C38.1023 47.0776 37.614 47.6155 37.0606 48.0815C36.198 48.2787 35.8562 47.9022 36.0352 46.9521C36.2956 46.6652 36.556 46.3785 36.8164 46.0916C36.8815 45.984 36.8815 45.8765 36.8164 45.7689C35.8174 44.5965 34.7595 43.5029 33.6426 42.4882C33.2845 42.4164 32.9265 42.4164 32.5684 42.4882C32.3059 42.7779 31.9966 42.9751 31.6406 43.0798C30.9667 42.9453 30.7389 42.5151 30.957 41.789C32.1231 40.5401 33.4088 40.3787 34.8145 41.3049C35.0261 41.538 35.2376 41.771 35.4492 42.0041C35.5144 39.6019 35.5144 37.1995 35.4492 34.7973C35.2023 33.8584 34.7791 33.0339 34.1797 32.3233C34.1824 31.5672 34.5242 31.2266 35.2051 31.3014C36.4874 32.6128 37.1384 34.2443 37.1582 36.1956C37.8116 35.6374 38.2511 34.9202 38.4766 34.0443C38.5417 32.144 38.5417 30.2437 38.4766 28.3434C38.3653 27.9549 38.2025 27.5962 37.9883 27.2677C37.0094 26.297 36.0654 25.2931 35.1563 24.2559C34.834 23.7293 34.6062 23.1555 34.4727 22.5349C34.3158 19.9214 34.2832 17.3039 34.375 14.6826C34.4724 14.4866 34.5863 14.3072 34.7168 14.1448Z" fill="#E22334"/>
<path opacity="0.971" fill-rule="evenodd" clip-rule="evenodd" d="M22.4121 14.7902C23.1608 14.7902 23.9095 14.7902 24.6582 14.7902C24.6582 15.3638 24.6582 15.9376 24.6582 16.5112C23.9095 16.5112 23.1608 16.5112 22.4121 16.5112C21.754 16.2796 21.5749 15.8135 21.875 15.1129C22.0203 14.9343 22.1993 14.8267 22.4121 14.7902Z" fill="#B9ACAC"/>
<path opacity="0.984" fill-rule="evenodd" clip-rule="evenodd" d="M24.6582 14.7902C25.6022 14.7902 26.5462 14.7902 27.4902 14.7902C28.1483 15.0217 28.3274 15.4878 28.0273 16.1885C27.9032 16.3373 27.7567 16.4448 27.5879 16.5112C26.6113 16.5112 25.6348 16.5112 24.6582 16.5112C24.6582 15.9376 24.6582 15.3638 24.6582 14.7902Z" fill="#9E9797"/>
<path opacity="0.995" fill-rule="evenodd" clip-rule="evenodd" d="M22.4121 16.5112C23.1608 16.5112 23.9095 16.5112 24.6582 16.5112C24.5759 18.9099 25.1455 21.097 26.3672 23.0727C27.0183 23.8615 27.6692 24.6503 28.3203 25.4391C28.4988 26.0777 28.5151 26.7231 28.3691 27.3753C26.028 25.7688 23.7169 25.8226 21.4355 27.5366C20.7974 28.2576 20.1463 28.9568 19.4824 29.6341C19.1659 27.7873 18.9706 25.9227 18.8965 24.0408C21.0482 22.0976 22.2201 19.5877 22.4121 16.5112Z" fill="#DFD2CD"/>
<path fill-rule="evenodd" clip-rule="evenodd" d="M24.6582 16.5112C25.6348 16.5112 26.6113 16.5112 27.5879 16.5112C27.718 19.5587 28.8572 22.0326 31.0059 23.9332C30.9795 25.8351 30.7842 27.6995 30.4199 29.5266C29.7338 28.8065 29.0502 28.0894 28.3691 27.3753C28.5151 26.7231 28.4988 26.0777 28.3203 25.4391C27.6692 24.6503 27.0183 23.8615 26.3672 23.0727C25.1455 21.097 24.5759 18.9099 24.6582 16.5112Z" fill="#B9ACAC"/>
<path fill-rule="evenodd" clip-rule="evenodd" d="M11.084 16.9415C11.3271 16.9197 11.555 16.9735 11.7676 17.1028C12.0442 17.4075 12.321 17.7124 12.5977 18.0171C12.9224 19.0047 12.6131 19.4171 11.6699 19.2541C11.3315 18.9892 11.0224 18.6844 10.7422 18.3398C10.4832 17.7524 10.5971 17.2863 11.084 16.9415Z" fill="#E22334"/>
<path fill-rule="evenodd" clip-rule="evenodd" d="M38.3301 16.9415C39.0771 16.9215 39.3862 17.316 39.2578 18.1247C38.9847 18.5334 38.6754 18.9098 38.3301 19.2542C37.4852 19.5003 37.1108 19.1596 37.207 18.2323C37.5355 17.7451 37.9099 17.3149 38.3301 16.9415Z" fill="#E22334"/>
<path fill-rule="evenodd" clip-rule="evenodd" d="M32.666 35.9804C33.5063 35.9275 33.8156 36.3578 33.5937 37.2712C33.3496 37.5401 33.1055 37.809 32.8613 38.0779C32.0359 38.4224 31.629 38.1175 31.6406 37.1636C31.9365 36.7124 32.2783 36.3181 32.666 35.9804Z" fill="#E22334"/>
<path fill-rule="evenodd" clip-rule="evenodd" d="M4.73633 45.5537C5.59703 45.5688 6.15041 46.0348 6.39649 46.9521C6.33506 47.6115 6.00953 47.8804 5.41993 47.7588C5.08159 47.4939 4.77235 47.1891 4.49219 46.8445C4.25026 46.3248 4.33164 45.8946 4.73633 45.5537Z" fill="#E22334"/>
<path fill-rule="evenodd" clip-rule="evenodd" d="M44.4824 45.5537C45.4246 45.444 45.7339 45.8743 45.4102 46.8445C45.0982 47.2972 44.7076 47.6199 44.2383 47.8126C43.5441 47.6097 43.3488 47.1436 43.6523 46.4142C43.9189 46.1024 44.1955 45.8155 44.4824 45.5537Z" fill="#E22334"/>
</g>
<path d="M6.61596 68.324C6.5743 68.2823 6.55346 68.1938 6.55346 68.0583C6.55346 67.85 6.5743 67.7458 6.61596 67.7458C6.6993 67.7458 6.81909 67.7302 6.97534 67.699C7.13159 67.6677 7.27742 67.6261 7.41284 67.574C7.54826 67.5115 7.62638 67.4542 7.64721 67.4021C7.70971 67.1625 7.74096 66.7042 7.74096 66.0271V60.0583C7.74096 59.4229 7.6993 59.0323 7.61596 58.8865C7.58471 58.824 7.50138 58.7667 7.36596 58.7146C7.24096 58.6521 7.11076 58.6 6.97534 58.5583C6.83992 58.5167 6.73055 58.4958 6.64721 58.4958C6.60555 58.4958 6.58471 58.4073 6.58471 58.2302C6.58471 58.0427 6.59513 57.9386 6.61596 57.9177L8.88159 58.0115C8.98576 58.0219 9.22013 58.0167 9.58471 57.9958C9.9493 57.975 10.4441 57.949 11.0691 57.9177C11.1003 58.0115 11.116 58.1052 11.116 58.199C11.116 58.3969 11.0951 58.4958 11.0535 58.4958C10.991 58.4958 10.8816 58.5167 10.7253 58.5583C10.5691 58.6 10.418 58.6521 10.2722 58.7146C10.1368 58.7667 10.0587 58.8188 10.0378 58.8708C9.99617 59.0063 9.96492 59.1833 9.94409 59.4021C9.93367 59.6104 9.92846 59.85 9.92846 60.1208V66.0427C9.92846 66.5427 9.97013 66.9177 10.0535 67.1677C10.0951 67.3344 10.4493 67.4177 11.116 67.4177H11.5222C12.168 67.4177 12.7514 67.2823 13.2722 67.0115C13.4493 66.9177 13.6472 66.7406 13.866 66.4802C14.0951 66.2198 14.2722 65.9281 14.3972 65.6052C14.418 65.5427 14.491 65.5115 14.616 65.5115C14.866 65.5115 15.0222 65.5427 15.0847 65.6052C14.5639 67.0427 14.2826 67.9386 14.241 68.2927C13.9493 68.2927 13.5691 68.2875 13.1003 68.2771C12.642 68.2771 12.0951 68.2719 11.4597 68.2615C10.8243 68.2511 10.293 68.2406 9.86596 68.2302C9.4493 68.2198 9.12638 68.2198 8.89721 68.2302L6.61596 68.324ZM21.9322 68.3396C21.8697 68.3396 21.8385 68.2458 21.8385 68.0583V67.4802C21.8385 67.3969 21.8176 67.3761 21.776 67.4177C21.5572 67.6469 21.2343 67.8552 20.8072 68.0427C20.3905 68.2302 19.9374 68.324 19.4478 68.324C19.0416 68.324 18.6822 68.199 18.3697 67.949C18.0676 67.699 17.8333 67.3656 17.6666 66.949C17.4999 66.5219 17.4166 66.0531 17.4166 65.5427V64.0271C17.4166 63.4438 17.3228 63.0531 17.1353 62.8552C17.052 62.7511 16.9374 62.6781 16.7916 62.6365C16.6562 62.5948 16.5364 62.5688 16.4322 62.5583C16.328 62.5375 16.276 62.5167 16.276 62.4958C16.276 62.1313 16.302 61.949 16.3541 61.949C16.4478 61.949 16.6197 61.9281 16.8697 61.8865C17.1301 61.8448 17.4114 61.7979 17.7135 61.7458C18.0155 61.6833 18.302 61.6208 18.5728 61.5583C18.8541 61.4854 19.0676 61.4281 19.2135 61.3865C19.2447 61.3761 19.2708 61.3656 19.2916 61.3552C19.3228 61.3448 19.3541 61.3396 19.3853 61.3396C19.4374 61.3396 19.4895 61.3761 19.5416 61.449C19.5937 61.5115 19.6197 61.5636 19.6197 61.6052C19.5676 62.0636 19.526 62.4229 19.4947 62.6833C19.4635 62.9438 19.4478 63.1052 19.4478 63.1677V64.8396C19.4478 65.6521 19.552 66.225 19.7603 66.5583C19.9687 66.8813 20.3176 67.0427 20.8072 67.0427C21.1614 67.0427 21.427 66.9646 21.6041 66.8083C21.7812 66.6417 21.8697 66.4594 21.8697 66.2615V64.0271C21.8697 63.4438 21.776 63.0531 21.5885 62.8552C21.5051 62.7511 21.3905 62.6781 21.2447 62.6365C21.1093 62.5948 20.9895 62.5688 20.8853 62.5583C20.7812 62.5375 20.7291 62.5167 20.7291 62.4958C20.7291 62.1313 20.7551 61.949 20.8072 61.949C20.901 61.949 21.0728 61.9281 21.3228 61.8865C21.5833 61.8448 21.8645 61.7979 22.1666 61.7458C22.4687 61.6833 22.7551 61.6208 23.026 61.5583C23.3072 61.4854 23.5208 61.4281 23.6666 61.3865L23.8385 61.3396C23.8905 61.3396 23.9426 61.3761 23.9947 61.449C24.0468 61.5115 24.0728 61.5636 24.0728 61.6052C24.0208 62.0636 23.9791 62.4229 23.9478 62.6833C23.9166 62.9438 23.901 63.1 23.901 63.1521V66.2146C23.901 66.7667 23.953 67.0948 24.0572 67.199C24.1093 67.2511 24.1926 67.2927 24.3072 67.324C24.4218 67.3448 24.5364 67.3552 24.651 67.3552H24.8072C24.8489 67.3656 24.8697 67.4073 24.8697 67.4802C24.8697 67.7823 24.8385 67.9333 24.776 67.9333C24.1301 67.9958 23.5885 68.0583 23.151 68.1208C22.7239 68.1833 22.3905 68.2406 22.151 68.2927L21.9322 68.3396ZM26.0453 68.324C26.0037 68.2823 25.9828 68.1729 25.9828 67.9958C25.9828 67.8292 26.0037 67.7458 26.0453 67.7458C26.1287 67.7458 26.2433 67.725 26.3891 67.6833C26.5453 67.6313 26.6912 67.574 26.8266 67.5115C26.9724 67.449 27.0505 67.3969 27.061 67.3552C27.1339 67.0636 27.1703 66.6677 27.1703 66.1677V64.0271C27.1703 63.4438 27.0766 63.0531 26.8891 62.8552C26.8058 62.7511 26.6912 62.6781 26.5453 62.6365C26.4099 62.5948 26.2901 62.5688 26.186 62.5583C26.0818 62.5375 26.0297 62.5167 26.0297 62.4958C26.0297 62.1313 26.0558 61.949 26.1078 61.949C26.3787 61.949 26.7641 61.8917 27.2641 61.7771C27.7641 61.6521 28.3318 61.5219 28.9672 61.3865L29.0453 61.3708C29.0558 61.3604 29.0766 61.3552 29.1078 61.3552L29.1391 61.3396C29.1912 61.3396 29.2433 61.3761 29.2953 61.449C29.3578 61.5115 29.3839 61.5636 29.3735 61.6052L29.311 62.0896C29.311 62.1417 29.3162 62.1729 29.3266 62.1833C29.3474 62.1833 29.3839 62.1573 29.436 62.1052C30.0089 61.5636 30.7328 61.2927 31.6078 61.2927C32.212 61.2927 32.7016 61.5479 33.0766 62.0583C33.462 62.5688 33.6547 63.3448 33.6547 64.3865V65.9333C33.6547 66.6208 33.6912 67.0948 33.7641 67.3552C33.7849 67.3969 33.863 67.449 33.9985 67.5115C34.1339 67.574 34.2745 67.6313 34.4203 67.6833C34.5766 67.725 34.686 67.7458 34.7485 67.7458C34.7693 67.7458 34.7849 67.7875 34.7953 67.8708C34.8058 67.9542 34.811 68.0427 34.811 68.1365C34.811 68.2302 34.8005 68.2927 34.7797 68.324C34.7172 68.324 34.5974 68.3136 34.4203 68.2927C34.2433 68.2823 34.0349 68.2719 33.7953 68.2615C33.5662 68.2406 33.3474 68.225 33.1391 68.2146C32.9308 68.2042 32.7641 68.199 32.6391 68.199C32.4724 68.199 32.238 68.2094 31.936 68.2302C31.6443 68.2511 31.363 68.2667 31.0922 68.2771C30.8214 68.2979 30.6443 68.3136 30.561 68.324C30.5193 68.2823 30.4985 68.1729 30.4985 67.9958C30.4985 67.8292 30.5193 67.7458 30.561 67.7458C30.6443 67.7458 30.7537 67.725 30.8891 67.6833C31.0349 67.6313 31.1703 67.574 31.2953 67.5115C31.4308 67.449 31.5037 67.3969 31.5141 67.3552C31.587 67.0636 31.6235 66.6677 31.6235 66.1677V64.7615C31.6235 63.9906 31.5141 63.4438 31.2953 63.1208C31.087 62.7875 30.7485 62.6208 30.2797 62.6208C29.9568 62.6208 29.6964 62.6833 29.4985 62.8083C29.3005 62.9229 29.2016 63.0896 29.2016 63.3083V65.9333C29.2016 66.6208 29.238 67.0948 29.311 67.3552C29.3318 67.3969 29.4047 67.449 29.5297 67.5115C29.6547 67.574 29.7901 67.6313 29.936 67.6833C30.0818 67.725 30.1808 67.7458 30.2328 67.7458C30.2537 67.7458 30.2693 67.7875 30.2797 67.8708C30.2901 67.9542 30.2953 68.0427 30.2953 68.1365C30.2953 68.2302 30.2849 68.2927 30.2641 68.324C30.1808 68.3136 30.0037 68.2979 29.7328 68.2771C29.462 68.2667 29.1755 68.2511 28.8735 68.2302C28.5818 68.2094 28.3526 68.199 28.186 68.199C28.061 68.199 27.8891 68.2042 27.6703 68.2146C27.462 68.225 27.2433 68.2406 27.0141 68.2615C26.7849 68.2719 26.5818 68.2823 26.4047 68.2927C26.2276 68.3136 26.1078 68.324 26.0453 68.324ZM38.7053 71.6677C38.1845 71.6677 37.7105 71.5948 37.2835 71.449C36.8564 71.3136 36.5178 71.1156 36.2678 70.8552C36.0178 70.5948 35.8928 70.2927 35.8928 69.949C35.8928 69.7198 36.0126 69.475 36.2522 69.2146C36.5022 68.9542 36.8095 68.7667 37.1741 68.6521C36.9033 68.5375 36.6585 68.3552 36.4397 68.1052C36.221 67.8448 36.1116 67.5636 36.1116 67.2615C36.1116 67.0011 36.2262 66.7771 36.4553 66.5896C36.6949 66.4021 36.9762 66.2198 37.2991 66.0427C37.1012 65.9281 36.9085 65.7563 36.721 65.5271C36.5335 65.2979 36.3824 65.0375 36.2678 64.7458C36.1533 64.4438 36.096 64.1469 36.096 63.8552C36.096 63.2823 36.2262 62.8031 36.4866 62.4177C36.747 62.0323 37.096 61.7406 37.5335 61.5427C37.9814 61.3448 38.4762 61.2458 39.0178 61.2458C39.4033 61.2458 39.846 61.3136 40.346 61.449C40.596 61.5219 40.8199 61.574 41.0178 61.6052C41.2262 61.6365 41.4033 61.6521 41.5491 61.6521H42.4085C42.4293 61.6521 42.4605 61.699 42.5022 61.7927C42.5543 61.8865 42.6012 61.9854 42.6428 62.0896C42.6845 62.1833 42.7053 62.2563 42.7053 62.3083C42.7053 62.4542 42.6741 62.5271 42.6116 62.5271H41.6897C41.648 62.5375 41.6272 62.5531 41.6272 62.574L41.7522 62.9958C41.7835 63.1313 41.8095 63.2667 41.8303 63.4021C41.8512 63.5375 41.8616 63.6625 41.8616 63.7771C41.8616 64.2146 41.7366 64.6313 41.4866 65.0271C41.247 65.4229 40.9189 65.7511 40.5022 66.0115C40.0855 66.2615 39.6064 66.3865 39.0647 66.3865C38.8564 66.3865 38.6637 66.3813 38.4866 66.3708C38.3095 66.35 38.148 66.3292 38.0022 66.3083C37.8668 66.35 37.7678 66.4229 37.7053 66.5271C37.6533 66.6313 37.6272 66.7146 37.6272 66.7771C37.6272 66.8708 37.7158 66.9438 37.8928 66.9958C38.0387 67.0375 38.2574 67.074 38.5491 67.1052C38.8408 67.1365 39.1324 67.1573 39.4241 67.1677C39.7158 67.1781 39.9397 67.1833 40.096 67.1833C41.7522 67.2563 42.5908 67.8031 42.6116 68.824C42.6116 69.2094 42.497 69.574 42.2678 69.9177C42.0491 70.2615 41.747 70.5636 41.3616 70.824C40.9866 71.0844 40.5647 71.2875 40.096 71.4333C39.6376 71.5896 39.1741 71.6677 38.7053 71.6677ZM39.0022 65.574C39.398 65.574 39.6376 65.4281 39.721 65.1365C39.8043 64.8448 39.846 64.4906 39.846 64.074C39.846 63.4073 39.7835 62.9073 39.6585 62.574C39.5335 62.2406 39.2835 62.074 38.9085 62.074C38.6585 62.074 38.4762 62.1469 38.3616 62.2927C38.247 62.4386 38.1741 62.6261 38.1428 62.8552C38.122 63.0844 38.1116 63.3292 38.1116 63.5896V63.6677C38.1116 64.0011 38.1324 64.3136 38.1741 64.6052C38.2158 64.8969 38.2991 65.1313 38.4241 65.3083C38.5491 65.4854 38.7418 65.574 39.0022 65.574ZM38.971 70.7146C39.5126 70.7146 39.9501 70.6156 40.2835 70.4177C40.6272 70.2198 40.7991 69.9229 40.7991 69.5271C40.7991 69.0583 39.9241 68.824 38.1741 68.824C37.9137 68.8969 37.7158 68.9854 37.5803 69.0896C37.4449 69.1938 37.3772 69.3656 37.3772 69.6052C37.3772 69.9177 37.5387 70.1781 37.8616 70.3865C38.1949 70.6052 38.5647 70.7146 38.971 70.7146Z" fill="#2D0C80" fill-opacity="0.8"/>
<defs>
<clipPath id="clip0_7_86">
<rect width="50" height="55.0732" fill="white"/>
</clipPath>
</defs>
</svg>
