<svg width="179" height="157" viewBox="0 0 179 157" fill="none" xmlns="http://www.w3.org/2000/svg">
<circle cx="88.5" cy="78.5" r="78.5" fill="white" fill-opacity="0.15"/>
<path d="M53.9693 119.23C54.0093 119.23 54.0293 119.27 54.0293 119.35C54.0293 119.43 54.0093 119.47 53.9693 119.47C53.556 119.47 53.2293 119.464 52.9893 119.45L51.6093 119.43L50.1293 119.45C49.9027 119.464 49.5893 119.47 49.1893 119.47C49.1493 119.47 49.1293 119.43 49.1293 119.35C49.1293 119.27 49.1493 119.23 49.1893 119.23C49.7093 119.23 50.0893 119.197 50.3293 119.13C50.5693 119.064 50.7293 118.937 50.8093 118.75C50.9027 118.55 50.9493 118.25 50.9493 117.85V113.17H43.2693V117.85C43.2693 118.25 43.3093 118.55 43.3893 118.75C43.4827 118.937 43.6493 119.064 43.8893 119.13C44.1293 119.197 44.5093 119.23 45.0293 119.23C45.056 119.23 45.0693 119.27 45.0693 119.35C45.0693 119.43 45.056 119.47 45.0293 119.47C44.616 119.47 44.2893 119.464 44.0493 119.45L42.6093 119.43L41.2293 119.45C40.9893 119.464 40.656 119.47 40.2293 119.47C40.2027 119.47 40.1893 119.43 40.1893 119.35C40.1893 119.27 40.2027 119.23 40.2293 119.23C40.736 119.23 41.1093 119.197 41.3493 119.13C41.6027 119.064 41.7693 118.937 41.8493 118.75C41.9427 118.55 41.9893 118.25 41.9893 117.85V108.59C41.9893 108.19 41.9427 107.897 41.8493 107.71C41.7693 107.524 41.6093 107.397 41.3693 107.33C41.1293 107.25 40.756 107.21 40.2493 107.21C40.2227 107.21 40.2093 107.17 40.2093 107.09C40.2093 107.01 40.2227 106.97 40.2493 106.97L41.2693 106.99C41.8293 107.017 42.276 107.03 42.6093 107.03C42.996 107.03 43.4827 107.017 44.0693 106.99L45.0293 106.97C45.056 106.97 45.0693 107.01 45.0693 107.09C45.0693 107.17 45.056 107.21 45.0293 107.21C44.5227 107.21 44.1427 107.25 43.8893 107.33C43.6493 107.41 43.4827 107.55 43.3893 107.75C43.3093 107.937 43.2693 108.23 43.2693 108.63V112.75H50.9493V108.63C50.9493 108.23 50.9027 107.937 50.8093 107.75C50.7293 107.55 50.5693 107.41 50.3293 107.33C50.0893 107.25 49.7093 107.21 49.1893 107.21C49.1493 107.21 49.1293 107.17 49.1293 107.09C49.1293 107.01 49.1493 106.97 49.1893 106.97L50.1293 106.99C50.716 107.017 51.2093 107.03 51.6093 107.03C51.9693 107.03 52.4293 107.017 52.9893 106.99L53.9693 106.97C54.0093 106.97 54.0293 107.01 54.0293 107.09C54.0293 107.17 54.0093 107.21 53.9693 107.21C53.4627 107.21 53.0893 107.25 52.8493 107.33C52.6093 107.397 52.4427 107.524 52.3493 107.71C52.2693 107.897 52.2293 108.19 52.2293 108.59V117.85C52.2293 118.25 52.2693 118.55 52.3493 118.75C52.4427 118.937 52.6093 119.064 52.8493 119.13C53.0893 119.197 53.4627 119.23 53.9693 119.23ZM62.2951 118.35C62.3351 118.35 62.3685 118.377 62.3951 118.43C62.4351 118.47 62.4418 118.51 62.4151 118.55C61.5351 119.324 60.5618 119.71 59.4951 119.71C58.7218 119.71 58.0618 119.53 57.5151 119.17C56.9685 118.81 56.5485 118.337 56.2551 117.75C55.9751 117.164 55.8351 116.537 55.8351 115.87C55.8351 115.084 56.0218 114.364 56.3951 113.71C56.7685 113.044 57.2751 112.524 57.9151 112.15C58.5685 111.764 59.2818 111.57 60.0551 111.57C60.8018 111.57 61.3751 111.77 61.7751 112.17C62.1751 112.57 62.3751 113.13 62.3751 113.85C62.3751 114.037 62.3551 114.17 62.3151 114.25C62.2885 114.33 62.2351 114.37 62.1551 114.37L57.1951 114.39C57.1685 114.684 57.1551 114.924 57.1551 115.11C57.1551 116.27 57.4285 117.21 57.9751 117.93C58.5218 118.65 59.2885 119.01 60.2751 119.01C60.6751 119.01 61.0151 118.957 61.2951 118.85C61.5885 118.744 61.9151 118.577 62.2751 118.35H62.2951ZM59.3951 111.97C58.8218 111.97 58.3485 112.164 57.9751 112.55C57.6018 112.924 57.3551 113.45 57.2351 114.13L61.0351 114.05C61.0351 113.37 60.8885 112.857 60.5951 112.51C60.3018 112.15 59.9018 111.97 59.3951 111.97ZM71.8915 118.39C71.9449 118.39 71.9782 118.424 71.9915 118.49C72.0049 118.544 71.9849 118.584 71.9315 118.61L69.8715 119.59C69.8182 119.617 69.7649 119.63 69.7115 119.63C69.5382 119.63 69.3849 119.517 69.2515 119.29C69.1182 119.05 69.0315 118.73 68.9915 118.33L67.9515 119.01C67.6182 119.224 67.3249 119.377 67.0715 119.47C66.8182 119.564 66.5515 119.61 66.2715 119.61C65.7782 119.61 65.3915 119.484 65.1115 119.23C64.8449 118.964 64.7115 118.63 64.7115 118.23C64.7115 117.83 64.8715 117.484 65.1915 117.19C65.5115 116.897 66.0382 116.617 66.7715 116.35L68.9715 115.53V114.17C68.9715 112.677 68.5515 111.93 67.7115 111.93C67.2582 111.93 66.9115 112.084 66.6715 112.39C66.4449 112.684 66.2915 113.024 66.2115 113.41C66.1715 113.65 66.0982 113.85 65.9915 114.01C65.8849 114.157 65.7049 114.23 65.4515 114.23C65.2382 114.23 65.0715 114.17 64.9515 114.05C64.8449 113.93 64.7915 113.79 64.7915 113.63C64.7915 113.31 64.9982 112.99 65.4115 112.67C65.8249 112.35 66.3182 112.084 66.8915 111.87C67.4649 111.657 67.9782 111.55 68.4315 111.55C68.9782 111.55 69.3915 111.724 69.6715 112.07C69.9515 112.417 70.0915 112.917 70.0915 113.57V117.31C70.0915 117.777 70.1515 118.117 70.2715 118.33C70.3915 118.544 70.5915 118.65 70.8715 118.65C71.1249 118.65 71.4515 118.564 71.8515 118.39H71.8915ZM68.9715 118.05V117.95V115.81L67.1115 116.53C66.7382 116.677 66.4649 116.85 66.2915 117.05C66.1315 117.237 66.0515 117.464 66.0515 117.73C66.0515 118.05 66.1515 118.324 66.3515 118.55C66.5649 118.764 66.8382 118.87 67.1715 118.87C67.4382 118.87 67.7582 118.764 68.1315 118.55L68.9715 118.05ZM73.1804 119.47C73.1404 119.47 73.1204 119.43 73.1204 119.35C73.1204 119.27 73.1404 119.23 73.1804 119.23C73.5404 119.23 73.8071 119.197 73.9804 119.13C74.1538 119.05 74.2738 118.917 74.3404 118.73C74.4071 118.53 74.4404 118.237 74.4404 117.85V107.51C74.4404 107.03 74.3938 106.684 74.3004 106.47C74.2071 106.257 74.0404 106.15 73.8004 106.15C73.6004 106.15 73.2938 106.244 72.8804 106.43H72.8404C72.8004 106.43 72.7671 106.397 72.7404 106.33C72.7271 106.264 72.7404 106.224 72.7804 106.21L75.3404 104.99C75.3671 104.977 75.4004 104.97 75.4404 104.97C75.4671 104.97 75.5004 104.99 75.5404 105.03C75.5938 105.057 75.6204 105.09 75.6204 105.13V117.85C75.6204 118.237 75.6471 118.524 75.7004 118.71C75.7671 118.897 75.8871 119.03 76.0604 119.11C76.2338 119.19 76.5004 119.23 76.8604 119.23C76.9004 119.23 76.9204 119.27 76.9204 119.35C76.9204 119.43 76.9004 119.47 76.8604 119.47C76.5671 119.47 76.3271 119.464 76.1404 119.45L75.0204 119.43L73.9404 119.45C73.7538 119.464 73.5004 119.47 73.1804 119.47ZM84.1667 118.43C84.22 118.43 84.26 118.464 84.2867 118.53C84.3134 118.584 84.3067 118.624 84.2667 118.65C83.7734 119.037 83.3267 119.31 82.9267 119.47C82.54 119.63 82.1334 119.71 81.7067 119.71C81.1467 119.71 80.6867 119.584 80.3267 119.33C79.9667 119.077 79.7867 118.657 79.7867 118.07V113.37C79.7867 113.024 79.76 112.777 79.7067 112.63C79.6667 112.484 79.58 112.39 79.4467 112.35C79.3134 112.297 79.0867 112.27 78.7667 112.27C78.7134 112.27 78.6867 112.23 78.6867 112.15C78.6867 112.057 78.7134 112.01 78.7667 112.01C79.3 111.997 79.7334 111.857 80.0667 111.59C80.4 111.31 80.5934 110.944 80.6467 110.49C80.6467 110.45 80.7 110.43 80.8067 110.43C80.9 110.43 80.9467 110.45 80.9467 110.49V111.97C81.6134 111.957 82.54 111.89 83.7267 111.77C83.7534 111.77 83.78 111.824 83.8067 111.93C83.8467 112.024 83.8667 112.13 83.8667 112.25C83.8667 112.357 83.84 112.47 83.7867 112.59C83.7467 112.697 83.7 112.744 83.6467 112.73C82.9134 112.544 82.0134 112.437 80.9467 112.41V117.39C80.9467 117.937 81.08 118.344 81.3467 118.61C81.6267 118.877 82.02 119.01 82.5267 119.01C83.1134 119.01 83.6467 118.824 84.1267 118.45L84.1667 118.43ZM94.6545 119.23C94.6945 119.23 94.7145 119.27 94.7145 119.35C94.7145 119.43 94.6945 119.47 94.6545 119.47C94.3478 119.47 94.1012 119.464 93.9145 119.45L92.8345 119.43L91.7545 119.45C91.5678 119.464 91.3212 119.47 91.0145 119.47C90.9745 119.47 90.9545 119.43 90.9545 119.35C90.9545 119.27 90.9745 119.23 91.0145 119.23C91.3745 119.23 91.6412 119.197 91.8145 119.13C91.9878 119.05 92.1078 118.917 92.1745 118.73C92.2412 118.53 92.2745 118.237 92.2745 117.85V114.67C92.2745 113.884 92.1212 113.304 91.8145 112.93C91.5212 112.544 91.0612 112.35 90.4345 112.35C90.0212 112.35 89.6012 112.464 89.1745 112.69C88.7478 112.904 88.3612 113.204 88.0145 113.59V117.85C88.0145 118.237 88.0478 118.53 88.1145 118.73C88.1812 118.917 88.3012 119.05 88.4745 119.13C88.6478 119.197 88.9145 119.23 89.2745 119.23C89.3145 119.23 89.3345 119.27 89.3345 119.35C89.3345 119.43 89.3145 119.47 89.2745 119.47C88.9678 119.47 88.7212 119.464 88.5345 119.45L87.4545 119.43L86.3745 119.45C86.1878 119.464 85.9412 119.47 85.6345 119.47C85.5945 119.47 85.5745 119.43 85.5745 119.35C85.5745 119.27 85.5945 119.23 85.6345 119.23C85.9945 119.23 86.2612 119.197 86.4345 119.13C86.6078 119.05 86.7278 118.917 86.7945 118.73C86.8612 118.53 86.8945 118.237 86.8945 117.85V107.51C86.8945 107.03 86.8478 106.684 86.7545 106.47C86.6612 106.257 86.4945 106.15 86.2545 106.15C86.0545 106.15 85.7478 106.244 85.3345 106.43H85.2945C85.2545 106.43 85.2212 106.397 85.1945 106.33C85.1678 106.264 85.1812 106.224 85.2345 106.21L87.7745 104.97H87.8345C87.8878 104.97 87.9278 104.99 87.9545 105.03C87.9945 105.057 88.0145 105.09 88.0145 105.13V113.25C88.5212 112.664 89.0212 112.237 89.5145 111.97C90.0212 111.69 90.5478 111.55 91.0945 111.55C91.8278 111.55 92.3945 111.757 92.7945 112.17C93.1945 112.584 93.3945 113.184 93.3945 113.97V117.85C93.3945 118.237 93.4278 118.53 93.4945 118.73C93.5612 118.917 93.6812 119.05 93.8545 119.13C94.0278 119.197 94.2945 119.23 94.6545 119.23ZM103.502 109.31C103.502 109.83 103.629 110.284 103.882 110.67C104.136 111.057 104.442 111.384 104.802 111.65C105.176 111.904 105.682 112.224 106.322 112.61C107.029 113.037 107.569 113.39 107.942 113.67C108.329 113.95 108.656 114.31 108.922 114.75C109.202 115.177 109.342 115.69 109.342 116.29C109.342 116.93 109.182 117.51 108.862 118.03C108.542 118.55 108.069 118.964 107.442 119.27C106.829 119.564 106.089 119.71 105.222 119.71C104.196 119.71 103.256 119.477 102.402 119.01C102.336 118.97 102.289 118.924 102.262 118.87C102.249 118.817 102.236 118.737 102.222 118.63L101.962 115.91C101.949 115.857 101.976 115.824 102.042 115.81C102.122 115.797 102.169 115.817 102.182 115.87C102.396 116.83 102.789 117.657 103.362 118.35C103.949 119.044 104.722 119.39 105.682 119.39C106.349 119.39 106.909 119.21 107.362 118.85C107.829 118.477 108.062 117.89 108.062 117.09C108.062 116.49 107.929 115.97 107.662 115.53C107.396 115.09 107.069 114.73 106.682 114.45C106.309 114.157 105.796 113.817 105.142 113.43C104.502 113.044 103.996 112.71 103.622 112.43C103.262 112.15 102.956 111.797 102.702 111.37C102.449 110.944 102.322 110.444 102.322 109.87C102.322 109.204 102.496 108.637 102.842 108.17C103.202 107.69 103.662 107.337 104.222 107.11C104.796 106.87 105.402 106.75 106.042 106.75C106.829 106.75 107.609 106.91 108.382 107.23C108.582 107.297 108.682 107.41 108.682 107.57L108.822 109.87C108.822 109.924 108.789 109.95 108.722 109.95C108.656 109.95 108.616 109.924 108.602 109.87C108.496 109.177 108.209 108.537 107.742 107.95C107.276 107.35 106.602 107.05 105.722 107.05C104.976 107.05 104.416 107.27 104.042 107.71C103.682 108.137 103.502 108.67 103.502 109.31ZM115.457 119.71C114.59 119.71 113.863 119.524 113.277 119.15C112.69 118.764 112.257 118.27 111.977 117.67C111.697 117.07 111.557 116.437 111.557 115.77C111.557 114.917 111.77 114.177 112.197 113.55C112.623 112.91 113.17 112.424 113.837 112.09C114.517 111.744 115.21 111.57 115.917 111.57C116.503 111.57 117.037 111.69 117.517 111.93C118.01 112.157 118.257 112.444 118.257 112.79C118.257 112.964 118.19 113.117 118.057 113.25C117.937 113.37 117.77 113.43 117.557 113.43C117.197 113.43 116.903 113.21 116.677 112.77C116.503 112.504 116.317 112.304 116.117 112.17C115.917 112.037 115.63 111.97 115.257 111.97C114.51 111.97 113.923 112.264 113.497 112.85C113.083 113.424 112.877 114.197 112.877 115.17C112.877 116.29 113.157 117.21 113.717 117.93C114.277 118.65 115.117 119.01 116.237 119.01C117.05 119.01 117.73 118.79 118.277 118.35H118.297C118.337 118.35 118.37 118.37 118.397 118.41C118.437 118.45 118.443 118.484 118.417 118.51C117.95 118.924 117.477 119.23 116.997 119.43C116.53 119.617 116.017 119.71 115.457 119.71ZM127.672 118.39C127.725 118.39 127.758 118.424 127.772 118.49C127.785 118.544 127.765 118.584 127.712 118.61L125.652 119.59C125.598 119.617 125.545 119.63 125.492 119.63C125.318 119.63 125.165 119.517 125.032 119.29C124.898 119.05 124.812 118.73 124.772 118.33L123.732 119.01C123.398 119.224 123.105 119.377 122.852 119.47C122.598 119.564 122.332 119.61 122.052 119.61C121.558 119.61 121.172 119.484 120.892 119.23C120.625 118.964 120.492 118.63 120.492 118.23C120.492 117.83 120.652 117.484 120.972 117.19C121.292 116.897 121.818 116.617 122.552 116.35L124.752 115.53V114.17C124.752 112.677 124.332 111.93 123.492 111.93C123.038 111.93 122.692 112.084 122.452 112.39C122.225 112.684 122.072 113.024 121.992 113.41C121.952 113.65 121.878 113.85 121.772 114.01C121.665 114.157 121.485 114.23 121.232 114.23C121.018 114.23 120.852 114.17 120.732 114.05C120.625 113.93 120.572 113.79 120.572 113.63C120.572 113.31 120.778 112.99 121.192 112.67C121.605 112.35 122.098 112.084 122.672 111.87C123.245 111.657 123.758 111.55 124.212 111.55C124.758 111.55 125.172 111.724 125.452 112.07C125.732 112.417 125.872 112.917 125.872 113.57V117.31C125.872 117.777 125.932 118.117 126.052 118.33C126.172 118.544 126.372 118.65 126.652 118.65C126.905 118.65 127.232 118.564 127.632 118.39H127.672ZM124.752 118.05V117.95V115.81L122.892 116.53C122.518 116.677 122.245 116.85 122.072 117.05C121.912 117.237 121.832 117.464 121.832 117.73C121.832 118.05 121.932 118.324 122.132 118.55C122.345 118.764 122.618 118.87 122.952 118.87C123.218 118.87 123.538 118.764 123.912 118.55L124.752 118.05ZM138.061 119.23C138.101 119.23 138.121 119.27 138.121 119.35C138.121 119.43 138.101 119.47 138.061 119.47C137.754 119.47 137.514 119.464 137.341 119.45L136.261 119.43L135.161 119.45C134.987 119.464 134.747 119.47 134.441 119.47C134.401 119.47 134.381 119.43 134.381 119.35C134.381 119.27 134.401 119.23 134.441 119.23C134.801 119.23 135.067 119.197 135.241 119.13C135.414 119.05 135.527 118.917 135.581 118.73C135.647 118.544 135.681 118.25 135.681 117.85V114.61C135.681 113.824 135.527 113.244 135.221 112.87C134.927 112.497 134.467 112.31 133.841 112.31C133.427 112.31 133.007 112.424 132.581 112.65C132.167 112.864 131.787 113.164 131.441 113.55V117.85C131.441 118.25 131.467 118.544 131.521 118.73C131.587 118.917 131.707 119.05 131.881 119.13C132.054 119.197 132.321 119.23 132.681 119.23C132.721 119.23 132.741 119.27 132.741 119.35C132.741 119.43 132.721 119.47 132.681 119.47C132.374 119.47 132.134 119.464 131.961 119.45L130.881 119.43L129.781 119.45C129.607 119.464 129.367 119.47 129.061 119.47C129.021 119.47 129.001 119.43 129.001 119.35C129.001 119.27 129.021 119.23 129.061 119.23C129.421 119.23 129.687 119.197 129.861 119.13C130.034 119.05 130.147 118.917 130.201 118.73C130.267 118.544 130.301 118.25 130.301 117.85V113.89C130.301 113.437 130.247 113.11 130.141 112.91C130.034 112.71 129.854 112.61 129.601 112.61C129.387 112.61 129.027 112.71 128.521 112.91H128.481C128.427 112.91 128.387 112.884 128.361 112.83C128.347 112.764 128.367 112.717 128.421 112.69L130.741 111.59L130.861 111.57C130.981 111.57 131.107 111.724 131.241 112.03C131.374 112.337 131.441 112.73 131.441 113.21C131.947 112.624 132.447 112.19 132.941 111.91C133.447 111.63 133.967 111.49 134.501 111.49C135.247 111.49 135.821 111.697 136.221 112.11C136.621 112.524 136.821 113.13 136.821 113.93V117.85C136.821 118.25 136.847 118.544 136.901 118.73C136.967 118.917 137.087 119.05 137.261 119.13C137.434 119.197 137.701 119.23 138.061 119.23Z" fill="#2D0C57"/>
<path opacity="0.989" fill-rule="evenodd" clip-rule="evenodd" d="M114.463 49.0449C111.728 49.0677 108.994 49.0449 106.26 48.9766C104.465 48.8241 102.734 48.414 101.064 47.7461C97.851 47.7231 94.661 47.6548 91.4941 47.541C94.4564 47.541 97.4186 47.541 100.381 47.541C103.617 47.541 106.852 47.541 110.088 47.541C110.224 45.2407 110.27 42.9165 110.225 40.5683C110.225 38.9277 110.225 37.2871 110.225 35.6465C103.936 35.6465 97.6465 35.6465 91.3574 35.6465C91.3574 36.4212 91.3574 37.1959 91.3574 37.9707C90.9432 37.1612 90.6469 36.2952 90.4688 35.373C90.2232 34.0611 90.0637 32.7395 89.9902 31.4082C90.3092 31.4082 90.6283 31.4082 90.9473 31.4082C90.9244 29.0835 90.9473 26.7593 91.0156 24.4355C91.7591 23.6764 92.4427 23.722 93.0664 24.5723C93.1348 26.8504 93.1576 29.1291 93.1348 31.4082C98.2389 31.4082 103.343 31.4082 108.447 31.4082C108.424 29.1747 108.447 26.9416 108.516 24.709C109.076 23.7375 109.76 23.6463 110.566 24.4355C110.612 24.6178 110.658 24.8001 110.703 24.9824C110.771 27.1239 110.794 29.2658 110.771 31.4082C111.65 31.3577 112.516 31.426 113.369 31.6133C113.823 31.9485 114.165 32.3814 114.395 32.9121C114.463 38.2895 114.486 43.6671 114.463 49.0449Z" fill="#5D5A67"/>
<path opacity="0.998" fill-rule="evenodd" clip-rule="evenodd" d="M89.9902 31.4083C90.0637 32.7396 90.2232 34.0612 90.4688 35.3731C90.6469 36.2953 90.9432 37.1612 91.3574 37.9708C91.3574 38.8366 91.3574 39.7026 91.3574 40.5684C91.3123 42.9166 91.3578 45.2408 91.4941 47.5411C94.661 47.6548 97.851 47.7232 101.064 47.7461C102.734 48.414 104.465 48.8242 106.26 48.9766C108.994 49.045 111.728 49.0678 114.463 49.045C114.668 50.4362 114.121 51.3706 112.822 51.8477C104.801 51.9389 96.7806 51.9389 88.7598 51.8477C87.9623 51.5971 87.4381 51.0729 87.1875 50.2754C87.0963 44.5333 87.0963 38.7911 87.1875 33.0489C87.6626 31.7508 88.5968 31.2039 89.9902 31.4083Z" fill="#54525D"/>
<path fill-rule="evenodd" clip-rule="evenodd" d="M110.088 40.5684C108.514 40.5235 106.964 40.569 105.439 40.7051C105.142 40.7516 104.891 40.8883 104.688 41.1152C104.144 40.2761 103.575 39.4557 102.979 38.6543C102.169 38.3217 101.599 38.5494 101.27 39.3379C100.977 40.169 100.658 40.9893 100.312 41.7988C99.7201 40.4772 99.1276 39.1556 98.5352 37.834C97.8568 37.4035 97.2644 37.4946 96.7578 38.1074C96.2604 38.9008 95.7364 39.6756 95.1855 40.4316C93.9585 40.5681 92.728 40.6137 91.4941 40.5684C91.4941 38.9733 91.4941 37.3783 91.4941 35.7832C97.692 35.7832 103.89 35.7832 110.088 35.7832C110.088 37.3783 110.088 38.9733 110.088 40.5684Z" fill="#FE4823"/>
<path fill-rule="evenodd" clip-rule="evenodd" d="M110.225 40.5684C110.179 40.5684 110.133 40.5684 110.088 40.5684C110.088 38.9733 110.088 37.3783 110.088 35.7832C103.89 35.7832 97.692 35.7832 91.4941 35.7832C91.4941 37.3783 91.4941 38.9733 91.4941 40.5684C91.4486 40.5684 91.4029 40.5684 91.3574 40.5684C91.3574 39.7025 91.3574 38.8365 91.3574 37.9707C91.3574 37.1959 91.3574 36.4212 91.3574 35.6465C97.6465 35.6465 103.936 35.6465 110.225 35.6465C110.225 37.2871 110.225 38.9277 110.225 40.5684Z" fill="#AC5144"/>
<path fill-rule="evenodd" clip-rule="evenodd" d="M105.439 40.7051C106.989 40.7051 108.538 40.7051 110.088 40.7051C110.088 41.3887 110.088 42.0723 110.088 42.7558C108.766 42.7332 107.444 42.7558 106.123 42.8242C105.798 43.103 105.525 43.4219 105.303 43.7812C104.631 44.1349 104.061 44.0209 103.594 43.4394C103.275 42.9381 102.956 42.4369 102.637 41.9355C102.154 43.064 101.699 44.2033 101.27 45.3535C100.677 46.0826 100.085 46.0826 99.4922 45.3535C98.8666 43.8748 98.2058 42.4164 97.5098 40.9785C97.0933 41.3729 96.7515 41.8286 96.4844 42.3457C96.3025 42.4936 96.0975 42.5848 95.8691 42.6191C94.4108 42.6191 92.9525 42.6191 91.4941 42.6191C91.4941 41.9355 91.4941 41.2519 91.4941 40.5683C92.728 40.6137 93.9585 40.5681 95.1855 40.4316C95.7364 39.6756 96.2604 38.9008 96.7578 38.1074C97.2644 37.4946 97.8568 37.4034 98.5352 37.834C99.1276 39.1556 99.7201 40.4772 100.312 41.7988C100.658 40.9893 100.977 40.169 101.27 39.3379C101.599 38.5494 102.169 38.3216 102.979 38.6543C103.575 39.4557 104.144 40.276 104.688 41.1152C104.891 40.8883 105.142 40.7515 105.439 40.7051Z" fill="#E5E5EA"/>
<path fill-rule="evenodd" clip-rule="evenodd" d="M105.439 40.705C106.964 40.569 108.514 40.5235 110.088 40.5683C110.133 40.5683 110.179 40.5683 110.225 40.5683C110.27 42.9165 110.224 45.2407 110.088 47.541C110.088 45.9459 110.088 44.3509 110.088 42.7558C110.088 42.0722 110.088 41.3886 110.088 40.705C108.538 40.705 106.989 40.705 105.439 40.705Z" fill="#CF8479"/>
<path fill-rule="evenodd" clip-rule="evenodd" d="M110.088 42.7559C110.088 44.351 110.088 45.9459 110.088 47.541C106.852 47.541 103.617 47.541 100.381 47.541C99.0446 46.8496 97.7686 46.052 96.5527 45.1484C95.6585 44.4594 94.8837 43.6618 94.2285 42.7559C94.803 42.7992 95.3499 42.7535 95.8691 42.6191C96.0975 42.5848 96.3025 42.4936 96.4844 42.3457C96.7515 41.8286 97.0933 41.3729 97.5098 40.9785C98.2058 42.4164 98.8666 43.8748 99.4922 45.3535C100.085 46.0826 100.677 46.0826 101.27 45.3535C101.699 44.2033 102.154 43.064 102.637 41.9355C102.956 42.4369 103.275 42.9381 103.594 43.4395C104.061 44.0209 104.631 44.1349 105.303 43.7812C105.525 43.422 105.798 43.103 106.123 42.8242C107.444 42.7559 108.766 42.7332 110.088 42.7559Z" fill="#FE4824"/>
<path fill-rule="evenodd" clip-rule="evenodd" d="M91.3574 40.5684C91.4029 40.5684 91.4486 40.5684 91.4941 40.5684C91.4941 41.252 91.4941 41.9355 91.4941 42.6191C92.9525 42.6191 94.4108 42.6191 95.8691 42.6191C95.3499 42.7535 94.803 42.7992 94.2285 42.7559C93.317 42.7559 92.4056 42.7559 91.4941 42.7559C91.4941 44.351 91.4941 45.9459 91.4941 47.541C91.3578 45.2407 91.3123 42.9165 91.3574 40.5684Z" fill="#BD7A71"/>
<path fill-rule="evenodd" clip-rule="evenodd" d="M94.2285 42.7559C94.8837 43.6618 95.6585 44.4594 96.5527 45.1484C97.7686 46.052 99.0446 46.8496 100.381 47.541C97.4186 47.541 94.4564 47.541 91.4941 47.541C91.4941 45.9459 91.4941 44.351 91.4941 42.7559C92.4056 42.7559 93.317 42.7559 94.2285 42.7559Z" fill="#E64120"/>
<path opacity="0.985" fill-rule="evenodd" clip-rule="evenodd" d="M65.1074 46.1738C63.3755 46.6467 61.9399 47.6037 60.8008 49.0449C58.4538 52.4564 57.0866 56.2389 56.6992 60.3925C56.0698 65.7938 56.7078 71.0346 58.6133 76.1152C59.4404 78.2173 60.6936 80.0174 62.373 81.5156C62.9958 81.9866 63.6794 82.3512 64.4238 82.6093C66.3373 82.6777 68.2514 82.7005 70.166 82.6777C70.4278 82.6389 70.6556 82.6844 70.8496 82.8144C67.6989 82.8572 64.5544 82.8116 61.416 82.6777C61.3248 82.6777 61.2337 82.6777 61.1425 82.6777C59.1611 81.8325 57.6344 80.4653 56.5625 78.5761C54.2648 74.1704 53.1483 69.4764 53.2129 64.4941C53.1444 59.6186 54.2154 55.0158 56.4258 50.6855C57.5885 48.5651 59.2975 47.0841 61.5527 46.2421C62.7367 46.1738 63.9216 46.1511 65.1074 46.1738Z" fill="#99A1AA"/>
<path opacity="0.999" fill-rule="evenodd" clip-rule="evenodd" d="M65.1074 46.1738C66.976 46.1738 68.8444 46.1738 70.7129 46.1738C68.3987 46.9356 66.6442 48.394 65.4492 50.5488C62.738 55.8322 61.6898 61.4377 62.3047 67.3652C62.3982 68.0929 62.4666 68.8221 62.5098 69.5527C63.9225 69.5527 65.3354 69.5527 66.7481 69.5527C66.9303 70.1908 67.1127 70.8287 67.2949 71.4668C65.8583 71.558 64.4001 71.649 62.9199 71.7402C63.4529 74.091 64.296 76.324 65.4492 78.4395C66.5341 80.4139 68.1064 81.8267 70.166 82.6777C68.2514 82.7006 66.3374 82.6777 64.4239 82.6094C63.6794 82.3512 62.9959 81.9866 62.3731 81.5156C60.6937 80.0175 59.4404 78.2173 58.6133 76.1152C56.7079 71.0346 56.0699 65.7938 56.6992 60.3926C57.0866 56.2389 58.4538 52.4565 60.8008 49.0449C61.94 47.6038 63.3755 46.6467 65.1074 46.1738Z" fill="#AAB2BD"/>
<path opacity="0.997" fill-rule="evenodd" clip-rule="evenodd" d="M70.7129 46.1739C72.4771 45.9797 74.0267 46.4582 75.3613 47.6094C77.042 49.2597 78.2953 51.1966 79.1211 53.42C80.0135 55.8542 80.5832 58.3607 80.8301 60.9395C79.4362 60.0587 77.9778 59.922 76.4551 60.5293C76.2047 58.2517 75.4528 56.1553 74.1992 54.2403C72.1788 51.9571 70.3103 52.0938 68.5937 54.6504C67.5565 56.4409 66.8729 58.355 66.543 60.3926C66.0536 63.4602 66.122 66.5136 66.748 69.5528C65.3353 69.5528 63.9225 69.5528 62.5098 69.5528C62.4666 68.8221 62.3982 68.0929 62.3047 67.3653C61.6897 61.4377 62.7379 55.8322 65.4492 50.5489C66.6441 48.394 68.3986 46.9357 70.7129 46.1739Z" fill="#E5E8ED"/>
<path fill-rule="evenodd" clip-rule="evenodd" d="M76.4551 60.5294C76.2046 60.6316 75.9767 60.7683 75.7715 60.9395C73.5669 62.6575 73.1339 64.7538 74.4727 67.2286C74.9501 68.0027 75.6109 68.5495 76.4551 68.8692C76.4668 69.0054 76.4212 69.1193 76.3184 69.211C75.4536 69.2794 74.5878 69.302 73.7207 69.2794C72.6971 69.3217 71.9907 69.8231 71.6016 70.7833C71.4781 72.2497 71.5238 73.7081 71.7383 75.1583C71.9203 75.4995 72.1709 75.7729 72.4902 75.9786C72.2228 76.2586 71.881 76.3953 71.4649 76.3887C70.2072 76.1348 69.2501 75.4512 68.5938 74.3379C68.0807 73.4039 67.6477 72.4469 67.2949 71.4669C67.1127 70.8288 66.9303 70.1909 66.7481 69.5528C66.122 66.5137 66.0537 63.4602 66.543 60.3926C66.8729 58.355 67.5565 56.4409 68.5938 54.6504C70.3103 52.0938 72.1788 51.9571 74.1992 54.2403C75.4528 56.1553 76.2048 58.2518 76.4551 60.5294Z" fill="#FEFEFE"/>
<path opacity="0.996" fill-rule="evenodd" clip-rule="evenodd" d="M80.8301 60.9394C81.794 61.4968 82.4319 62.3171 82.7441 63.4003C82.7668 64.1764 82.744 64.9511 82.6758 65.7246C82.6471 65.9376 82.5787 66.1198 82.4707 66.2714C79.3841 67.5865 77.1738 66.7206 75.8398 63.6738C75.6076 62.7654 75.5847 61.8539 75.7715 60.9394C75.9767 60.7682 76.2046 60.6315 76.4551 60.5293C77.9779 59.9219 79.4362 60.0587 80.8301 60.9394Z" fill="#FDC203"/>
<path fill-rule="evenodd" clip-rule="evenodd" d="M75.7715 60.9395C75.5847 61.854 75.6076 62.7655 75.8398 63.6738C77.1738 66.7206 79.3841 67.5866 82.4707 66.2715C81.8754 67.8689 80.7361 68.8259 79.0527 69.1426C78.1509 69.3669 77.2851 69.2757 76.4551 68.8691C75.6108 68.5495 74.9501 68.0026 74.4726 67.2285C73.1339 64.7538 73.5669 62.6575 75.7715 60.9395Z" fill="#E5AF07"/>
<path opacity="0.985" fill-rule="evenodd" clip-rule="evenodd" d="M112.549 66.4082C104.346 66.431 96.1424 66.4082 87.9395 66.3398C86.244 65.8053 85.3326 64.6432 85.2051 62.8535C88.4066 61.8396 91.6879 61.2471 95.0488 61.0762C97.0317 61.1414 98.9913 61.392 100.928 61.8281C103.973 62.6014 107.027 63.3305 110.088 64.0156C111.161 64.5648 111.981 65.3623 112.549 66.4082Z" fill="#0099FE"/>
<path opacity="0.999" fill-rule="evenodd" clip-rule="evenodd" d="M85.2051 62.8535C85.3326 64.6432 86.244 65.8053 87.9395 66.3398C96.1424 66.4082 104.346 66.431 112.549 66.4082C113.066 67.2325 113.34 68.1438 113.369 69.1426C101.93 69.3248 90.4916 69.3248 79.0527 69.1426C80.7362 68.8259 81.8754 67.8689 82.4707 66.2715C82.5787 66.1199 82.6471 65.9376 82.6758 65.7246C82.744 64.9512 82.7668 64.1764 82.7441 63.4004C83.5645 63.2181 84.3848 63.0358 85.2051 62.8535Z" fill="#038BE5"/>
<path opacity="0.999" fill-rule="evenodd" clip-rule="evenodd" d="M76.4551 68.8691C77.2851 69.2757 78.1509 69.3669 79.0527 69.1426C90.4916 69.3248 101.93 69.3248 113.369 69.1426C114.382 69.095 115.384 69.1634 116.377 69.3477C117.136 69.7406 117.569 70.3558 117.676 71.1934C117.744 72.1036 117.767 73.0151 117.744 73.9277C103.616 73.9506 89.4889 73.9277 75.3613 73.8594C74.6094 73.5631 74.0853 73.0391 73.7891 72.2871C73.7207 71.2855 73.698 70.2829 73.7207 69.2793C74.5878 69.302 75.4536 69.2793 76.3184 69.2109C76.4212 69.1192 76.4668 69.0053 76.4551 68.8691Z" fill="#E5E8ED"/>
<path opacity="0.992" fill-rule="evenodd" clip-rule="evenodd" d="M73.7207 69.2793C73.698 70.2829 73.7207 71.2855 73.7891 72.2871C74.0853 73.0391 74.6094 73.5631 75.3613 73.8594C89.4889 73.9277 103.616 73.9506 117.744 73.9277C117.743 75.0486 117.241 75.846 116.24 76.3203C113.461 76.3887 110.681 76.4115 107.9 76.3887C105.622 76.3887 103.343 76.3887 101.064 76.3887C99.8795 76.3887 98.6947 76.3887 97.5098 76.3887C91.2662 76.3887 85.0228 76.3887 78.7793 76.3887C76.9102 76.4115 75.0418 76.3887 73.1738 76.3203C72.907 76.2703 72.6792 76.1564 72.4902 75.9785C72.1709 75.7729 71.9203 75.4995 71.7383 75.1582C71.5238 73.708 71.4781 72.2496 71.6016 70.7832C71.9907 69.823 72.6971 69.3217 73.7207 69.2793Z" fill="#CED1D6"/>
<path opacity="0.997" fill-rule="evenodd" clip-rule="evenodd" d="M67.2949 71.4668C67.6477 72.4468 68.0806 73.4038 68.5938 74.3379C69.2501 75.4512 70.2072 76.1348 71.4648 76.3887C71.881 76.3952 72.2228 76.2585 72.4902 75.9785C72.6792 76.1564 72.907 76.2703 73.1738 76.3203C75.0418 76.3887 76.9102 76.4115 78.7793 76.3887C77.9012 78.5193 76.5795 80.3193 74.8145 81.7891C74.1251 82.248 73.3959 82.5898 72.627 82.8145C72.0346 82.8145 71.442 82.8145 70.8496 82.8145C70.6556 82.6844 70.4278 82.6389 70.166 82.6777C68.1063 81.8267 66.5341 80.4139 65.4492 78.4395C64.296 76.324 63.4528 74.091 62.9199 71.7402C64.4 71.649 65.8583 71.558 67.2949 71.4668Z" fill="#E5E8ED"/>
<path opacity="0.992" fill-rule="evenodd" clip-rule="evenodd" d="M97.5098 76.3887C98.6947 76.3887 99.8795 76.3887 101.064 76.3887C100.019 78.1139 98.9021 79.8002 97.7148 81.4473C96.4465 83.9422 97.0617 85.7879 99.5605 86.9844C99.9223 87.0523 100.287 87.0752 100.654 87.0527C100.143 87.9378 99.5962 88.8037 99.0137 89.6504C95.5368 89.8318 92.0733 89.8318 88.623 89.6504C91.5501 85.2102 94.5122 80.7896 97.5098 76.3887Z" fill="#54525E"/>
<path opacity="0.991" fill-rule="evenodd" clip-rule="evenodd" d="M101.064 76.3887C103.343 76.3887 105.622 76.3887 107.9 76.3887C105.551 79.9957 103.136 83.5504 100.654 87.0527C100.287 87.0752 99.9223 87.0523 99.5606 86.9844C97.0618 85.7879 96.4465 83.9422 97.7149 81.4473C98.9021 79.8002 100.019 78.1139 101.064 76.3887Z" fill="#5C5A67"/>
<path opacity="0.998" fill-rule="evenodd" clip-rule="evenodd" d="M61.1426 82.6777C61.2337 82.6777 61.3249 82.6777 61.416 82.6777C61.5901 85.5178 63.0484 87.3179 65.791 88.0781C68.7074 88.1464 71.624 88.1693 74.541 88.1464C74.541 88.6478 74.541 89.149 74.541 89.6504C69.1178 89.8326 63.6947 89.8326 58.2715 89.6504C58.2105 87.7718 58.2789 85.9033 58.4766 84.0449C59.0416 82.9989 59.9303 82.543 61.1426 82.6777Z" fill="#E54222"/>
<path opacity="0.993" fill-rule="evenodd" clip-rule="evenodd" d="M61.416 82.6777C64.5544 82.8116 67.6989 82.8572 70.8496 82.8145C71.442 82.8145 72.0346 82.8145 72.627 82.8145C73.425 82.9061 73.9947 83.3162 74.3359 84.0449C74.5305 85.4012 74.5988 86.7684 74.541 88.1465C71.624 88.1693 68.7074 88.1465 65.791 88.0781C63.0484 87.318 61.5901 85.5178 61.416 82.6777Z" fill="#FE4723"/>
<path opacity="0.931" fill-rule="evenodd" clip-rule="evenodd" d="M58.2715 89.6504C63.6947 89.8327 69.1178 89.8327 74.541 89.6504C79.235 89.6504 83.9291 89.6504 88.623 89.6504C92.0733 89.8318 95.5368 89.8318 99.0137 89.6504C104.346 89.6276 109.678 89.6504 115.01 89.7188C115.579 89.8534 115.853 90.2181 115.83 90.8125C115.855 91.4018 115.581 91.7663 115.01 91.9063C94.3652 91.9975 73.7207 91.9975 53.0762 91.9063C52.488 91.7743 52.2146 91.4097 52.2558 90.8125C52.2005 90.2747 52.4284 89.91 52.9394 89.7188C54.7162 89.6504 56.4935 89.6276 58.2715 89.6504Z" fill="#A9B1BC"/>
</svg>
