<svg width="45" height="45" viewBox="0 0 45 45" fill="none" xmlns="http://www.w3.org/2000/svg">
<path opacity="0.988" fill-rule="evenodd" clip-rule="evenodd" d="M10.7666 3.64746C8.50362 6.04241 6.18917 8.40081 3.82324 10.7227C3.771 10.7634 3.7124 10.7781 3.64746 10.7666C3.71296 9.99773 3.88874 9.26534 4.1748 8.56934C5.66895 7.13379 7.13379 5.66895 8.56934 4.1748C9.26613 3.88861 9.99861 3.71283 10.7666 3.64746Z" fill="#EA00FF"/>
<path opacity="0.984" fill-rule="evenodd" clip-rule="evenodd" d="M10.7666 3.64746C11.5576 3.64746 12.3486 3.64746 13.1396 3.64746C13.0422 3.71689 12.925 3.76084 12.7881 3.7793C9.7534 6.78466 6.75047 9.81686 3.7793 12.876C3.76084 13.0129 3.71689 13.1301 3.64746 13.2275C3.64746 12.4073 3.64746 11.5869 3.64746 10.7666C3.7124 10.7781 3.771 10.7634 3.82324 10.7227C6.18917 8.40081 8.50362 6.04241 10.7666 3.64746Z" fill="#E300FF"/>
<path opacity="0.972" fill-rule="evenodd" clip-rule="evenodd" d="M13.1396 3.64746C13.7256 3.64746 14.3115 3.64746 14.8975 3.64746C14.8 3.71689 14.6828 3.76084 14.5459 3.7793C13.293 4.988 12.0918 6.23312 10.9424 7.51465C8.95017 7.80761 7.80761 8.95017 7.51465 10.9424C6.25794 12.1551 5.01282 13.3856 3.7793 14.6338C3.76084 14.7707 3.71689 14.8879 3.64746 14.9854C3.64746 14.3994 3.64746 13.8135 3.64746 13.2275C3.71689 13.1301 3.76084 13.0129 3.7793 12.876C6.75047 9.81686 9.7534 6.78466 12.7881 3.7793C12.925 3.76084 13.0422 3.71689 13.1396 3.64746Z" fill="#DD00FF"/>
<path opacity="0.975" fill-rule="evenodd" clip-rule="evenodd" d="M14.8975 3.64746C15.3664 3.65709 15.7766 3.80358 16.1279 4.08691C14.949 5.13378 13.8064 6.23241 12.7002 7.38281C12.8089 7.40321 12.8968 7.44716 12.9639 7.51465C12.29 7.51465 11.6162 7.51465 10.9424 7.51465C12.0918 6.23312 13.293 4.988 14.5459 3.7793C14.6828 3.76084 14.8 3.71689 14.8975 3.64746Z" fill="#D700FF"/>
<path opacity="0.961" fill-rule="evenodd" clip-rule="evenodd" d="M30.7178 3.64747C30.7545 3.71089 30.813 3.75484 30.8935 3.7793C30.0262 4.66133 29.1473 5.52559 28.2568 6.37208C27.8196 5.32721 28.0832 4.49225 29.0478 3.86719C29.5871 3.67575 30.1437 3.60251 30.7178 3.64747Z" fill="#A500FF"/>
<path opacity="0.974" fill-rule="evenodd" clip-rule="evenodd" d="M30.7178 3.64746C31.3037 3.64746 31.8896 3.64746 32.4756 3.64746C32.5123 3.71088 32.5709 3.75483 32.6514 3.7793C31.4618 4.95424 30.2898 6.14076 29.1357 7.33887C28.7184 7.12679 28.4255 6.80453 28.2568 6.37207C29.1473 5.52558 30.0263 4.66132 30.8936 3.7793C30.813 3.75483 30.7545 3.71088 30.7178 3.64746Z" fill="#9F00FF"/>
<path opacity="0.97" fill-rule="evenodd" clip-rule="evenodd" d="M32.4756 3.64744C33.1824 3.6267 33.8855 3.65599 34.585 3.73533C33.5267 5.01387 32.3841 6.22969 31.1572 7.38279C31.2377 7.40726 31.2963 7.45121 31.333 7.51463C30.588 7.55808 29.8557 7.49948 29.1357 7.33885C30.2898 6.14074 31.4618 4.95422 32.6514 3.77928C32.5709 3.75481 32.5123 3.71086 32.4756 3.64744Z" fill="#9900FF"/>
<path opacity="0.976" fill-rule="evenodd" clip-rule="evenodd" d="M34.585 3.73535C35.1137 3.76459 35.6118 3.88178 36.0791 4.08691C35.0103 5.1704 33.9556 6.26904 32.915 7.38281C32.9955 7.40728 33.0541 7.45123 33.0908 7.51465C32.5049 7.51465 31.919 7.51465 31.333 7.51465C31.2963 7.45123 31.2377 7.40728 31.1572 7.38281C32.3841 6.22971 33.5267 5.01389 34.585 3.73535Z" fill="#9200FF"/>
<path opacity="0.974" fill-rule="evenodd" clip-rule="evenodd" d="M16.1279 4.08691C16.7955 4.63526 17.0153 5.33839 16.7871 6.19629C16.5214 6.8723 16.038 7.2971 15.3369 7.4707C14.5464 7.51463 13.7554 7.52927 12.9639 7.51465C12.8968 7.44716 12.8089 7.40321 12.7002 7.38281C13.8064 6.23241 14.949 5.13378 16.1279 4.08691Z" fill="#D000FF"/>
<path opacity="0.978" fill-rule="evenodd" clip-rule="evenodd" d="M36.0791 4.08691C36.531 4.17851 36.9412 4.35429 37.3096 4.61426C36.5803 5.38755 35.8332 6.14927 35.0684 6.89941C34.8855 7.12487 34.7244 7.35924 34.585 7.60254C34.0909 7.52751 33.5929 7.49821 33.0908 7.51465C33.0541 7.45123 32.9955 7.40728 32.915 7.38281C33.9556 6.26904 35.0103 5.1704 36.0791 4.08691Z" fill="#8C00FF"/>
<path opacity="0.925" fill-rule="evenodd" clip-rule="evenodd" d="M8.56934 4.1748C7.13379 5.66895 5.66895 7.13379 4.1748 8.56934C4.96662 6.42986 6.43147 4.96502 8.56934 4.1748Z" fill="#EF00FF"/>
<path opacity="0.985" fill-rule="evenodd" clip-rule="evenodd" d="M37.3096 4.61426C37.7224 4.76169 38.074 4.99607 38.3643 5.31738C37.483 6.22792 36.6041 7.13613 35.7275 8.04199C35.3564 7.87112 34.9755 7.72464 34.585 7.60254C34.7244 7.35924 34.8855 7.12487 35.0684 6.89941C35.8332 6.14927 36.5803 5.38755 37.3096 4.61426Z" fill="#8600FF"/>
<path opacity="0.977" fill-rule="evenodd" clip-rule="evenodd" d="M38.3643 5.31738C38.7708 5.57735 39.1224 5.89961 39.4189 6.28418C39.4305 6.34912 39.4158 6.40772 39.375 6.45996C38.4929 7.32729 37.6287 8.2062 36.7822 9.09668C36.4599 8.71582 36.1084 8.36426 35.7275 8.04199C36.6041 7.13613 37.483 6.22792 38.3643 5.31738Z" fill="#8000FF"/>
<path opacity="0.982" fill-rule="evenodd" clip-rule="evenodd" d="M39.4189 6.28418C39.714 6.63878 39.9777 7.01964 40.21 7.42676C39.2115 8.36663 38.2447 9.33346 37.3096 10.3271C37.182 9.89622 37.0062 9.48604 36.7822 9.09668C37.6287 8.2062 38.4929 7.32729 39.375 6.45996C39.4158 6.40772 39.4305 6.34912 39.4189 6.28418Z" fill="#7900FF"/>
<path opacity="0.978" fill-rule="evenodd" clip-rule="evenodd" d="M40.21 7.42676C40.4552 7.7709 40.631 8.15177 40.7373 8.56934C39.6533 9.71191 38.54 10.8252 37.3975 11.9092C37.4148 11.3779 37.3854 10.8505 37.3096 10.3271C38.2447 9.33346 39.2115 8.36663 40.21 7.42676Z" fill="#7300FF"/>
<path opacity="0.975" fill-rule="evenodd" clip-rule="evenodd" d="M40.7373 8.56934C40.9369 9.01477 41.0834 9.48349 41.1768 9.97559C39.917 11.2061 38.6572 12.4365 37.3975 13.667C37.3975 13.081 37.3975 12.4951 37.3975 11.9092C38.54 10.8252 39.6533 9.71191 40.7373 8.56934Z" fill="#6D00FF"/>
<path opacity="0.976" fill-rule="evenodd" clip-rule="evenodd" d="M41.1767 9.97559C41.2374 10.5302 41.2667 11.0868 41.2646 11.6455C41.1952 11.743 41.1512 11.8601 41.1328 11.9971C39.9285 13.1867 38.742 14.3878 37.5732 15.6006C37.5057 15.5335 37.4618 15.4456 37.4414 15.3369C37.3974 14.781 37.3828 14.2244 37.3974 13.667C38.6572 12.4365 39.917 11.2061 41.1767 9.97559Z" fill="#6700FF"/>
<path opacity="0.976" fill-rule="evenodd" clip-rule="evenodd" d="M7.51465 10.9424C7.51465 11.6162 7.51465 12.29 7.51465 12.9639C7.45123 12.9271 7.40728 12.8686 7.38281 12.7881C6.29126 13.9238 5.16334 15.0079 3.99902 16.04C3.79634 15.725 3.67915 15.3734 3.64746 14.9854C3.71689 14.8879 3.76084 14.7707 3.7793 14.6338C5.01282 13.3856 6.25794 12.1551 7.51465 10.9424Z" fill="#D700FF"/>
<path opacity="0.975" fill-rule="evenodd" clip-rule="evenodd" d="M41.2646 11.6455C41.2793 12.8763 41.2646 14.1068 41.2207 15.3369C40.8225 16.5546 39.9875 17.038 38.7158 16.7871C38.1345 16.5722 37.7536 16.1767 37.5732 15.6006C38.742 14.3878 39.9285 13.1867 41.1328 11.9971C41.1513 11.8601 41.1952 11.743 41.2646 11.6455Z" fill="#5E00FF"/>
<path opacity="0.969" fill-rule="evenodd" clip-rule="evenodd" d="M7.51465 12.9639C7.52927 13.7554 7.51463 14.5464 7.4707 15.3369C7.07247 16.5546 6.23751 17.038 4.96582 16.7871C4.55187 16.6509 4.2296 16.4019 3.99902 16.04C5.16334 15.0079 6.29126 13.9238 7.38281 12.7881C7.40728 12.8686 7.45123 12.9271 7.51465 12.9639Z" fill="#D000FF"/>
<path opacity="0.989" fill-rule="evenodd" clip-rule="evenodd" d="M21.4014 13.1396C22.1045 13.0225 22.8076 13.0225 23.5108 13.1396C19.9677 16.5069 16.5106 19.964 13.1397 23.5107C13.0525 22.8825 13.0232 22.238 13.0518 21.5771C15.9301 18.8307 18.772 16.0328 21.5772 13.1836C21.525 13.1428 21.4663 13.1281 21.4014 13.1396Z" fill="#9F00FF"/>
<path opacity="0.989" fill-rule="evenodd" clip-rule="evenodd" d="M21.4014 13.1397C21.4663 13.1281 21.5249 13.1428 21.5771 13.1836C18.7719 16.0328 15.9301 18.8308 13.0518 21.5772C13.1395 20.8144 13.3153 20.082 13.5791 19.3799C15.542 17.4756 17.4756 15.542 19.3799 13.5791C20.0247 13.3095 20.6986 13.163 21.4014 13.1397Z" fill="#A500FF"/>
<path opacity="0.98" fill-rule="evenodd" clip-rule="evenodd" d="M23.5107 13.1396C24.1268 13.1574 24.7126 13.2746 25.2686 13.4912C25.1761 13.4781 25.0882 13.4927 25.0049 13.5352C23.8738 14.6515 22.7606 15.7794 21.665 16.9189C19.0181 17.4858 17.4361 19.0971 16.9189 21.7529C15.7941 22.8338 14.6808 23.9324 13.5791 25.0488C13.5269 25.0896 13.4683 25.1043 13.4033 25.0928C13.2476 24.5776 13.1597 24.0502 13.1396 23.5107C16.5106 19.964 19.9677 16.5069 23.5107 13.1396Z" fill="#9900FF"/>
<path opacity="0.982" fill-rule="evenodd" clip-rule="evenodd" d="M25.2686 13.4912C25.7427 13.6 26.1822 13.7758 26.5869 14.0186C26.4662 14.0048 26.349 14.0194 26.2354 14.0625C25.2801 15.0031 24.3426 15.9552 23.4229 16.919C22.8306 16.854 22.2446 16.854 21.665 16.919C22.7606 15.7794 23.8738 14.6515 25.0049 13.5352C25.0882 13.4927 25.1761 13.4781 25.2686 13.4912Z" fill="#9200FF"/>
<path opacity="0.943" fill-rule="evenodd" clip-rule="evenodd" d="M19.3799 13.5791C17.4756 15.542 15.542 17.4756 13.5791 19.3799C14.6045 16.5381 16.5381 14.6045 19.3799 13.5791Z" fill="#AA00FF"/>
<path opacity="0.983" fill-rule="evenodd" clip-rule="evenodd" d="M26.5869 14.0186C26.9097 14.1504 27.2027 14.3262 27.4658 14.5459C26.5576 15.4834 25.6494 16.4209 24.7412 17.3584C24.2998 17.1918 23.8604 17.0453 23.4229 16.919C24.3426 15.9552 25.2801 15.0031 26.2354 14.0625C26.349 14.0194 26.4662 14.0048 26.5869 14.0186Z" fill="#8C00FF"/>
<path opacity="0.982" fill-rule="evenodd" clip-rule="evenodd" d="M27.4658 14.5459C27.8451 14.7357 28.1966 14.9701 28.5205 15.249C27.6392 16.1889 26.7311 17.0971 25.7959 17.9736C25.4443 17.7686 25.0928 17.5634 24.7412 17.3584C25.6494 16.4209 26.5576 15.4834 27.4658 14.5459Z" fill="#8600FF"/>
<path opacity="0.973" fill-rule="evenodd" clip-rule="evenodd" d="M28.5205 15.249C28.9013 15.5713 29.2529 15.9229 29.5752 16.3037C28.701 17.2365 27.7929 18.1447 26.8506 19.0283C26.5259 18.6451 26.1744 18.2936 25.7959 17.9736C26.7311 17.0971 27.6392 16.1889 28.5205 15.249Z" fill="#8000FF"/>
<path opacity="0.983" fill-rule="evenodd" clip-rule="evenodd" d="M29.5752 16.3037C29.873 16.5759 30.1074 16.8982 30.2783 17.2705C29.4316 18.2638 28.5234 19.2013 27.5537 20.083C27.3567 19.7096 27.1223 19.358 26.8506 19.0283C27.7929 18.1447 28.701 17.2365 29.5752 16.3037Z" fill="#7900FF"/>
<path opacity="0.98" fill-rule="evenodd" clip-rule="evenodd" d="M30.2783 17.2705C30.5335 17.6335 30.7679 18.0143 30.9814 18.4131C29.9878 19.4361 28.9917 20.4616 27.9932 21.4893C27.8498 21.0293 27.7033 20.5606 27.5537 20.083C28.5234 19.2013 29.4316 18.2638 30.2783 17.2705Z" fill="#7300FF"/>
<path opacity="0.982" fill-rule="evenodd" clip-rule="evenodd" d="M30.9814 18.4131C31.1808 18.8352 31.3272 19.2747 31.4209 19.7314C30.34 20.8563 29.2414 21.9696 28.125 23.0713C28.0913 23.0224 28.0474 22.9932 27.9932 22.9834C27.9932 22.4853 27.9932 21.9873 27.9932 21.4893C28.9917 20.4616 29.9878 19.4361 30.9814 18.4131Z" fill="#6D00FF"/>
<path opacity="0.976" fill-rule="evenodd" clip-rule="evenodd" d="M31.4209 19.7314C31.6442 20.319 31.7907 20.9342 31.8604 21.5771C31.8061 21.5674 31.7622 21.5381 31.7285 21.4893C28.2613 24.883 24.8775 28.34 21.5771 31.8604C20.9342 31.7907 20.319 31.6442 19.7314 31.4209C20.9033 30.3076 22.0459 29.165 23.1592 27.9932C25.2076 27.6354 26.6872 26.5222 27.5977 24.6533C27.8248 24.1182 27.9566 23.5615 27.9932 22.9834C28.0474 22.9932 28.0913 23.0224 28.125 23.0713C29.2414 21.9696 30.34 20.8563 31.4209 19.7314Z" fill="#6600FF"/>
<path opacity="0.992" fill-rule="evenodd" clip-rule="evenodd" d="M31.8604 21.5771C31.8604 22.1338 31.8604 22.6905 31.8604 23.2471C28.9503 25.996 26.1084 28.8231 23.335 31.7285C23.3838 31.7622 23.4131 31.8061 23.4229 31.8604C22.8076 31.8604 22.1924 31.8604 21.5771 31.8604C24.8775 28.34 28.2613 24.883 31.7285 21.4893C31.7622 21.5381 31.8061 21.5674 31.8604 21.5771Z" fill="#6000FF"/>
<path opacity="0.98" fill-rule="evenodd" clip-rule="evenodd" d="M16.9189 21.7529C16.8961 22.3732 16.9254 22.9884 17.0068 23.5986C16.9526 23.5889 16.9087 23.5596 16.875 23.5107C15.8734 24.4976 14.8919 25.4937 13.9307 26.499C13.7377 26.0375 13.562 25.5688 13.4033 25.0928C13.4683 25.1043 13.5269 25.0896 13.5791 25.0488C14.6808 23.9324 15.7941 22.8338 16.9189 21.7529Z" fill="#9300FF"/>
<path opacity="0.99" fill-rule="evenodd" clip-rule="evenodd" d="M31.8604 23.2471C31.3026 27.3054 29.1053 30.0446 25.2686 31.4648C24.6554 31.6255 24.0402 31.7573 23.4229 31.8604C23.4131 31.8061 23.3838 31.7622 23.335 31.7285C26.1084 28.8231 28.9503 25.996 31.8604 23.2471Z" fill="#5900FF"/>
<path opacity="0.983" fill-rule="evenodd" clip-rule="evenodd" d="M17.0068 23.5986C17.1062 24.0138 17.2234 24.424 17.3584 24.8291C16.4209 25.7373 15.4834 26.6455 14.5459 27.5537C14.3408 27.2021 14.1357 26.8506 13.9307 26.499C14.8919 25.4937 15.8734 24.4976 16.875 23.5107C16.9087 23.5596 16.9526 23.5889 17.0068 23.5986Z" fill="#8C00FF"/>
<path opacity="0.98" fill-rule="evenodd" clip-rule="evenodd" d="M17.3584 24.8291C17.5842 25.1333 17.7893 25.4556 17.9736 25.7959C17.9851 25.8608 17.9705 25.9195 17.9297 25.9717C17.0476 26.839 16.1834 27.7179 15.3369 28.6084C15.0315 28.2916 14.7678 27.9401 14.5459 27.5537C15.4834 26.6455 16.4209 25.7373 17.3584 24.8291Z" fill="#8600FF"/>
<path opacity="0.98" fill-rule="evenodd" clip-rule="evenodd" d="M17.9736 25.7959C18.2936 26.1744 18.6451 26.5259 19.0283 26.8506C18.1494 27.7881 17.2412 28.6963 16.3037 29.5752C15.9521 29.2823 15.6299 28.96 15.3369 28.6084C16.1834 27.7179 17.0476 26.839 17.9297 25.9717C17.9705 25.9195 17.9851 25.8608 17.9736 25.7959Z" fill="#8000FF"/>
<path opacity="0.981" fill-rule="evenodd" clip-rule="evenodd" d="M19.0283 26.8506C19.358 27.1223 19.7096 27.3567 20.083 27.5537C19.2365 28.4442 18.3723 29.3231 17.4902 30.1904C17.4495 30.2426 17.4348 30.3013 17.4463 30.3662C17.0187 30.1673 16.6379 29.9036 16.3037 29.5752C17.2412 28.6963 18.1494 27.7881 19.0283 26.8506Z" fill="#7900FF"/>
<path opacity="0.981" fill-rule="evenodd" clip-rule="evenodd" d="M20.083 27.5537C20.5606 27.7033 21.0293 27.8498 21.4893 27.9932C20.4639 28.96 19.4678 29.956 18.501 30.9814C18.1034 30.8458 17.7518 30.6407 17.4463 30.3662C17.4348 30.3013 17.4495 30.2426 17.4902 30.1904C18.3723 29.3231 19.2365 28.4442 20.083 27.5537Z" fill="#7300FF"/>
<path opacity="0.985" fill-rule="evenodd" clip-rule="evenodd" d="M21.4893 27.9932C22.0533 28.0474 22.6099 28.0474 23.1592 27.9932C22.0459 29.165 20.9033 30.3076 19.7314 31.4209C19.289 31.342 18.8788 31.1955 18.501 30.9814C19.4678 29.956 20.4638 28.96 21.4893 27.9932Z" fill="#6D00FF"/>
<path opacity="0.968" fill-rule="evenodd" clip-rule="evenodd" d="M6.54783 28.3448C5.6134 29.2352 4.69055 30.1435 3.77928 31.0694C3.75481 30.9889 3.71086 30.9303 3.64744 30.8936C3.46402 29.9062 3.72769 29.0712 4.43845 28.3887C4.98842 28.0938 5.57435 28.0059 6.19627 28.1251C6.33394 28.1785 6.45113 28.2518 6.54783 28.3448Z" fill="#A500FF"/>
<path opacity="0.973" fill-rule="evenodd" clip-rule="evenodd" d="M6.54785 28.3447C6.97307 28.5355 7.23674 28.8577 7.33887 29.3115C6.14076 30.4656 4.95424 31.6375 3.7793 32.8271C3.75483 32.7466 3.71088 32.6881 3.64746 32.6514C3.64746 32.0654 3.64746 31.4795 3.64746 30.8936C3.71088 30.9303 3.75483 30.9888 3.7793 31.0693C4.69057 30.1434 5.61342 29.2351 6.54785 28.3447Z" fill="#9F00FF"/>
<path opacity="0.977" fill-rule="evenodd" clip-rule="evenodd" d="M41.2647 30.1904C40.0079 31.4031 38.7629 32.6336 37.5293 33.8818C37.4956 33.8329 37.4517 33.8037 37.3975 33.7939C37.3828 32.3874 37.3975 30.9812 37.4414 29.5752C37.8397 28.3574 38.6746 27.874 39.9463 28.125C40.8408 28.5222 41.2802 29.2107 41.2647 30.1904Z" fill="#2A00FF"/>
<path opacity="0.969" fill-rule="evenodd" clip-rule="evenodd" d="M7.33886 29.3115C7.40636 29.3786 7.4503 29.4665 7.4707 29.5752C7.51462 30.2191 7.52926 30.8636 7.51465 31.5088C7.44715 31.4417 7.40321 31.3538 7.38281 31.2451C6.24282 32.473 5.07094 33.6742 3.86719 34.8486C3.82638 34.9008 3.81173 34.9595 3.82324 35.0244C3.66867 34.2539 3.61007 33.4629 3.64746 32.6514C3.71088 32.6881 3.75483 32.7466 3.77929 32.8271C4.95423 31.6375 6.14076 30.4656 7.33886 29.3115Z" fill="#9900FF"/>
<path opacity="0.975" fill-rule="evenodd" clip-rule="evenodd" d="M41.2646 30.1904C41.2646 30.7764 41.2646 31.3623 41.2646 31.9482C38.1299 35.0244 35.0244 38.1299 31.9482 41.2646C31.3916 41.2646 30.8349 41.2646 30.2783 41.2646C31.4792 39.9174 32.7389 38.6283 34.0576 37.3975C36.084 37.0411 37.1972 35.8399 37.3975 33.7939C37.4517 33.8037 37.4956 33.833 37.5293 33.8818C38.7628 32.6336 40.0079 31.4031 41.2646 30.1904Z" fill="#2200FF"/>
<path opacity="0.976" fill-rule="evenodd" clip-rule="evenodd" d="M7.51466 31.5088C7.51466 32.0948 7.51466 32.6806 7.51466 33.2666C7.45124 33.2299 7.4073 33.1713 7.38283 33.0908C6.29574 34.1633 5.22641 35.2472 4.17482 36.3428C3.96348 35.9374 3.84629 35.498 3.82326 35.0244C3.81174 34.9595 3.8264 34.9008 3.8672 34.8486C5.07096 33.6742 6.24283 32.473 7.38283 31.2451C7.40323 31.3538 7.44717 31.4417 7.51466 31.5088Z" fill="#9200FF"/>
<path opacity="0.986" fill-rule="evenodd" clip-rule="evenodd" d="M41.2646 31.9482C41.2646 32.6806 41.2646 33.4131 41.2646 34.1455C41.2104 34.1358 41.1665 34.1065 41.1328 34.0576C38.7201 36.3968 36.391 38.7991 34.1455 41.2646C33.4131 41.2646 32.6806 41.2646 31.9482 41.2646C35.0244 38.1299 38.1299 35.0244 41.2646 31.9482Z" fill="#1C00FF"/>
<path opacity="0.981" fill-rule="evenodd" clip-rule="evenodd" d="M7.51465 33.2666C7.50517 33.7386 7.53447 34.2073 7.60254 34.6729C6.63574 35.6104 5.66895 36.5478 4.70215 37.4854C4.4575 37.1421 4.28171 36.7613 4.1748 36.3428C5.22639 35.2472 6.29572 34.1633 7.38281 33.0908C7.40728 33.1713 7.45123 33.2299 7.51465 33.2666Z" fill="#8C00FF"/>
<path opacity="0.984" fill-rule="evenodd" clip-rule="evenodd" d="M41.2646 34.1455C40.6787 38.3056 38.3056 40.6787 34.1455 41.2646C36.391 38.7991 38.7201 36.3968 41.1328 34.0576C41.1665 34.1065 41.2104 34.1358 41.2646 34.1455Z" fill="#1400FF"/>
<path opacity="0.983" fill-rule="evenodd" clip-rule="evenodd" d="M7.60254 34.6729C7.78482 35.1252 7.9899 35.5647 8.21777 35.9912C8.16351 35.9815 8.11956 35.9522 8.08594 35.9033C7.16976 36.7752 6.3055 37.6835 5.49316 38.6279C5.19809 38.2733 4.93442 37.8925 4.70215 37.4854C5.66895 36.5478 6.63574 35.6104 7.60254 34.6729Z" fill="#8600FF"/>
<path opacity="0.977" fill-rule="evenodd" clip-rule="evenodd" d="M8.21777 35.9912C8.54231 36.2867 8.86456 36.5796 9.18457 36.8701C8.27637 37.749 7.36816 38.6279 6.45996 39.5068C6.08462 39.2782 5.76236 38.9853 5.49316 38.6279C6.3055 37.6835 7.16976 36.7752 8.08594 35.9033C8.11956 35.9522 8.16351 35.9815 8.21777 35.9912Z" fill="#7F00FF"/>
<path opacity="0.979" fill-rule="evenodd" clip-rule="evenodd" d="M9.18457 36.8701C9.57674 37.0662 9.98692 37.2127 10.415 37.3096C9.50994 38.2586 8.5871 39.1961 7.64648 40.1221C7.60568 40.1743 7.59103 40.2329 7.60254 40.2979C7.14855 40.1363 6.76769 39.8726 6.45996 39.5068C7.36816 38.6279 8.27637 37.749 9.18457 36.8701Z" fill="#7900FF"/>
<path opacity="0.975" fill-rule="evenodd" clip-rule="evenodd" d="M10.4151 37.3096C10.9666 37.3903 11.5232 37.4195 12.085 37.3975C11.0188 38.5077 9.93473 39.6063 8.83302 40.6934C8.7497 40.7358 8.66181 40.7504 8.56935 40.7373C8.20961 40.6598 7.88735 40.5133 7.60255 40.2979C7.59104 40.2329 7.60569 40.1743 7.6465 40.1221C8.58711 39.1961 9.50996 38.2586 10.4151 37.3096Z" fill="#7300FF"/>
<path opacity="0.973" fill-rule="evenodd" clip-rule="evenodd" d="M12.085 37.3975C12.6709 37.3975 13.2568 37.3975 13.8428 37.3975C12.6099 38.6889 11.3502 39.9487 10.0635 41.1768C9.5371 41.0968 9.03911 40.9504 8.56934 40.7373C8.6618 40.7504 8.74969 40.7358 8.83301 40.6934C9.93472 39.6063 11.0188 38.5077 12.085 37.3975Z" fill="#6D00FF"/>
<path opacity="0.976" fill-rule="evenodd" clip-rule="evenodd" d="M13.8428 37.3975C14.474 37.3534 15.0892 37.412 15.6885 37.5733C14.5344 38.7714 13.3625 39.9579 12.1729 41.1329C12.0359 41.1513 11.9188 41.1953 11.8213 41.2647C11.2332 41.2687 10.6473 41.2394 10.0635 41.1768C11.3502 39.9487 12.6099 38.689 13.8428 37.3975Z" fill="#6700FF"/>
<path opacity="0.974" fill-rule="evenodd" clip-rule="evenodd" d="M34.0576 37.3975C32.7389 38.6283 31.4792 39.9174 30.2783 41.2647C28.6257 41.2085 27.9079 40.3589 28.125 38.7158C28.3907 38.0398 28.8741 37.615 29.5752 37.4414C31.0691 37.3975 32.5632 37.3828 34.0576 37.3975Z" fill="#2B00FF"/>
<path opacity="0.972" fill-rule="evenodd" clip-rule="evenodd" d="M15.6885 37.5732C16.2147 37.7919 16.5808 38.1728 16.7871 38.7158C17.038 39.9875 16.5546 40.8225 15.3369 41.2207C14.1654 41.2646 12.9935 41.2793 11.8213 41.2646C11.9188 41.1952 12.0359 41.1513 12.1729 41.1328C13.3625 39.9579 14.5344 38.7714 15.6885 37.5732Z" fill="#5F00FF"/>
</svg>
