<svg width="45" height="45" viewBox="0 0 45 45" fill="none" xmlns="http://www.w3.org/2000/svg">
<g clip-path="url(#clip0_1_671)">
<path opacity="0.995" fill-rule="evenodd" clip-rule="evenodd" d="M6.45996 1.71387C4.3361 5.4933 2.16813 9.24328 -0.0439453 12.9639C-0.0439453 11.0889 -0.0439453 9.21384 -0.0439453 7.33887C0.787156 3.93028 2.95513 2.05529 6.45996 1.71387Z" fill="#59D1FF"/>
<path opacity="0.998" fill-rule="evenodd" clip-rule="evenodd" d="M6.45996 1.71387C6.72363 1.71387 6.9873 1.71387 7.25098 1.71387C4.84021 5.92082 2.40856 10.1102 -0.0439453 14.2822C-0.0439453 13.8428 -0.0439453 13.4033 -0.0439453 12.9639C2.16813 9.24328 4.3361 5.4933 6.45996 1.71387Z" fill="#5CCDFF"/>
<path opacity="0.999" fill-rule="evenodd" clip-rule="evenodd" d="M7.25098 1.71387C8.12988 1.71387 9.00879 1.71387 9.8877 1.71387C6.62127 7.48546 3.31072 13.2276 -0.0439453 18.9404C-0.0439453 17.3877 -0.0439453 15.835 -0.0439453 14.2822C2.40856 10.1102 4.84021 5.92082 7.25098 1.71387Z" fill="#60CAFF"/>
<path opacity="0.999" fill-rule="evenodd" clip-rule="evenodd" d="M9.8877 1.71387C10.0342 1.71387 10.1806 1.71387 10.3271 1.71387C6.93645 7.76347 3.47942 13.7693 -0.0439453 19.7314C-0.0439453 19.4678 -0.0439453 19.2041 -0.0439453 18.9404C3.31072 13.2276 6.62127 7.48546 9.8877 1.71387Z" fill="#63C7FF"/>
<path opacity="0.999" fill-rule="evenodd" clip-rule="evenodd" d="M10.3271 1.71387C11.1768 1.71387 12.0263 1.71387 12.876 1.71387C8.56801 9.15838 4.26137 16.5998 -0.0439453 24.0381C-0.0439453 22.6026 -0.0439453 21.167 -0.0439453 19.7314C3.47942 13.7693 6.93645 7.76347 10.3271 1.71387Z" fill="#65C3FF"/>
<path opacity="0.999" fill-rule="evenodd" clip-rule="evenodd" d="M12.876 1.71387C13.2568 1.71387 13.6377 1.71387 14.0186 1.71387C9.35297 9.84419 4.66546 17.9594 -0.0439453 26.0596C-0.0439453 25.3857 -0.0439453 24.7119 -0.0439453 24.0381C4.26137 16.5998 8.56801 9.15838 12.876 1.71387Z" fill="#69C0FF"/>
<path opacity="0.997" fill-rule="evenodd" clip-rule="evenodd" d="M14.0186 1.71387C14.7803 1.71387 15.542 1.71387 16.3037 1.71387C16.1105 1.77234 15.9055 1.83093 15.6885 1.88965C12.6931 7.14814 9.67553 12.3923 6.63574 17.6221C6.64661 17.6754 6.6759 17.7047 6.72363 17.71C5.43766 19.0399 4.13395 20.3583 2.8125 21.665C2.76857 22.5728 2.75392 23.4809 2.76855 24.3896C1.83105 25.9424 0.893558 27.4951 -0.0439453 29.0479C-0.0439453 28.0518 -0.0439453 27.0556 -0.0439453 26.0596C4.66546 17.9594 9.35297 9.84419 14.0186 1.71387Z" fill="#6CBDFF"/>
<path opacity="0.997" fill-rule="evenodd" clip-rule="evenodd" d="M16.3037 1.71387C16.4209 1.71387 16.5381 1.71387 16.6553 1.71387C16.7908 1.77218 16.9373 1.83078 17.0947 1.88965C14.0528 7.12426 11.0353 12.3684 8.04199 17.6221C7.81008 17.4765 7.57571 17.3301 7.33887 17.1826C7.13208 17.3604 6.92699 17.5362 6.72363 17.71C6.6759 17.7047 6.64661 17.6754 6.63574 17.6221C9.67553 12.3923 12.6931 7.14814 15.6885 1.88965C15.9055 1.83093 16.1105 1.77234 16.3037 1.71387Z" fill="#6FBAFF"/>
<path opacity="0.997" fill-rule="evenodd" clip-rule="evenodd" d="M16.6553 1.71387C17.3584 1.71387 18.0615 1.71387 18.7646 1.71387C15.542 7.28027 12.3194 12.8467 9.09668 18.4131C8.74175 18.1484 8.39019 17.8847 8.04199 17.6221C11.0353 12.3684 14.0528 7.12426 17.0947 1.88965C16.9373 1.83078 16.7908 1.77218 16.6553 1.71387Z" fill="#71B7FF"/>
<path opacity="0.997" fill-rule="evenodd" clip-rule="evenodd" d="M18.7646 1.71387C19.2627 1.71387 19.7607 1.71387 20.2588 1.71387C16.9422 7.55586 13.6024 13.3859 10.2393 19.2041C9.84305 18.9621 9.46222 18.6985 9.09668 18.4131C12.3194 12.8467 15.542 7.28027 18.7646 1.71387Z" fill="#75B3FF"/>
<path opacity="0.997" fill-rule="evenodd" clip-rule="evenodd" d="M20.2588 1.71387C20.9033 1.71387 21.5479 1.71387 22.1924 1.71387C18.6818 7.84143 15.1369 13.9498 11.5576 20.0391C11.6065 20.0727 11.6358 20.1167 11.6455 20.1709C11.1455 19.8918 10.6767 19.5696 10.2393 19.2041C13.6024 13.3859 16.9422 7.55586 20.2588 1.71387Z" fill="#78B0FF"/>
<path opacity="0.998" fill-rule="evenodd" clip-rule="evenodd" d="M22.1924 1.71387C22.6026 1.71387 23.0127 1.71387 23.4229 1.71387C19.7827 8.08633 16.1205 14.4438 12.4365 20.7861C12.1456 20.6119 11.8819 20.4069 11.6455 20.1709C11.6358 20.1167 11.6065 20.0727 11.5576 20.0391C15.1369 13.9498 18.6818 7.84143 22.1924 1.71387Z" fill="#7BADFF"/>
<path opacity="0.99" fill-rule="evenodd" clip-rule="evenodd" d="M23.4229 1.71387C23.9795 1.71387 24.5362 1.71387 25.0928 1.71387C24.0663 3.53268 23.041 5.34908 22.0166 7.16309C19.6167 8.12856 18.6499 9.88638 19.1162 12.4365C19.062 12.4268 19.018 12.3975 18.9844 12.3486C17.1876 15.4446 15.4151 18.5501 13.667 21.665C13.2303 21.4033 12.8202 21.1104 12.4365 20.7861C16.1205 14.4438 19.7827 8.08633 23.4229 1.71387Z" fill="#7DAAFF"/>
<path opacity="0.994" fill-rule="evenodd" clip-rule="evenodd" d="M25.0928 1.71387C26.2354 1.71387 27.3779 1.71387 28.5205 1.71387C28.3398 1.77681 28.1493 1.8354 27.9492 1.88965C26.8997 3.72607 25.8304 5.54248 24.7412 7.33887C23.8478 6.99628 22.9396 6.93769 22.0166 7.16309C23.041 5.34908 24.0663 3.53268 25.0928 1.71387Z" fill="#82A5FF"/>
<path opacity="0.995" fill-rule="evenodd" clip-rule="evenodd" d="M28.5205 1.71387C29.3408 1.71387 30.1612 1.71387 30.9814 1.71387C29.596 4.16299 28.1898 6.59463 26.7627 9.00879C26.2257 8.29684 25.5518 7.7402 24.7412 7.33887C25.8304 5.54248 26.8997 3.72607 27.9492 1.88965C28.1493 1.8354 28.3398 1.77681 28.5205 1.71387Z" fill="#889FFF"/>
<path opacity="0.994" fill-rule="evenodd" clip-rule="evenodd" d="M30.9814 1.71387C31.7725 1.71387 32.5635 1.71387 33.3545 1.71387C31.3674 5.22338 29.3459 8.70971 27.29 12.1729C27.4656 11.059 27.2899 10.0043 26.7627 9.00879C28.1898 6.59463 29.596 4.16299 30.9814 1.71387Z" fill="#8D99FF"/>
<path opacity="0.995" fill-rule="evenodd" clip-rule="evenodd" d="M33.3545 1.71387C33.706 1.71387 34.0576 1.71387 34.4092 1.71387C30.1611 9.09668 25.913 16.4795 21.665 23.8623C21.172 24.2851 20.6447 24.666 20.083 25.0049C19.9982 24.8976 20.0128 24.7804 20.1269 24.6533C22.0934 21.2331 24.0709 17.82 26.0595 14.4141C26.0395 14.379 26.0101 14.3644 25.9717 14.3701C26.6153 13.7561 27.0547 13.0236 27.29 12.1729C29.3459 8.70971 31.3673 5.22338 33.3545 1.71387Z" fill="#9096FF"/>
<path opacity="0.996" fill-rule="evenodd" clip-rule="evenodd" d="M34.4092 1.71387C35.1123 1.71387 35.8154 1.71387 36.5186 1.71387C32.8428 8.06888 29.1661 14.4263 25.4883 20.7861C25.3643 20.9751 25.291 21.1802 25.2686 21.4014C24.0801 22.2442 22.8789 23.0646 21.665 23.8623C25.9131 16.4795 30.1612 9.09668 34.4092 1.71387Z" fill="#9393FF"/>
<path opacity="0.998" fill-rule="evenodd" clip-rule="evenodd" d="M36.5186 1.71387C36.7822 1.71387 37.0459 1.71387 37.3096 1.71387C33.7889 7.90502 30.244 14.0867 26.6748 20.2588C26.6857 20.3121 26.715 20.3414 26.7627 20.3467C26.2667 20.6954 25.7687 21.047 25.2686 21.4014C25.291 21.1802 25.3643 20.9751 25.4883 20.7861C29.1661 14.4263 32.8428 8.06888 36.5186 1.71387Z" fill="#9690FF"/>
<path opacity="0.995" fill-rule="evenodd" clip-rule="evenodd" d="M37.3096 1.71387C38.266 1.65733 39.2034 1.74522 40.1221 1.97754C37.2671 7.04289 34.3667 12.082 31.4209 17.0947C29.8835 18.2004 28.3308 19.2843 26.7627 20.3467C26.715 20.3414 26.6857 20.3121 26.6748 20.2588C30.244 14.0867 33.7889 7.90502 37.3096 1.71387Z" fill="#998CFF"/>
<path opacity="0.997" fill-rule="evenodd" clip-rule="evenodd" d="M40.1221 1.97754C41.0049 2.22842 41.7959 2.63858 42.4951 3.20801C42.4109 3.2478 42.3376 3.3064 42.2754 3.38379C39.3509 8.50133 36.4066 13.599 33.4424 18.6768C32.7669 18.1473 32.0931 17.62 31.4209 17.0947C34.3667 12.082 37.2671 7.04289 40.1221 1.97754Z" fill="#9F86FF"/>
<path opacity="0.996" fill-rule="evenodd" clip-rule="evenodd" d="M42.4951 3.20801C43.278 3.83758 43.8933 4.5993 44.3408 5.49316C41.3742 10.4591 38.4738 15.4688 35.6396 20.5225C34.8793 19.9376 34.1469 19.3224 33.4424 18.6768C36.4066 13.599 39.3509 8.50133 42.2754 3.38379C42.3376 3.3064 42.4109 3.2478 42.4951 3.20801Z" fill="#A580FF"/>
<path opacity="0.996" fill-rule="evenodd" clip-rule="evenodd" d="M44.3408 5.49316C44.6012 6.09835 44.8062 6.71359 44.9561 7.33887C44.9561 8.18848 44.9561 9.03806 44.9561 9.8877C42.695 13.7349 40.4538 17.6021 38.2324 21.4893C38.0831 21.7899 37.8927 22.0536 37.6611 22.2803C36.9673 21.7142 36.2935 21.1283 35.6396 20.5225C38.4738 15.4688 41.3742 10.4591 44.3408 5.49316Z" fill="#AB79FF"/>
<path opacity="0.97" fill-rule="evenodd" clip-rule="evenodd" d="M23.1592 9.71191C24.2159 9.87521 24.6993 10.4904 24.6093 11.5576C24.2915 12.5172 23.6324 12.8834 22.6318 12.6563C21.6818 12.1501 21.4328 11.403 21.8847 10.415C22.2243 10.004 22.6492 9.76957 23.1592 9.71191Z" fill="#86A1FF"/>
<path opacity="0.997" fill-rule="evenodd" clip-rule="evenodd" d="M44.9561 9.8877C44.9561 11.5869 44.9561 13.2862 44.9561 14.9854C43.1595 17.9631 41.431 20.9806 39.7705 24.0381C39.0395 23.4826 38.3364 22.8967 37.6611 22.2803C37.8927 22.0536 38.0831 21.7899 38.2324 21.4893C40.4538 17.6021 42.695 13.7349 44.9561 9.8877Z" fill="#B173FF"/>
<path opacity="0.994" fill-rule="evenodd" clip-rule="evenodd" d="M19.1162 12.4365C19.3407 13.0321 19.6336 13.5887 19.9951 14.1064C18.3473 16.9627 16.6774 19.8045 14.9854 22.6318C14.5192 22.3407 14.0797 22.0184 13.667 21.665C15.4151 18.5501 17.1876 15.4446 18.9844 12.3486C19.018 12.3975 19.062 12.4268 19.1162 12.4365Z" fill="#81A6FF"/>
<path opacity="0.996" fill-rule="evenodd" clip-rule="evenodd" d="M19.9951 14.1064C20.266 14.271 20.5004 14.476 20.6982 14.7217C20.6107 14.7141 20.5375 14.7435 20.4785 14.8096C18.8808 17.5952 17.2841 20.3784 15.6885 23.1592C15.4507 22.9823 15.2163 22.8066 14.9854 22.6318C16.6774 19.8045 18.3473 16.9627 19.9951 14.1064Z" fill="#84A3FF"/>
<path opacity="0.989" fill-rule="evenodd" clip-rule="evenodd" d="M25.9717 14.3701C26.0102 14.3644 26.0395 14.379 26.0596 14.414C24.071 17.82 22.0934 21.233 20.127 24.6533C20.0129 24.7804 19.9982 24.8976 20.083 25.0049C18.7324 26.003 17.3555 26.9698 15.9521 27.9053C18.1913 23.9004 20.4911 19.8868 22.8516 15.8642C22.9402 15.7302 22.9842 15.5837 22.9834 15.4248C24.1236 15.4694 25.1197 15.1179 25.9717 14.3701Z" fill="#8D9AFF"/>
<path opacity="0.99" fill-rule="evenodd" clip-rule="evenodd" d="M20.6982 14.7216C21.1305 14.9525 21.5699 15.1576 22.0166 15.3369C22.0955 15.3947 22.1834 15.4532 22.2802 15.5126C19.8476 19.7338 17.4159 23.9525 14.9853 28.1689C14.0017 27.9906 13.577 27.4047 13.7109 26.4111C13.7932 26.0853 13.9543 25.8069 14.1943 25.5761C14.9784 25.0449 15.7547 24.503 16.5234 23.9501C16.568 23.8187 16.524 23.7161 16.3916 23.6425C16.1394 23.5022 15.905 23.3411 15.6885 23.1591C17.2841 20.3783 18.8808 17.5951 20.4785 14.8095C20.5375 14.7434 20.6107 14.7141 20.6982 14.7216Z" fill="#87A0FF"/>
<path opacity="0.996" fill-rule="evenodd" clip-rule="evenodd" d="M22.0166 15.3369C22.3361 15.3909 22.6584 15.4202 22.9834 15.4248C22.9842 15.5837 22.9402 15.7302 22.8516 15.8643C20.4911 19.8868 18.1913 23.9004 15.9521 27.9053C15.6721 28.1139 15.3498 28.2018 14.9854 28.1689C17.416 23.9526 19.8476 19.7338 22.2803 15.5127C22.1834 15.4533 22.0955 15.3947 22.0166 15.3369Z" fill="#8A9DFF"/>
<path opacity="0.996" fill-rule="evenodd" clip-rule="evenodd" d="M44.9561 14.9854C44.9561 16.6845 44.9561 18.3838 44.9561 20.083C43.828 21.9285 42.744 23.8036 41.7041 25.708C41.0573 25.1488 40.4128 24.5921 39.7705 24.0381C41.431 20.9806 43.1595 17.9631 44.9561 14.9854Z" fill="#B76DFF"/>
<path fill-rule="evenodd" clip-rule="evenodd" d="M44.9561 20.083C44.9561 22.0459 44.9561 24.0088 44.9561 25.9717C44.0185 27.5537 43.0811 29.1357 42.1436 30.7178C42.1582 29.1647 42.1436 27.6121 42.0996 26.0596C41.9791 25.9241 41.8473 25.8069 41.7041 25.708C42.744 23.8036 43.828 21.9285 44.9561 20.083Z" fill="#BD66FF"/>
<path fill-rule="evenodd" clip-rule="evenodd" d="M2.76855 24.3896C2.76855 25.1807 2.76855 25.9717 2.76855 26.7627C1.83105 28.3447 0.893558 29.9268 -0.0439453 31.5088C-0.0439453 30.6885 -0.0439453 29.8681 -0.0439453 29.0479C0.893558 27.4951 1.83105 25.9424 2.76855 24.3896Z" fill="#6FBAFF"/>
<path fill-rule="evenodd" clip-rule="evenodd" d="M2.76855 26.7627C2.76855 27.6709 2.76855 28.5791 2.76855 29.4873C1.83105 31.0401 0.893558 32.5927 -0.0439453 34.1455C-0.0439453 33.2666 -0.0439453 32.3877 -0.0439453 31.5088C0.893558 29.9268 1.83105 28.3447 2.76855 26.7627Z" fill="#72B7FF"/>
<path fill-rule="evenodd" clip-rule="evenodd" d="M44.9561 25.9717C44.9561 27.6709 44.9561 29.3701 44.9561 31.0693C44.0185 32.6514 43.0811 34.2334 42.1436 35.8154C42.1436 34.1162 42.1436 32.417 42.1436 30.7178C43.0811 29.1357 44.0185 27.5537 44.9561 25.9717Z" fill="#C360FE"/>
<path fill-rule="evenodd" clip-rule="evenodd" d="M2.76855 29.4873C2.76855 30.3955 2.76855 31.3037 2.76855 32.2119C1.85315 33.7793 0.915645 35.3319 -0.0439453 36.8701C-0.0439453 35.9619 -0.0439453 35.0537 -0.0439453 34.1455C0.893558 32.5927 1.83105 31.0401 2.76855 29.4873Z" fill="#74B3FF"/>
<path opacity="0.992" fill-rule="evenodd" clip-rule="evenodd" d="M2.76855 32.2119C2.76855 33.2666 2.76855 34.3213 2.76855 35.376C1.99195 36.6358 1.25953 37.9248 0.571289 39.2432C0.278762 38.717 0.0736835 38.1604 -0.0439453 37.5732C-0.0439453 37.3388 -0.0439453 37.1045 -0.0439453 36.8701C0.915645 35.3319 1.85315 33.7793 2.76855 32.2119Z" fill="#78B0FF"/>
<path opacity="0.994" fill-rule="evenodd" clip-rule="evenodd" d="M44.9561 31.0693C44.9561 33.2373 44.9561 35.4052 44.9561 37.5732C44.0513 41.2306 41.7075 43.1057 37.9248 43.1982C38.5208 42.1971 39.1068 41.1863 39.6826 40.166C39.6304 40.1252 39.5718 40.1106 39.5068 40.1221C41.3423 39.2963 42.2212 37.8606 42.1436 35.8154C43.0811 34.2334 44.0185 32.6514 44.9561 31.0693Z" fill="#C959FF"/>
<path opacity="0.978" fill-rule="evenodd" clip-rule="evenodd" d="M2.76855 35.376C2.63999 36.708 2.96226 37.9092 3.73535 38.9795C3.59698 39.0179 3.49443 39.1058 3.42773 39.2432C3.04496 40.0099 2.62016 40.7423 2.15332 41.4404C1.41876 40.8531 0.891413 40.1207 0.571289 39.2432C1.25953 37.9248 1.99195 36.6358 2.76855 35.376Z" fill="#7DABFF"/>
<path opacity="0.979" fill-rule="evenodd" clip-rule="evenodd" d="M3.73535 38.9795C4.17603 39.3748 4.64477 39.7264 5.1416 40.0342C5.05407 40.0266 4.98083 40.056 4.92188 40.1221C4.51477 40.9217 4.06066 41.6834 3.55957 42.4072C2.99837 42.2149 2.52962 41.8926 2.15332 41.4404C2.62016 40.7423 3.04496 40.0099 3.42773 39.2432C3.49443 39.1058 3.59698 39.0179 3.73535 38.9795Z" fill="#82A6FF"/>
<path opacity="0.981" fill-rule="evenodd" clip-rule="evenodd" d="M39.5068 40.1221C39.5718 40.1106 39.6304 40.1252 39.6826 40.166C39.1068 41.1864 38.5208 42.1971 37.9248 43.1983C36.958 43.1983 35.9912 43.1983 35.0244 43.1983C35.5578 42.2195 36.1144 41.2527 36.6943 40.2979C37.6411 40.3398 38.5786 40.2812 39.5068 40.1221Z" fill="#C360FF"/>
<path opacity="0.967" fill-rule="evenodd" clip-rule="evenodd" d="M5.1416 40.0341C6.06134 40.2705 6.99884 40.3584 7.9541 40.2978C7.41967 41.2789 6.86303 42.2457 6.28418 43.1982C5.30059 43.1629 4.39239 42.8993 3.55957 42.4072C4.06066 41.6834 4.51477 40.9216 4.92188 40.122C4.98083 40.0559 5.05407 40.0266 5.1416 40.0341Z" fill="#86A0FF"/>
<path opacity="0.97" fill-rule="evenodd" clip-rule="evenodd" d="M7.9541 40.2979C8.83301 40.2979 9.71191 40.2979 10.5908 40.2979C10.7184 40.3683 10.8649 40.4123 11.0303 40.4297C10.4908 41.3478 9.96346 42.2706 9.44824 43.1982C8.39355 43.1982 7.33887 43.1982 6.28418 43.1982C6.86303 42.2458 7.41967 41.279 7.9541 40.2979Z" fill="#8C9AFF"/>
<path opacity="0.973" fill-rule="evenodd" clip-rule="evenodd" d="M15.6006 40.2979C16.3916 40.2979 17.1826 40.2979 17.9736 40.2979C17.5001 41.2154 17.002 42.1236 16.4795 43.0225C16.6369 43.0813 16.7834 43.14 16.9189 43.1982C15.7764 43.1982 14.6338 43.1982 13.4912 43.1982C13.9648 42.2807 14.4628 41.3725 14.9854 40.4736C15.2024 40.4149 15.4074 40.3563 15.6006 40.2979Z" fill="#998CFF"/>
<path opacity="0.979" fill-rule="evenodd" clip-rule="evenodd" d="M17.9736 40.2979C18.7939 40.2979 19.6143 40.2979 20.4346 40.2979C20.5701 40.3561 20.7166 40.4147 20.874 40.4736C20.3679 41.3987 19.8405 42.3069 19.292 43.1982C18.501 43.1982 17.71 43.1982 16.9189 43.1982C16.7834 43.14 16.6369 43.0813 16.4795 43.0225C17.002 42.1236 17.5001 41.2154 17.9736 40.2979Z" fill="#9F86FF"/>
<path opacity="0.974" fill-rule="evenodd" clip-rule="evenodd" d="M20.4346 40.2979C21.4893 40.2979 22.5439 40.2979 23.5986 40.2979C23.7561 40.369 23.9319 40.4129 24.126 40.4297C23.5411 41.3216 23.0137 42.2445 22.5439 43.1982C21.46 43.1982 20.3759 43.1982 19.292 43.1982C19.8405 42.3069 20.3679 41.3987 20.874 40.4736C20.7166 40.4147 20.5701 40.3561 20.4346 40.2979Z" fill="#A580FF"/>
<path opacity="0.986" fill-rule="evenodd" clip-rule="evenodd" d="M23.5986 40.2979C25.0049 40.2979 26.4111 40.2979 27.8174 40.2979C27.6367 40.3608 27.4462 40.4194 27.2461 40.4736C26.7324 41.3843 26.2196 42.2924 25.708 43.1982C24.6533 43.1982 23.5986 43.1982 22.5439 43.1982C23.0137 42.2445 23.5411 41.3216 24.126 40.4297C23.9319 40.4129 23.7561 40.369 23.5986 40.2979Z" fill="#AB79FF"/>
<path opacity="0.973" fill-rule="evenodd" clip-rule="evenodd" d="M27.8174 40.2979C28.6377 40.2979 29.458 40.2979 30.2783 40.2979C29.7631 41.2254 29.2358 42.1483 28.6963 43.0664C28.8617 43.0838 29.0081 43.1278 29.1357 43.1982C27.9932 43.1982 26.8506 43.1982 25.708 43.1982C26.2196 42.2924 26.7324 41.3843 27.2461 40.4736C27.4462 40.4194 27.6367 40.3608 27.8174 40.2979Z" fill="#B173FF"/>
<path opacity="0.98" fill-rule="evenodd" clip-rule="evenodd" d="M30.2783 40.2979C31.0986 40.2979 31.919 40.2979 32.7393 40.2979C32.8669 40.3683 33.0133 40.4123 33.1787 40.4297C32.6382 41.3502 32.1108 42.273 31.5967 43.1982C30.7764 43.1982 29.956 43.1982 29.1357 43.1982C29.0081 43.1278 28.8617 43.0838 28.6963 43.0664C29.2358 42.1483 29.7631 41.2254 30.2783 40.2979Z" fill="#B76DFF"/>
<path opacity="0.968" fill-rule="evenodd" clip-rule="evenodd" d="M32.7393 40.2979C34.0576 40.2979 35.376 40.2979 36.6943 40.2979C36.1144 41.2527 35.5578 42.2195 35.0244 43.1982C33.8818 43.1982 32.7393 43.1982 31.5967 43.1982C32.1108 42.273 32.6382 41.3502 33.1787 40.4297C33.0133 40.4123 32.8669 40.3683 32.7393 40.2979Z" fill="#BD66FF"/>
<path opacity="0.994" fill-rule="evenodd" clip-rule="evenodd" d="M10.5908 40.2979C12.2607 40.2979 13.9307 40.2979 15.6006 40.2979C15.4074 40.3563 15.2024 40.4149 14.9854 40.4736C14.4628 41.3725 13.9648 42.2807 13.4912 43.1982C12.1436 43.1982 10.7959 43.1982 9.44824 43.1982C9.96346 42.2706 10.4908 41.3478 11.0303 40.4297C10.8649 40.4123 10.7184 40.3683 10.5908 40.2979Z" fill="#9393FF"/>
</g>
<defs>
<clipPath id="clip0_1_671">
<rect width="45" height="45" fill="white"/>
</clipPath>
</defs>
</svg>
